<svg xmlns="http://www.w3.org/2000/svg" xmlns:xlink="http://www.w3.org/1999/xlink" viewBox="0 0 1000 563"><style><![CDATA[.g{fill:#383031}.h{fill:#cfe9f9}.i{fill:#fff}.j{fill:#22160f}.k{fill:#858083}.l{fill:#595858}.m{fill:#a2cddd}]]></style><image width="1000" height="563" xlink:href="Exploding_Batteries-Causes-II_-1000px.jpg" transform="translate(-.52 1.216)" overflow="visible" opacity=".57"/><path d="M0 0h1000v563H0z" fill="#6c87ab"/><g enable-background="new " class="i"><path d="M65.6 68.5l-5.6-24h-.1l-5.6 24.1h-8.6l-9.6-37.2h9.6l5 24.2h.1l5.5-24.2h7.3L69 55.6h.1l5.1-24.3h9.6L74 68.5h-8.4zm44 0V53.7H97.5v14.9H88V31.4h9.5v14h12.2v-14h9.5v37.2h-9.6zm40.2 0l-1.8-5.4h-12.9l-2 5.4H123l14.9-37.2h7.5l14.8 37.2h-10.4zM141.7 43l-.2-.1-3.8 12.7h7.8L141.7 43zm25.5 25.5V39.7h-7.3v-8.3H184v8.3h-7.3v28.8h-9.5z"/><use xlink:href="#C"/><path d="M267 68.5l-1.8-5.4h-12.9l-2 5.4h-10.2L255 31.3h7.5l14.8 37.2H267zM258.9 43l-.2-.1-3.8 12.7h7.8L258.9 43zm45.4 25.5L290 45.8l.3 22.7h-9.1V31.4h8.2l14.5 23.5-.4-23.5h9.1v37.2h-8.3z"/><use xlink:href="#C" x="131.5"/><path d="M398.6 68.5l-1.8-5.4h-12.9l-2 5.4h-10.2l14.9-37.2h7.5l14.8 37.2h-10.3zM390.4 43l-.2-.1-3.8 12.7h7.8L390.4 43zm39.2-11.6h9.5v22.8c0 3.9-.6 6.8-1.9 8.8-2.5 4-6.6 6.3-12.3 6.3-3.1 0-5.8-.6-7.9-1.9-4.4-2.6-6.5-6-6.5-13.2V31.4h9.5V54c0 4.6 1.5 6.9 4.8 6.9 3.2 0 4.7-1.6 4.7-6.8V31.4zm30.7 10.8c-.4-2.7-1.5-3.6-3.4-3.6-1.8 0-3.3 1.3-3.3 2.9 0 2.2 2 3.2 6.1 5C467.9 50 470 53 470 57.8c0 7.2-4.9 11.4-13 11.4S443.6 65 443.6 57v-.8h9.4c.1 3.1 1.6 5.1 3.9 5.1 2 0 3.6-1.6 3.6-3.6 0-3-4.1-4.3-7.5-5.6-6.1-2.5-8.8-5.7-8.8-10.5 0-6.3 6.1-11 13-11 2.5 0 4.6.6 6.6 1.6 4 2.1 5.9 5 5.9 10h-9.4zm14.2 26.3V31.4h20.6v8.3h-11.6v5.8h11.2v8.3h-11.2v6.4h11.6v8.3h-20.6zm65 0l-1.8-5.4h-12.9l-2 5.4h-10.2l14.9-37.2h7.5l14.8 37.2h-10.3zM531.4 43l-.2-.1-3.8 12.7h7.8L531.4 43z"/></g><g class="i"><path d="M50.5 115.3L38.1 78.1h9.7l7.5 26.1h.1L63 78.1h9.8l-12.5 37.2h-9.8zm45.3 0l-1.8-5.4H81.1l-2 5.4H68.9l14.9-37.2h7.5l14.8 37.2H95.8zm-8.1-25.6l-.2-.1-3.8 12.7h7.8l-3.8-12.6zm22.2 25.6V78.1h12.6c4-.1 6.9.5 8.9 1.4 4 1.9 6.5 6.1 6.5 11.2 0 6.9-3.8 13-14.5 13H119v11.7h-9.1zm13.2-20c3.8 0 5.7-1.3 5.7-4.5 0-3-1.9-4.4-6.1-4.4H119v8.8h4.1zm18.8 20V78.1h20.6v8.3H151v5.8h11.2v8.3H151v6.4h11.6v8.3h-20.7zm42 0V78.1h11.9c2.7 0 4.6.2 5.9.5 4.2 1 7.7 4.2 7.7 9.2 0 3.2-1.5 6-4.3 7.5 4.1 1.4 6.1 4.4 6.1 8.6 0 3.6-1.5 6.8-4.3 8.8-2.9 2.1-4.8 2.5-10.7 2.5h-12.3zm12.9-23.1c2.4 0 3.6-1 3.6-3s-1.2-2.8-3.6-2.8H193v5.8h3.8zm1.1 14.7c2.7 0 4.3-1.2 4.3-3.6 0-2.2-1.5-3.2-4.3-3.2H193v6.8h4.9zm42 8.4l-1.8-5.4h-12.9l-2 5.4H213l14.9-37.2h7.5l14.8 37.2h-10.3zm-8.1-25.6l-.2-.1-3.8 12.7h7.8l-3.8-12.6zm25.4 25.6V86.4h-7.3v-8.3H274v8.3h-7.3v28.8h-9.5zm26.1 0V86.4H276v-8.3h24.1v8.3h-7.3v28.8h-9.5zm20.6 0V78.1h20.6v8.3H313v5.8h11.2v8.3H313v6.4h11.6v8.3h-20.7zm44.3 0l-8.6-12h-.1v12h-9.1V78.1h12.2c3.9 0 6.8.5 8.8 1.4 4 1.8 6.8 6.2 6.8 11.5 0 5.9-3.5 10.7-9.2 11.7l10.1 12.7h-10.9zM343 96.8c3.8 0 6.1-1.8 6.1-5.3 0-3.2-2.4-5-6-5h-3.6v10.3h3.5zm27.5 18.5v-13.5l-11.1-23.7h10.3l5.5 14.9 5.6-14.9H391l-11 23.7v13.5h-9.5zm43.1 0V86.4h-7.3v-8.3h24.1v8.3h-7.3v28.8h-9.5zm18.2-17.8c0-11.5 8.3-20.1 19.6-20.1 10.8 0 19.6 8.4 19.6 19 0 11-8.5 19.5-19.2 19.5-10.3.1-20-7.4-20-18.4zm29.7-.8c0-5.8-4.2-11-10.1-11s-10.1 5-10.1 10.9c0 6.1 4.2 11.1 10.2 11.1 5.9-.1 10-5 10-11zm30.2 18.6V78.1h20.6v8.3h-11.6v5.8H512v8.3h-11.2v6.4h11.6v8.3h-20.7zm50 0l-8-13.2-7.6 13.2h-10.6l13-19.8L517 78.1h10.8l6.4 10.6 6.2-10.6h10.7l-11.4 17.6 12.9 19.6h-10.9zm14.6 0V78.1h12.6c4-.1 6.9.5 8.9 1.4 4 1.9 6.5 6.1 6.5 11.2 0 6.9-3.8 13-14.5 13h-4.4v11.7h-9.1zm13.2-20c3.8 0 5.7-1.3 5.7-4.5 0-3-1.9-4.4-6.1-4.4h-3.7v8.8h4.1zm19 20V78.1h9.5v28.8h11v8.3h-20.5zm22.2-17.8c0-11.5 8.3-20.1 19.6-20.1 10.8 0 19.6 8.4 19.6 19 0 11-8.5 19.5-19.2 19.5-10.4.1-20-7.4-20-18.4zm29.7-.8c0-5.8-4.2-11-10.1-11s-10.1 5-10.1 10.9c0 6.1 4.2 11.1 10.2 11.1 5.9-.1 10-5 10-11zm14.1 18.6V78.1h12.7c4.6 0 8.3.8 10.9 2.3 5.3 3 8.6 8.7 8.6 16.3 0 12.3-7.2 18.6-18.8 18.6h-13.4zm13.8-8.4c5.5 0 8.9-3.4 8.9-10.2 0-6.6-3.4-10.3-8.8-10.3H664v20.5h4.3zm24 8.4V78.1h20.6v8.3h-11.6v5.8h11.2v8.3h-11.2v6.4h11.6v8.3h-20.6zM719 95.9v-8.5h8.7v8.5H719zm0 19.4v-8.5h8.7v8.5H719z"/><use xlink:href="#D"/><use xlink:href="#E"/><path d="M100.6 434c0-5 3.6-8.8 8.6-8.8 4.8 0 8.6 3.7 8.6 8.3 0 4.8-3.7 8.6-8.4 8.6-4.5 0-8.8-3.3-8.8-8.1zm13-.3c0-2.6-1.8-4.8-4.4-4.8s-4.4 2.2-4.4 4.8c0 2.7 1.8 4.8 4.5 4.8 2.5-.1 4.3-2.2 4.3-4.8z"/><use xlink:href="#F"/><use xlink:href="#F" x="14"/><path d="M148.1 441.8v-16.3h4.2v16.3h-4.2z"/><use xlink:href="#G"/><path d="M188.7 433.4c0 4.4-3.2 8.7-8.7 8.7-4.8 0-8.6-3.8-8.6-8.5 0-4.9 4-8.4 8.7-8.4 3.7 0 7.2 2.5 8.1 5.8h-4.7c-.8-1.3-2-2.1-3.6-2.1-2.6 0-4.4 2.1-4.4 4.7 0 2.7 1.7 4.9 4.5 4.9 1.9 0 3.4-.9 3.9-2.6H179v-3.3h9.7v.8z"/><use xlink:href="#H"/><path d="M81.9 458.5c0-3.5 2.9-6.4 6.3-6.4 3.5 0 6.3 2.9 6.3 6.3 0 3.5-2.9 6.3-6.3 6.3-3.4.1-6.3-2.8-6.3-6.2zm11.1-.1c0-2.6-2.1-4.9-4.8-4.9-2.6 0-4.7 2.3-4.7 5 0 2.6 2.1 4.9 4.8 4.9 2.6 0 4.7-2.3 4.7-5z"/><use xlink:href="#I"/><use xlink:href="#J"/><path d="M72.4 479.4c.1 2.4 2.3 4.4 4.7 4.4 1.9 0 3.7-1.1 4.3-2.8H83c-.9 2.6-3.3 4.2-5.9 4.2-3.4 0-6.3-2.8-6.3-6.3s2.9-6.3 6.2-6.3c3.6 0 6.3 3.1 6.3 6.4v.5H72.4zm9.4-1.4c-.4-2.4-2.4-4.1-4.7-4.1-2.2 0-4.2 1.6-4.7 4.1h9.4zm3.7 1.4V478h6v1.5h-6z"/><use xlink:href="#K"/><use xlink:href="#L"/><use xlink:href="#M"/><use xlink:href="#N"/><path d="M143 484.9v-12h1.5v1.7c.5-1.3 1.5-1.9 3.4-2v1.6c-2.2.2-3.4 1.7-3.4 3.6v7.1H143zm7-5.5c.1 2.4 2.3 4.4 4.7 4.4 1.9 0 3.7-1.1 4.3-2.8h1.6c-.9 2.6-3.3 4.2-5.9 4.2-3.4 0-6.3-2.8-6.3-6.3s2.9-6.3 6.2-6.3c3.6 0 6.3 3.1 6.3 6.4v.5H150zm9.4-1.4c-.4-2.4-2.4-4.1-4.7-4.1-2.2 0-4.2 1.6-4.7 4.1h9.4z"/><use xlink:href="#O"/><use xlink:href="#O" x="8"/><use xlink:href="#P"/><path d="M70.9 499.3c0-3.5 2.9-6.4 6.3-6.4 3.5 0 6.3 2.9 6.3 6.3 0 3.5-2.9 6.3-6.3 6.3-3.5.1-6.3-2.8-6.3-6.2zm11-.1c0-2.6-2.1-4.9-4.8-4.9-2.6 0-4.7 2.3-4.7 5 0 2.6 2.1 4.9 4.8 4.9s4.7-2.3 4.7-5z"/><use xlink:href="#J" x="-24.5" y="40.8"/><use xlink:href="#Q"/><path d="M120.8 505.3v-2.1c-1 1.5-2.7 2.4-4.7 2.4-3.6 0-6.5-2.7-6.5-6.3s2.9-6.3 6.5-6.3c2 0 3.7.9 4.7 2.4v-2.1h1.5v12h-1.5zm.1-6c0-2.7-2.1-5-4.8-5-2.8 0-4.9 2.1-4.9 5 0 2.8 2.1 4.9 4.9 4.9 2.6 0 4.8-2.2 4.8-4.9zm4.4 10.2v-16.3h1.5v2.1c1.1-1.6 2.8-2.4 4.7-2.4 3.7 0 6.5 2.8 6.5 6.3s-2.8 6.3-6.5 6.3c-1.9 0-3.6-.8-4.7-2.4v6.3h-1.5zm6.2-15.2c-2.6 0-4.8 2.2-4.8 5 0 2.7 2.1 4.9 4.8 4.9 2.9 0 4.9-2.1 4.9-4.9.1-2.8-1.9-5-4.9-5z"/><use xlink:href="#P" x="-37.3" y="20.4"/><path d="M303.8 410.9c-1.6 2.8-4.4 4.6-7.5 4.6-4.6 0-8.5-3.7-8.5-8.4 0-4.8 3.8-8.4 8.5-8.4 3 0 6.2 1.7 7.5 4.4H302a6.98 6.98 0 0 0-5.7-3c-3.6 0-6.8 3.2-6.8 7 0 3.7 3.2 6.9 6.9 6.9 2.2 0 4.2-1.1 5.7-3.1h1.7zm12.9 4.2V413c-1 1.5-2.7 2.4-4.7 2.4-3.6 0-6.5-2.7-6.5-6.3s2.9-6.3 6.5-6.3c2 0 3.7.9 4.7 2.4v-2.1h1.5v12h-1.5zm.1-6c0-2.7-2.1-5-4.8-5-2.8 0-4.9 2.1-4.9 5 0 2.8 2.1 4.9 4.9 4.9 2.7 0 4.8-2.2 4.8-4.9z"/><use xlink:href="#J" x="211" y="-49.4"/><use xlink:href="#J" x="217.6" y="-49.4"/><use xlink:href="#H" x="263.6" y="-49.3"/><use xlink:href="#L" x="238.4" y="-69.8"/><path d="M360.4 415.1v-6.7c0-2.7-1.6-4.2-3.7-4.2-2.3 0-3.8 1.8-3.8 4.1v6.8h-1.5v-12h1.5v1.5c.8-1.2 2.1-1.8 3.7-1.8 3.3 0 5.3 2.3 5.3 5.6v6.7h-1.5z"/><use xlink:href="#M" x="251.8" y="-69.8"/><use xlink:href="#H" x="465" y="-5.7"/><use xlink:href="#R"/><use xlink:href="#I" x="465.1" y="-5.7"/><use xlink:href="#J" x="465.1" y="-5.7"/><path d="M598.7 458.8v-2.1c-1.1 1.6-2.8 2.4-4.7 2.4-3.6 0-6.5-2.7-6.5-6.3s2.9-6.3 6.5-6.3c1.9 0 3.7.9 4.7 2.4v-6.3h1.5v16.3h-1.5zm.1-6c0-2.7-2.1-5-4.8-5-2.8 0-4.9 2.1-4.9 5 0 2.8 2.1 4.9 4.9 4.9 2.7 0 4.8-2.2 4.8-4.9z"/><use xlink:href="#P" x="425.6" y="-26"/><use xlink:href="#Q" x="518.4" y="-46.5"/><use xlink:href="#L" x="520.7" y="-26.1"/><use xlink:href="#K" x="539.4" y="-26"/><use xlink:href="#P" x="470" y="-26"/><path d="M537.8 479.2v-10.6h-2.5v-1.4h2.5V463h1.5v4.2h2.9v1.4h-2.9v10.6h-1.5zm5-5.9c0-3.5 2.9-6.4 6.3-6.4 3.5 0 6.3 2.9 6.3 6.3 0 3.5-2.9 6.3-6.3 6.3s-6.3-2.9-6.3-6.2zm11-.2c0-2.6-2.1-4.9-4.8-4.9-2.6 0-4.7 2.3-4.7 5 0 2.6 2.1 4.9 4.8 4.9s4.7-2.2 4.7-5zm20.3 6.1l-2.6-8-2.5 8h-1.7l-4.6-12h1.6l3.8 10.1 2.8-8.6h1.3l2.8 8.6 3.8-10.1h1.6l-4.6 12h-1.7z"/><use xlink:href="#N" x="453.8" y="-5.7"/><path d="M598 479.2v-10.6h-2.5v-1.4h2.5V463h1.5v4.2h2.9v1.4h-2.9v10.6H598z"/><use xlink:href="#P" x="425.9" y="-5.6"/><use xlink:href="#J" x="507.5" y="14.7"/><use xlink:href="#H" x="700" y="9.5"/><use xlink:href="#R" x="235" y="15.1"/><path d="M805.9 473.9V472c-.7 1.4-2.1 2.2-3.8 2.2-2.6 0-5.2-1.4-5.2-5.4v-6.9h1.5v6.7c0 2.7 1.2 4.2 3.7 4.2 2.1 0 3.8-1.5 3.8-4.3v-6.6h1.5v12h-1.5z"/><use xlink:href="#J" x="700.1" y="9.4"/><use xlink:href="#Q" x="724.6" y="-31.4"/><path d="M845.4 473.9v-2.1c-1 1.5-2.7 2.4-4.7 2.4-3.6 0-6.5-2.7-6.5-6.3s2.9-6.3 6.5-6.3c2 0 3.7.9 4.7 2.4v-2.1h1.5v12h-1.5zm0-6c0-2.7-2.1-5-4.8-5-2.8 0-4.9 2.1-4.9 5 0 2.8 2.1 4.9 4.9 4.9 2.7 0 4.8-2.2 4.8-4.9zm4.5 10.3v-16.3h1.5v2.1c1.1-1.6 2.8-2.4 4.7-2.4 3.7 0 6.5 2.8 6.5 6.3s-2.8 6.3-6.5 6.3c-1.9 0-3.6-.8-4.7-2.4v6.3h-1.5zm6.2-15.2c-2.6 0-4.8 2.2-4.8 5 0 2.7 2.1 4.9 4.8 4.9 2.9 0 4.9-2.1 4.9-4.9.1-2.8-2-5-4.9-5z"/><use xlink:href="#P" x="687.3" y="-10.9"/><path d="M787.6 494.3v-7.1c0-2.3-1.1-3.9-3.3-3.9-2.1 0-3.3 1.6-3.3 3.9v7h-1.5v-7c0-2.4-1.1-3.9-3.3-3.9-2.1 0-3.3 1.6-3.3 3.9v7h-1.5v-12h1.5v1.4c.7-1.1 2-1.7 3.3-1.7 1.7 0 3.2.8 4 2.3.9-1.5 2.3-2.3 4-2.3 3.1 0 4.8 2.3 4.8 5.1v7.2h-1.4z"/><use xlink:href="#R" x="244.5" y="35.5"/><path d="M817 494.3v-2.1c-1.1 1.6-2.8 2.4-4.7 2.4-3.6 0-6.5-2.7-6.5-6.3s2.9-6.3 6.5-6.3c1.9 0 3.7.9 4.7 2.4V478h1.5v16.3H817zm.1-6c0-2.7-2.1-5-4.8-5-2.8 0-4.9 2.1-4.9 5 0 2.8 2.1 4.9 4.9 4.9 2.7 0 4.8-2.2 4.8-4.9zm10 .1c0-3.5 2.9-6.4 6.3-6.4 3.5 0 6.3 2.9 6.3 6.3 0 3.5-2.9 6.3-6.3 6.3-3.5 0-6.3-2.9-6.3-6.2zm11-.2c0-2.6-2.1-4.9-4.8-4.9-2.6 0-4.7 2.3-4.7 5 0 2.6 2.1 4.9 4.8 4.9s4.7-2.2 4.7-5zm3.9 6.1v-12h1.5v1.7c.5-1.3 1.5-1.9 3.4-2v1.6c-2.2.2-3.4 1.7-3.4 3.6v7.1H842zm23.4 0v-2.1c-1.1 1.6-2.8 2.4-4.7 2.4-3.6 0-6.5-2.7-6.5-6.3s2.9-6.3 6.5-6.3c1.9 0 3.7.9 4.7 2.4V478h1.5v16.3h-1.5zm0-6c0-2.7-2.1-5-4.8-5-2.8 0-4.9 2.1-4.9 5 0 2.8 2.1 4.9 4.9 4.9 2.7 0 4.8-2.2 4.8-4.9z"/><use xlink:href="#P" x="692.3" y="9.5"/><use xlink:href="#Q" x="785" y="-11"/><path d="M895.8 480.8V478h1.5v2.8h-1.5zm0 13.5v-12h1.5v12h-1.5z"/><use xlink:href="#K" x="806" y="9.5"/><use xlink:href="#P" x="736.6" y="9.5"/><path d="M296.8 421.9h4.2v10c0 1.7-.3 3-.8 3.8-1.1 1.7-2.9 2.8-5.4 2.8-1.4 0-2.5-.3-3.5-.8-1.9-1.1-2.8-2.6-2.8-5.8v-10h4.2v9.9c0 2 .6 3 2.1 3 1.4 0 2.1-.7 2.1-3v-9.9z"/><use xlink:href="#G" x="148.7" y="-3.6"/><use xlink:href="#F" x="200.7" y="-3.6"/><use xlink:href="#E" x="247.7" y="-3.6"/><path d="M348.3 430.4c0-5 3.6-8.8 8.6-8.8 4.8 0 8.6 3.7 8.6 8.3 0 4.8-3.7 8.6-8.4 8.6-4.5 0-8.8-3.3-8.8-8.1zm13.1-.3c0-2.6-1.8-4.8-4.4-4.8s-4.4 2.2-4.4 4.8c0 2.7 1.8 4.8 4.5 4.8 2.5-.1 4.3-2.2 4.3-4.8zm8 8.1v-12.6h-3.2v-3.7h10.6v3.7h-3.2v12.6h-4.2z"/><use xlink:href="#S"/><path d="M401.7 428.1c-.7-1.8-2.2-2.8-3.9-2.8-2.6 0-4.4 2.2-4.4 4.8s1.8 4.8 4.4 4.8c1.6 0 3.1-.9 3.9-2.8h4.4c-1 3.9-4.4 6.4-8.2 6.4-2.3 0-4.4-.8-6.1-2.4-1.8-1.7-2.5-3.8-2.5-6.2 0-4.3 3.7-8.2 8.4-8.2 2.2 0 4 .6 5.7 2 1.5 1.3 2.5 2.8 2.8 4.5h-4.5zm8.3 10.1v-12.6h-3.2v-3.7h10.6v3.7h-3.2v12.6H410z"/><use xlink:href="#S" x="40.6"/><use xlink:href="#D" x="360.1" y="-3.6"/><path d="M288.5 458.6v-16.3h5.2c1.2 0 2 .1 2.6.2 1.8.4 3.4 1.8 3.4 4 0 1.4-.7 2.6-1.9 3.3 1.8.6 2.7 1.9 2.7 3.8 0 1.6-.7 3-1.9 3.9-1.3.9-2.1 1.1-4.7 1.1h-5.4zm5.6-10.1c1 0 1.6-.4 1.6-1.3s-.5-1.2-1.6-1.2h-1.7v2.5h1.7zm.5 6.4c1.2 0 1.9-.5 1.9-1.6 0-.9-.6-1.4-1.9-1.4h-2.2v3h2.2zm18.1 3.7l-.8-2.4h-5.7l-.9 2.4H301l6.5-16.3h3.3l6.5 16.3h-4.6zm-3.5-11.2l-1.7 5.5h3.4l-1.7-5.5zm10.5 11.2V446h-3.2v-3.7h10.6v3.7h-3.2v12.6h-4.2zm11.5 0V446H328v-3.7h10.6v3.7h-3.2v12.6h-4.2zm8.9 0v-16.3h9v3.7H344v2.5h4.9v3.7H344v2.8h5.1v3.7h-9zm19.6 0l-3.8-5.3v5.3h-4v-16.3h5.3c1.7 0 3 .2 3.9.6 1.8.8 3 2.7 3 5 0 2.6-1.5 4.7-4 5.1l4.4 5.5h-4.8zm-2.2-8.1c1.7 0 2.7-.8 2.7-2.3 0-1.4-1.1-2.2-2.6-2.2H356v4.5h1.5zm8.9 8.1v-16.3h4.2v16.3h-4.2z"/><use xlink:href="#S" x="-4.7" y="20.4"/><use xlink:href="#T"/><use xlink:href="#S" x="158.5" y="-2.8"/><path d="M558.7 435.4l-3.5-5.8-3.3 5.8h-4.6l5.7-8.7-5-7.6h4.7l2.8 4.6 2.7-4.6h4.7l-5 7.7 5.6 8.6h-4.8zm6.3 0v-16.3h5.5c1.7 0 3 .2 3.9.6 1.8.8 2.9 2.7 2.9 4.9 0 3-1.7 5.7-6.3 5.7h-2v5.1h-4zm5.8-8.8c1.7 0 2.5-.6 2.5-2 0-1.3-.8-1.9-2.7-1.9H569v3.9h1.8zm7.6 1c0-5 3.6-8.8 8.6-8.8 4.8 0 8.6 3.7 8.6 8.3 0 4.8-3.7 8.6-8.4 8.6-4.6 0-8.8-3.3-8.8-8.1zm13-.3c0-2.6-1.8-4.8-4.4-4.8s-4.4 2.2-4.4 4.8c0 2.7 1.8 4.8 4.5 4.8 2.5-.1 4.3-2.3 4.3-4.8z"/><use xlink:href="#T" x="212.3" y="-23.3"/><path d="M610.8 435.4v-16.3h4.2v16.3h-4.2z"/><use xlink:href="#G" x="462.8" y="-6.4"/><path d="M651.4 427c0 4.4-3.2 8.7-8.7 8.7-4.8 0-8.6-3.8-8.6-8.5 0-4.9 4-8.4 8.7-8.4 3.7 0 7.2 2.5 8.1 5.8h-4.7c-.8-1.3-2-2.1-3.6-2.1-2.6 0-4.4 2.1-4.4 4.7 0 2.7 1.7 4.9 4.5 4.9 1.9 0 3.4-.9 3.9-2.6h-4.9v-3.3h9.7v.8zM783 441.2c-.7-1.8-2.2-2.8-3.9-2.8-2.6 0-4.4 2.2-4.4 4.8s1.8 4.8 4.4 4.8c1.7 0 3.1-.9 3.9-2.8h4.4c-1 3.9-4.4 6.4-8.2 6.4-2.3 0-4.4-.8-6.1-2.4-1.8-1.7-2.5-3.8-2.5-6.2 0-4.3 3.7-8.2 8.4-8.2 2.2 0 4 .6 5.7 2 1.5 1.3 2.5 2.8 2.8 4.5H783zm14.7-6.2h4.2v10c0 1.7-.3 3-.8 3.8-1.1 1.7-2.9 2.8-5.4 2.8-1.4 0-2.5-.3-3.5-.8-1.9-1.1-2.8-2.6-2.8-5.8v-10h4.2v9.9c0 2 .6 3 2.1 3 1.4 0 2.1-.7 2.1-3V435z"/><use xlink:href="#T" x="419.4" y="-7.4"/><path d="M819.7 451.3v-12.6h-3.2V435h10.6v3.7h-3.2v12.6h-4.2zm8-7.8c0-5 3.6-8.8 8.6-8.8 4.8 0 8.6 3.7 8.6 8.3 0 4.8-3.7 8.6-8.4 8.6-4.6 0-8.8-3.3-8.8-8.1zm13-.4c0-2.6-1.8-4.8-4.4-4.8s-4.4 2.2-4.4 4.8c0 2.7 1.8 4.8 4.5 4.8 2.5 0 4.3-2.2 4.3-4.8zm19.8 8.2l.1-12.2-3.5 12.2h-2.8l-3.5-12.3.1 12.3h-3.8V435h5.3l3.2 10.7L859 435h5.4v16.3h-3.9zm7 0V435h4.2v16.3h-4.2zm6.4 0v-2.7l5.6-9.9h-5.6V435h10.3v3.4l-5.2 9.3h5.2v3.7h-10.3zm12.6 0V435h4.2v16.3h-4.2zm17.4 0l-6.2-9.9.1 9.9h-4V435h3.6l6.3 10.3-.2-10.3h4v16.3h-3.6zm23.2-8.4c0 4.4-3.2 8.7-8.7 8.7-4.8 0-8.6-3.8-8.6-8.5 0-4.9 4-8.4 8.7-8.4 3.7 0 7.2 2.5 8.1 5.8H922c-.8-1.3-2-2.1-3.6-2.1-2.6 0-4.4 2.1-4.4 4.7 0 2.7 1.7 4.9 4.5 4.9 1.9 0 3.4-.9 3.9-2.6h-4.9V442h9.7v.9z"/></g><g fill="#bad1e8"><path d="M981.6 384.6l3.8-2.7h-3.8V379h11.8v3.9c0 1.2-.2 2.2-.4 2.8-.6 1.3-2 2.2-3.7 2.2-1.9 0-3.4-1.1-3.7-2.9l-4 3.2v-3.6zm5.9-1.7c0 1.2.6 1.9 1.7 1.9 1 0 1.6-.8 1.6-1.9v-1.2h-3.3v1.2zm5.9 12.5v3h-7.3c-1.2 0-2.2-.2-2.8-.6-1.3-.8-2-2.1-2-3.9 0-1 .2-1.8.6-2.5.8-1.4 1.9-2.1 4.2-2.1h7.3v3h-7.2c-1.5 0-2.2.5-2.2 1.5s.5 1.5 2.2 1.5h7.2zm-11.8 6.5h9.2v-2.3h2.7v7.7h-2.7V405h-9.2v-3.1zm0 13.4h4.7v-3.9h-4.7v-3h11.8v3H989v3.9h4.5v3h-11.8v-3zm0 5.3h11.8v3h-9.2v3.5h-2.7v-6.5zm0 7.7h11.8v6.6h-2.7v-3.7h-1.8v3.6h-2.7v-3.6h-2v3.7h-2.7v-6.6z"/><use xlink:href="#U"/><use xlink:href="#U" y="9.5"/><path d="M981.6 458.6l11.8-4v3.1l-8.3 2.4 8.3 2.4v3.1l-11.8-4v-3zm0 14.9l1.7-.6v-4.1l-1.7-.6V465l11.8 4.8v2.4l-11.8 4.7v-3.4zm8.1-2.6l-4-1.3v2.5l4-1.2zm-8.1 7h11.8v4c0 1.3-.2 2.2-.4 2.8-.6 1.3-2 2.1-3.6 2.1-2.2 0-4.1-1.2-4.1-4.6v-1.4h-3.7v-2.9zm6.4 4.2c0 1.2.4 1.8 1.4 1.8s1.4-.6 1.4-1.9v-1.2H988v1.3z"/><use xlink:href="#V"/><path d="M981.6 507.6l3.8-2.7h-3.8V502h11.8v3.9c0 1.2-.2 2.2-.4 2.8-.6 1.3-2 2.2-3.7 2.2-1.9 0-3.4-1.1-3.7-2.9l-4 3.2v-3.6zm5.9-1.7c0 1.2.6 1.9 1.7 1.9 1 0 1.6-.8 1.6-1.9v-1.2h-3.3v1.2zm-5.9 6.6h2.7v2.8h-2.7v-2.8zm7.3 13c1.3-.5 2.1-1.6 2.1-2.9 0-1.9-1.6-3.2-3.5-3.2s-3.5 1.3-3.5 3.2c0 1.2.7 2.2 2 2.8v3.2a6.19 6.19 0 0 1-4.7-6c0-1.6.6-3.2 1.8-4.4 1.2-1.3 2.8-1.8 4.5-1.8 3.1 0 6 2.7 6 6.1 0 1.6-.4 2.9-1.5 4.1-1 1.1-2 1.8-3.3 2v-3.1z"/><use xlink:href="#V" y="41.9"/><path d="M981.6 553.6l8.9.1-8.9-2.5v-2l9-2.6-9 .1v-2.8h11.8v3.9l-7.8 2.4 7.8 2.3v3.9h-11.8v-2.8z"/></g><g class="i"><path d="M151.1 307.8s10.3-8.8 4.2-22.6-7.5-9.3-7.5-9.3 14.5-4.2 19.9-25.7c5.3-21.5-6.5-34.3-14.9-35-8.5-.7-23.2.5-29.3 5.5 0 0-5.1-35.7-32.1-22.6s-23.1 28.6-22.9 31.6 6.4 15.5 6.4 15.5-13.2-.9-8.2 15.6c0 0-18.2 11.3-13.4 23.8s19.7 18.6 36.1 14.1 61.7 9.1 61.7 9.1zM61 233.6s-7.7-7.9-3.3-20.3c4.5-12.4 30-19.1 30-19.1s-18.4 9.7-23 21.1c-4.5 11.3-3.7 18.3-3.7 18.3z"/><ellipse cx="162" cy="298.4" rx="3.2" ry="2.6"/><path d="M119.1 192.5s-2.2-7.4-9.5-5.5-2.4 9 1.1 8.9 8.4-3.4 8.4-3.4zM305.9 248s-16.2-3.1-23.1 10.6c-7 13.6-.7 21.7 2.5 26.4s7.5 12.3 7.5 12.3-8.1 3.9-8.6 12.3c0 0-9.4 3.2-10.7 12.8s6.4 15 6.4 15 4.4 6.2 11.1 4c0 0 9.9 15.3 28.4 9.6 0 0 17.2 4.8 35.1-5.4 0 0 18.2 9.7 29.3 5.5s17.1-8.7 19.9-15.1 3.9-29.9-2.8-36 3.9-8.9 3.9-8.9 10.9-3.8 11.3-12.5c.5-8.7-7.9-23.9-7.9-23.9s1.3-12-8.8-17.1c-10.1-5.2-23.7 3-23.7 3l-11.1-1s-6.6-22.2-27.1-22.7c-20.6-.7-31.6 31.1-31.6 31.1zm11.3-27.8s4.6-13.5 18.1-14.2c13.6-.7 20.3 10.9 20.3 10.9s-14-6.1-21.6-5.4-16.8 8.7-16.8 8.7zm-18.6 22.5s-14.2 4.7-18.8 14c-4.3 8.6-3.9 15.9-2.8 20.7 0 0-8.7 5-11.5-6 0 0-7.9-6-4.2-18.2 3.7-12.1 16.7-9.1 16.7-9.1s2.2-9.4 9.4-10.4c7-1.1 11.2 9 11.2 9zm77.8 112.1s11.2-.3 20.1-6.5c8.9-6.3 10.2-13.5 12.6-17.9s5.7-.4 7.7 2.8 5.8 14.9-1.3 23.1-11.1 3.1-15.4 4.4c-4.2 1.4-2 4.2-8.1 6.3-6.2 2.1-13.7-2.8-15.6-6.3-2-3.6 0-5.9 0-5.9zm202.2-145.3s-2.9-8.4-17.7-11.7-25.6-1.1-32.4 8.3 1.5 25.3 1.5 25.3l-3.8 14.4s-6.7-2.7-16 6.7-14.6 26.5-7.3 37.9 13.3 15.6 30.3 13.5 123.4 5 123.4 5 11.4-7.9 6.3-22.3-27.8-29.3-27.8-29.3 1.5-11.1 1.9-19-3.8-16.1-7.6-21c-3.8-5-5.5-6.1-5.5-12s-5-10.3-8.5-10.3-6.1 2.2-6.1 2.2-3.1-2.7-6.2-1.1c-3.2 1.6-5.7 5.6-5.2 13.6s-19.3-.2-19.3-.2z"/><ellipse cx="570" cy="188.7" rx="11.3" ry="8.9"/><path d="M499.2 193c-18.5 10.1-8.7 24.1-8.7 24.1s-6.6 2.9-7.9 11.2 3.3 12.4 3.3 12.4-3.8 4.7-3.5 20.2c.1 7.3 6.1 15.1 8.7 19.7 2.7 4.7 5.3 5.1 5.3 5.1S483 252.2 521.9 239c0 0-11.8-23.9 4.7-37.4 0 .3-8.9-18.7-27.4-8.6zm140 57.2s10.1-10.8-8.2-38.4c0 0 12.2 3.9 15.3 16.1 3 12.4-4.8 31.2-7.1 22.3zm160 91.1s4.2 8.4-3.9 7.8-34.3-5.9-34.3-40.6 10-36.6 21.7-41c11.7-4.5.6 20.4.6 20.4l15.9 53.4zm101 21.7s9.9-5.9 10.1-11.7-2-15.4-2-15.4 14.7-1.2 23.2-4.1 6.2-17.3-1.6-17.5-1-.1-1-.1 4-2.7 2.2-7.1c-1.8-4.3-6.1-7.8-6.1-7.8s16.5-27 5.6-44.5c-8.7-14-43-6.5-43-6.5s3.7-16.7-5.8-27.9-15.5-20.7-34.2-21-32.1 21.3-32.5 28.7c0 0-23.2-5.8-21.7-10.6s5.7-3.3 5.7-3.3-16.5-29.7-34.3-17.9-18.7 20.9-8.1 38.9c0 0-20.7 6.5-14.4 22.1 3 7.5 6.9 15.4 6.9 15.4s-4.7 5.4-4.4 10.1c.6 9.1 6.2 18.9 6.2 18.9s-4.6-22.5 7.8-32.7 31.7-20.7 31.7-20.7L900.2 363z"/><ellipse transform="matrix(.9311 -.3647 .3647 .9311 -17.1893 311.7566)" cx="816.8" cy="201.4" rx="7.6" ry="5.3"/><ellipse transform="matrix(.6309 -.7758 .7758 .6309 173.7009 765.0079)" cx="890.9" cy="199.9" rx="10.2" ry="14.5"/><path d="M915.2 244.3s7.7-16.2 20-10.9 10.3 16.2 8.6 19.7c0 0 9-.3 7.9 11.3s-14 6.7-14 6.7 4.3-25.9-22.5-26.8z"/></g><path d="M340.4 303.1s16.9 22.2 16.2 46.9c0 0-.7-26.9 8.7-40.7 9.3-13.8 49.8-12.2 49.8-12.2s-40.4-8.5-37.3-15.6-14-28.2-9.3-62.4c0 0-17.3 45.1-36.7 56-19.3 10.9-33.6 20-56 19.3l64.6 8.7zm-211.3-94.9s-16 23.3-22 23.3.7 16.4-40.4 14c0 0 32.4 10 29.6 22.4-2.9 12.4 30.4-2.7 60 9.6-.1 0-35.6-33.5-27.2-69.3zM528 257.1s5.3-6.9-20.2-19.3c0 0 24.9 4.2-15.6-28.7 0 0 37.3 39.3 31.1 6 0 0 9.3 25.1 37.3 10.2s21.1-34.9 21.1-34.9 5.6 33.8 12.4-14c0 0-1.6 48.9 5.3 49.6s-.4 27.6 54.7 14.9c0 0-47.1 23.3 29.3 8.4 0 0-62.2 14.9-56.7 21.8 5.7 6.9-98.7-14-98.7-14zm368-84.9s-8.4 14.2-16.2 18c0 0 6.9-2.4 8.1 5.3 0 0-2.1-5.1 8.1-23.3zm9.6 67.8s24 2.4 38-6.2c0 0-25.8 13.3-26.4 21.8-.1-.1 3.2-11-11.6-15.6zm27.1 38.9s4.4 7.8-.9 11.6c0 0 1.3-3.1 25.3-3.1 0-.1-16.2-3-24.4-8.5zM894 336s4.4 26.4 16.2 40.4c0 0-21.8-28.2-30.2-23.3s14-17.1 14-17.1zm-120.7-21.6s-5.3 14 8.7 16.2c0 0-12.4-.2-44.4 14.7 0 0 24.4-18.4 35.7-30.9zm-3.3-32.9s-8.2 4.7-2.2 12.5c0 0-10.4-6.2-28.2-7.8 0 0 14.8.8 30.4-4.7z" fill="#f6cd29"/><path d="M116.7 226.9s24.1-10.8 33 0 8.1 27 0 34.2c-8.1 7.3-43.4 33.9-59 33.8s-29.5-24.6-1-47.9c0 0-19.7-17-3.7-32.6s30.7 12.5 30.7 12.5zm464.8-5.2s-13.6-19.7-32.7-10.4-9 32.7-9 32.7-26.6 4-30.3 28.4 31.6 34.2 31.6 34.2-13 14.7 35.7 17.2 66.4-19.3 64.9-41c-1.5-21.8-23.9-24.3-23.9-24.3s19.6-15.9.4-34.4c-19.1-18.4-36.7-2.4-36.7-2.4zm-201.3 110c15.6-7.1 11.8-34.9 4-43.6 0 0 15.8 2.2 17.1-13.3 1.3-15.6-4.4-23.8-15.6-31.8s-25.8 2.2-25.8 2.2-11.6-22.4-22.4-17.8c-10.9 4.7-29.6 30.2-29.6 30.2s-12.7 3.1-13.3 12.4c-.7 9.3 2.7 15.6 19.6 21.8 0 0-21.3 13.1-15.8 32.2 5.6 19.3 66.3 14.9 81.8 7.7zm432.7 3.8s-11.1 21.8-10.2 21.8-3.3 8.7-10.9 15.6-7.1 11.1-4.7 13.3 4.7 2 8.7-3.3 10.2-35.6 17.1-24 75.6.7 77.8-23.3c0 0 34.2-24.9 15.6-43.6 0 0 16.7-10.2 5.6-29.8s-35.8-4.7-35.8-4.7 10-32-21.1-38.9-34.2 23.3-34.2 23.3-11.3-13.1-20.9-1.6 2.9 27.1 2.9 27.1-32.7 10.1-25.6 35c7 25.1 18.6 29.6 35.7 33.1zm10.2-108.9s14.1-22.1 35-16.8 20.1 20.8 20.1 20.8 1.8-18.2-14.9-24.2c-15.9-5.7-30.9 3.1-40.2 20.2zM768.7 268s-17.8-7.8-18.7-3.1 18.7 3.1 18.7 3.1zm146.9 28s12.4 7.1 10.3 21.6-30.2 16.6-30.2 16.6 24-4.1 24.9-16.6-5-21.6-5-21.6zm26-40.3s34.1-.6 27.9-10.1-27.9 10.1-27.9 10.1zm-37.3-33.2s24.3-8 18.4-14.2c-6-6.3-18.4 14.2-18.4 14.2zm-70.8-19.6s3.9-30.2-10.4-27c-14.2 3.3 10.4 27 10.4 27z" fill="#f47621"/><path d="M378.4 286s19.9 4.2 17.4-16.2-24.7-28.1-34-19.4c0 0-7.9-16-19.1-14.6s-27 13.9-28 22.2c0 0-32.6 13 0 30.1l5.6 5s-28.8 17.5-13.9 30.5 38.2-9.2 38.2-9.2 4.7 16.4 25.5 17c20.7.7 22.2-37.5 8.3-45.4zM856 334.2s45.9-4.2 48.3-21.3-4.7-20.9-4.7-20.9 16.8-5.4 13.1-19.6c-3.6-14.1-12-25.9-41.8-9 0 0 10.8-28.2-6.3-39.1s-39.5-7.6-41.5 24.2c0 0-11.1-17.6-20.9-7.8s-1.6 17.2 3.9 27.6c0 0-5-.2-21.1 9.8s-1.2 55.1 30.5 56.2c.1-.1.1 41.9 40.5-.1zm-258.2-21.6s27.3-.1 26.8-28.6-14.4-22.8-14.4-22.8 16.3-7.4 14.4-22.8-20.8-28-42.8-12.9c0 0-13.6-22.3-31.6-10.8-18 11.6-7 30.5-7 30.5s-29.2 8.4-28.8 29.8 20.7 27.7 32 28.5c0 0-15.9 23.6 51.4 9.1zm-470.6-38.1s24.5-14.3 26.3-25.2c1.8-11-.1-27.9-20.2-23.7s-16.7 4.2-16.7 4.2-8.2-17.2-22.6-16.8-9.1 20-9 21.1 8.2 10.8 8.2 10.8-15.8 11.3-15.9 26.1c0 14.9 9.9 33.7 49.9 3.5z" fill="#f99f1d"/><g fill="#f6cd29"><ellipse transform="matrix(.6777 -.7354 .7354 .6777 -126.4056 181.3254)" cx="143.6" cy="234.9" rx="7.8" ry="10.9"/><circle cx="88.4" cy="234.2" r="4.9"/><ellipse cx="109.7" cy="258.5" rx="12.8" ry="11.2"/><ellipse transform="matrix(.2875 -.9578 .9578 .2875 -42.8656 483.4991)" cx="303.5" cy="270.6" rx="6.9" ry="4.2"/><circle cx="341.6" cy="240" r="10.4"/><ellipse transform="matrix(.866 -.5 .5 .866 -80.057 228.4641)" cx="386.3" cy="263.6" rx="10.1" ry="11.7"/><ellipse cx="523.4" cy="275" rx="9" ry="15.4"/><ellipse transform="matrix(.866 -.5 .5 .866 -36.474 306.7094)" cx="554.1" cy="221.4" rx="13.4" ry="7.8"/><ellipse cx="550.3" cy="236.9" rx="3.8" ry="3.1"/><circle cx="614.6" cy="236.9" r="5.9"/><circle cx="605.6" cy="230" r="10.2"/><ellipse cx="850" cy="229.9" rx="17.1" ry="10.8"/><ellipse cx="892.8" cy="264.3" rx="9.2" ry="8.1"/><ellipse transform="matrix(.6453 -.7639 .7639 .6453 111.5993 721.566)" cx="832.8" cy="240.6" rx="3.1" ry="4.3"/><ellipse transform="matrix(.7716 -.6361 .6361 .7716 26.105 569.4846)" cx="806.1" cy="248.4" rx="9" ry="7.8"/><ellipse transform="matrix(.2609 -.9654 .9654 .2609 306.426 975.2272)" cx="790.1" cy="287.5" rx="11.6" ry="10.1"/></g><path d="M848.4 307.3s14 20.2 29.6 6.2-3.1-24.9-3.1-24.9 3.8-7.8 0-14-8.6-3.1-8.6-3.1-13.4-34.2-34.3-21.8c-20.9 12.5-2.9 49.2 16.4 57.6zm-253.5-64s-14.7-12.4-22.4-5.3-7.8 17.8-7.8 17.8-11.8-7.1-18 0-6 16 4 28.2c0 0-8.2-15.6-.7-21.8 7.6-6.2 17.8 1.3 17.8 1.3s0-16 7.8-20 19.3-.2 19.3-.2z" fill="#668cb8"/><ellipse transform="matrix(.5508 -.8347 .8347 .5508 -170.9243 406.0522)" cx="291.8" cy="361.8" rx="4.9" ry="7.6" class="i"/><path d="M829.282 382.87l9.223-8.288 16.376 18.223-9.223 8.288z" class="g"/><path d="M840.043 376.214l30.57-27.47 13.502 15.025-30.57 27.47z" class="k"/><path d="M852.82 390.433l30.57-27.47 2.14 2.38-30.57 27.47zm-14.193-15.793l30.57-27.47 2.14 2.38-30.57 27.47z" class="h"/><path d="M851.34 371.83l14.132-12.7 7.82 8.702-14.132 12.7z" class="l"/><path d="M856.776 366.902l8.628-7.753 2.273 2.53-8.628 7.753zm5.592 6.068l8.628-7.753 2.273 2.53-8.628 7.753z" class="h"/><path d="M867.916 347.53l4.314-3.877 16.7 18.595-4.314 3.877zM897.6 329.9c2-.1 8.7 6.8 7.9 8.8s-4.8.4-11.1 6.7-8 13.8-8 13.8l-11.1-12.4s8-1.6 14.3-6.2c6-4.7 5.9-10.6 8-10.7z" class="g"/><path d="M875.112 346.77l1.2-1.07 11.162 12.42-1.2 1.07zm-39.636 34.942l1.636-1.47 12.03 13.388-1.636 1.47z" class="j"/><path d="M791.21 270.288l59.532-7.482 14.253 113.408-59.532 7.482z" fill="#93cb72"/><path d="M791.293 271.015l5.953-.748 14.066 111.92-5.953.748z" fill="#78c690"/><path d="M789.024 267.725l62.112-7.806.648 5.16-62.112 7.806zm14.6 113.6l62.112-7.806.648 5.16-62.112 7.806zm-20.454-134.37l19.852-14.357 7.266 10.048-19.852 14.357z" class="g"/><path d="M760.747 212.445l16.368-11.837L801.2 233.91l-16.368 11.837z" class="k"/><path d="M776.275 201.22l2.593-1.875 24.085 33.303-2.593 1.875zm-17.245 12.437l2.593-1.875 24.085 33.303-2.593 1.875z" class="h"/><path d="M770.57 218.74l9.48-6.856 11.134 15.396-9.48 6.856z" class="l"/><path d="M770.544 218.705l2.755-1.992 6.798 9.4-2.755 1.992zm6.8-4.84l2.755-1.992 6.798 9.4-2.755 1.992z" class="h"/><g class="g"><path d="M755.846 210.196l20.257-14.65 3.4 4.7-20.257 14.65z"/><path d="M745 183.5c.2-2 7.7-7.9 9.5-6.9s-.1 4.9 5.5 11.8 12.9 9.5 12.9 9.5l-13.5 9.8s-.7-8.1-4.7-14.8-9.9-7.4-9.7-9.4z"/></g><path d="M758.385 206.368l13.532-9.786.938 1.296-13.532 9.786zm30.247 42.612l14.585-10.548 1.3 1.783-14.585 10.548z" class="j"/><path d="M76.328 270.192l54.55-18.8 35.87 104.09-54.55 18.8z" fill="#787979"/><path d="M76.557 270.894l5.483-1.9 35.382 102.67-5.483 1.9z" fill="#685d4a"/><path d="M73.717 268.23l56.913-19.613 1.63 4.727-56.913 19.613zm36.308 104.2l56.913-19.613 1.63 4.727-56.913 19.613zm-6.15-127.286l22.217-7.656 3.9 11.345-22.217 7.656z" class="g"/><path d="M92.98 207.15l18.435-6.353 12.902 37.438-18.435 6.353z" class="k"/><path d="M110.328 201.184l2.93-1 12.902 37.438-2.93 1zm-19.298 6.593l2.93-1 12.902 37.438-2.93 1z" class="h"/><path d="M100.224 215.635l10.683-3.682 5.962 17.3-10.683 3.682z" class="l"/><path d="M100.282 215.633l3.12-1.075 3.616 10.494-3.12 1.075zm7.496-2.6l3.12-1.075 3.616 10.494-3.12 1.075z" class="h"/><g class="g"><path d="M89.04 203.667l22.784-7.852 1.824 5.294-22.784 7.852z"/><path d="M86.5 176.1c.7-1.8 9.3-5.1 10.7-3.7s-1.4 4.5 1.8 12.4 9.2 12.3 9.2 12.3L93 202.4s1.6-7.7-.2-15-7.1-9.5-6.3-11.3z"/></g><path d="M92.466 200.842l15.126-5.213.52 1.513-15.126 5.213zm15.96 47.824l16.355-5.636.684 1.985-16.355 5.636z" class="j"/><path d="M547.187 349.852l28.8-83.573 43.867 15.117-28.8 83.573z" fill="#787979"/><path d="M586.968 363.005l28.4-82.44 4.35 1.5-28.4 82.44z" fill="#685d4a"/><path d="M574.84 267.993l1.303-3.782 45.757 15.77-1.303 3.782zm-29 83.575l1.303-3.782 45.757 15.77-1.303 3.782zm30.896-87.31l3.128-9.076 17.868 6.158-3.128 9.076z" class="g"/><path d="M581.414 255.77l10.36-30.064 14.748 5.082-10.36 30.064z" class="k"/><path d="M579.858 255.18l10.36-30.064 2.363.815-10.36 30.064zm15.53 5.353l10.36-30.064 2.363.814-10.36 30.064z" class="h"/><path d="M587.383 248.408l4.79-13.897 8.603 2.965-4.79 13.897z" class="l"/><path d="M595.334 245.082l2.9-8.414 2.553.88-2.9 8.414zm-6.048-2.08l2.9-8.414 2.553.88-2.9 8.414z" class="h"/><path d="M589.953 225.96l1.466-4.254 18.246 6.288-1.466 4.254zM611.8 205.8c-.6-1.5-7.5-4.1-8.6-3-1.1 1.2 1.2 3.6-1.4 10s-7.4 9.9-7.4 9.9l12.2 4.2s-1.3-6.2.1-12c1.4-5.9 5.7-7.6 5.1-9.1z" class="g"/><path d="M594.32 222.736l.424-1.23 12.196 4.203-.424 1.23zm-13.812 38.41l.554-1.607 13.14 4.53-.554 1.607z" class="j"/><path d="M327.254 337.835L373.762 229.6l18.744 8.054-46.507 108.235z" fill="#4957a6"/><g fill="#474975"><path d="M344.943 340.074l44.573-103.733 3.032 1.303-44.573 103.733z"/><path d="M329.238 333.327l.632-1.47 15.71 6.75-.632 1.47z"/></g><g class="i"><circle cx="379.2" cy="239.2" r="5.1"/><circle cx="341.6" cy="328.8" r="5.1"/></g><path d="M375.795 238.246l.395-.92 6.707 2.882-.395.92zm-37.765 89.477l.395-.92 6.707 2.882-.395.92z"/><path d="M339.818 331.626l2.882-6.707.92.395-2.882 6.707z"/><path d="M298.15 237.555l38.34-12.412 28.46 87.91-38.34 12.412z" fill="#8cc24b"/><path d="M298.118 237.472l6.184-2.002 26.272 81.154-6.184 2.002zm32.062 77.672l32.157-10.4.493 1.522-32.157 10.4z" fill="#75a541"/><g class="i"><circle cx="320.2" cy="237.5" r="5.1"/><circle cx="340.3" cy="302.4" r="5.1"/></g><path d="M316.43 238.256l6.945-2.248.308.95-6.945 2.248zm20.297 64.796l6.945-2.248.308.95-6.945 2.248z"/><path d="M338.7 298.928l.95-.308 2.248 6.945-.95.308z"/><g fill="#39c0ee"><path d="M880.84 311.724l.883-5.226 17.748 3-.883 5.226z"/><path d="M895.9 313.6l-.6 20.5-10.5 62.3s.5 4.6-9.7 2.9-8.2-5.2-8.2-5.2l10.5-62.3 5.8-20.3 12.7 2.1z"/></g><path d="M880.63 312.454l.133-.79 17.847 3.015-.133.79z" fill="#1999d4"/><path d="M887.5 326.4l-6.5 73.2s-1.6.4-5.2-.2c-3.7-.6-5.6-1.4-5.6-1.4l17.3-71.6z" fill="#58c9f4"/><path d="M893.2 308.3l10.6-62.7-1.1-7.8-3.5 6.9-10.6 62.9z" class="g"/><path d="M900.7 249.8l3.1-4.2-1.1-7.8-3.5 6.9z" fill="#5f6569"/><path d="M100.9 351.4l8.8-2.2 7.7 3.7 9.3-4 6.4 5 5.2-1.5 6.7 5.2 15.1 1 11.1-3.4s-15.3 33.3-40.7 29.7c-25.5-3.5-23.7-6.5-29.6-33.5z" fill="#6c87ab"/><path d="M157.7 329l9.9-.7v3.1l14 2.5 12.9-5.6h17.7l5.1 2.8 10.9-4.2h4.7l6.2 3.5-7.7-1.8h-4.1l-10.4 5.3-6.8-4.3-13.1.8-10.8 5.4 7.3 7.3h13.9l-12.9 2.5-9.8-5.6-2.6 7.7-4.2 1 13.5 4.7 1.5 14.1 13 3.6v7.7l4.8 1 3.1 3.7-4.8-2.6-5.6-1.5v-6.8l-13.5-3.2-2-14.2-14.7-2.8-3.1 4.2-8.2 2.5 2.5 6.2-6.6 5.8 6.2 9.3-7.7-7.3-2.1 5.2v-4.1l2-4.2 6.2-5.1-4.6-6.3h-13.1l-7.7-5.2-7.8 2.6v5.7l-3.6 3.2-6.2 1 7.7-5.2.2-5.5 4.1-2.2-4.7-4.1-8.9 5.6-9.2-4.2-16.2 6.3-1 7.2-25.5 1.1-4.6 5.7 9.1 5.2-4.3 9.2.9-9.2-6.7-2.7-7.7 9.8-19.7.6 17.5-2.1 13-18.6 23.3-1.5 2-4.7-4.5-.6 2-5.7-20.1-3.5-4.3 4-12.9-4-16-.6 19.1-1.5 7.9 3 2.5-4 17.6 1.4 9.3-4.5-3.1-2.7L80 340l-2.7-2.7-10.8-.9 14.1-.6 4.6-2.5 13.1.5 6 16.5 5.2-2 7.8 4.6 10.4-6.3 4.7 5.8 6.1-1 7.4 5.6h14l6.2-3.8z" class="j"/><linearGradient id="A" gradientUnits="userSpaceOnUse" x1="533.156" y1="294.051" x2="578.945" y2="373.359"><stop offset="0" stop-color="#5698bd"/><stop offset="1" stop-color="#7acdd1"/></linearGradient><path d="M635.1 339.9s-23 20.3-26 40.9c0 0-13.3 5.9-39.3 5.9s-32.7-2.2-32.7-2.2-.5-33.6-14.2-33.6-7.4-14.8-19.9-11c-12.4 3.7-19.7 4.8-18.2-1.4s12.5-27.5 26-30.5c13.4-3.1 23.7-3.4 27.4 3.7s17.2 14.3 17.2 14.3l-6.5 19.1 25.4-1.2c15.8-27.4 30.2-21.3 34.8-20.5 13 2 26 16.5 26 16.5z" fill="url(#A)"/><path d="M612 325.1s3.1 4.7.4 8.1-10.4 11.8-14 20.7c-3.5 8.9-4.9 17.6-4.3 23.9 0 0 2.2-8.4 5.4-12.2 3.1-3.8 6.2-2.3 6.2-2.3s-3.2 10.4-2.4 15.6c0 0 3.5-15 7.1-21.2 3.4-5.9 11.5-15.5 11.5-15.5h9.7s-10.4 8.4-16.6 19.3-5.5 19.6-5.5 19.6 5.3-17.2 11.1-23.3c5.6-5.9 10.8-13.8 16.6-14.9s-17.4-3.3-17.4-3.3-4.5 3.9-8.5 11.6l-4.7 9.4s-1.7-2.8-3.3-2.2c-3.5 1.3-4.3 3.6-4.3 3.6s2.9-9.1 5.8-13.4c2.6-3.8 9-10.7 11.2-14.9 2.1-3.9 1-5.9 1-5.9l-5-2.7zm-90 25.3s7.6 2.3 11.6 14.6 4 19.6 4 19.6.7-17.2-2.4-23.4-2.8-7.2-7.4-11.8 18.6-5 23.8 11 5.2 24.3 5.2 24.3.7-10 0-17.2c-1-10.4-8.5-20.8-8.5-20.8l-26.3 3.7z" fill="#c2e5ef"/><path d="M496.7 329.2s7.3.4 14.7-2.2 22.4.4 28.1 2.5 12.9 5.5 12.9 5.5l-.8 2.4c-3 1.7-9.7 3.8-11.8 7.7 0 0-5.8-.6-7.1-1.9 0 0 1.5-3.5 15.5-7.6 0 0-13.9-6.9-24.3-6.4-11.9.6-24-.4-35 9.1l7.8-9.1z" class="m"/><path d="M605.8 322.1s6.8 1.6 10.4-1.5.4-6.1-1-5.2c-1.5.9-4.4-1 2.7-6.8s8.3-5.8 16.6-4.1c8.3 1.6 3.3-3.7 6.2-5.2 3-1.5 11.9-.9 15 2.7s3.3 5 2.7 10.2 13.5 2.7 16.4 8.9 0 10.4 0 10.4 5.8 0 5.2 6.2-7.9 3.7-7.9 3.7 3.3 7.7-.4 10.8-8.9.6-8.9.6-6.2 9.8-13.5 6.7-3.1-12.4-3.1-12.4-3.7-6.4-15.6-3.7-14.1-3.3-13-8.3c1-5-9.3-12.9-19.1-11.9s-12.9 11.4-12.9 11.4 7 1.8 1.2 7.4-6.7 3.7-12.4 6.2-7.9 9.8-18.2 11.9c-10.4 2.1-7.9-6.2-7.9-6.2s-6.2-4-13.9-2.5-16.3 3.1-20.3 0-5.5-4-5-8.1c0 0-9.5-1.8-13 3-3.6 4.7-4.7 6.8-7.3 7.9-2.5 1-7.3-1-7.3-1s-6.2.4-9.3-3.1c-3.1-3.6 1-10.4 1-10.4s-6.1-1.6-3.6-8.3 11.4-6.7 12.9-4.1c1.5 2.5 5.5 1 8.7-5.2 3.3-6.2.1-13.5 9.9-18.7s11.9 4.1 11.9 4.1 4.7-8.9 15.1-7.9 15.6 4.7 16.1 8.9-1 6.8-1 6.8c.5 1 1.8 3.1 4.3 4.5 4.6 2.6 9.5.6 10.1.3-1.1 3.1-2.3 6.1-3.3 9.2-6.1-.3-10.7-2.4-12.1-4.9-.9-1.7-1.2-3.1-1.2-3.1-.4-2 .2-2.7-.4-4-.5-1-1.3-1.6-3.1-2.6-5.6-3.1-5.2-1-7.3-1s-1.9-5.8-5.6-5.8-4.4 4.4-7.4 6.4c-3 1.9-6.7 1-6.7 1l-.6-3.7s-10.2 3.1-13.3 7.3c-3.1 4.1-5.4 11.1 3.4 10.8 0 0-7 2.7-12.8 11 0 0 8.4 1.2 18.7-7.7 10.2-8.9 16 3 20.1 6.1s9.9 8.3 25.9 5.8 23.9-4.3 27-14.1 5.1-15.7 9.2-16.1c2.4-.2 4.2.6 4.3 1.1.1.4.3-3.7 5.6-3.7 5.5-.2 7.8 10 7.8 10z" fill="#c0ebf2"/><path d="M495.6 320.2s.2-5.3 6.6-9.4 9.9-3.7 9.9-1.6.8 6.6 2.7 3.9 2.9-9.3 8.6-9.3c5.6 0 5.8 5.2 7.6 5.6s4.9-3.8 8.6-1.3 1.9 8.5 3.3 9.9 8.9 7.8 13.1 6.6l-1.7 4.6s-8-.1-11.4-4c-3.7-4.2-.7-7-4.4-9.5s-3.7-2.6-6-2.2-1.6 1-2.6.5c-1-.6-1.6-2.9-2.3-4.3s-1.9-1.6-3.4-1.6c-1.6.1-2 .8-4.8 4.8s-8.7 2.3-8.7 2.3l-.8-3.3c-.3 0-8.7 1.3-14.3 8.3zm136.3-6.8s-2.4 3.7-2.7 7.4c-.3 3.8-.2 7.3-.2 7.3s-5.5-3-10.8-3.4-10.5-.2-10.5-.2l-1.8-2.3s7.3 1.4 10.4-1.6.8-4.9.8-4.9-2.1-1.2-2.5-.7 8.7-9 12-10.3 8.4 1.2 8.9 3 .2 2.2.2 2.2l-3.8 3.5z" class="m"/><path d="M628.9 328.6s-1.2-9 2.8-14.9c1.4-2.1 3.4-3.8 6.4-4.7 11.3-3.3 16.2 2.3 16.6 4.4.4 2.2-.8 3.1.6 4.3s3.3-.8 4.7.6-1.1 6.1-.3 7.3 2.4-2.6 3.1-1.8c.6.8 1.3 1.4-.4 3.5s-2.6 1.6-2.3 3.9 2.5 1.4 2.3 4.9c-.2 3.4-.8 4.1-3.5 3.9s-12.5 1-20.6-3.5c-8.4-4.6-9.4-7.9-9.4-7.9z" fill="#5698bd"/><path d="M626.6 328.9s6.8-3.5 17.4 1.4 10.6 9.6 10.6 9.6l-2.6-.1s-1.1-3.7-8.8-7c-9.5-4.1-13.1-1.5-13.1-1.5l-3.5-2.4z" class="m"/><g class="i"><ellipse transform="matrix(.6296 -.7769 .7769 .6296 -80.5938 492.2819)" cx="476" cy="330.7" rx="6.3" ry="5.3"/><ellipse cx="478.4" cy="347.3" rx="7.6" ry="5.2"/><path d="M518.8 333.2c0 1.6-2.1 2.8-5.8 2.8s-6.4-1.4-6.4-2.9c0-1.6 2.6-2.7 6.4-2.7 3.7 0 5.8 1.2 5.8 2.8zm-15.2-31s3.7-1.1 3.7 3-3 1.8-7.2 5.3c-4.2 3.6-7.6 7.7-7.6 7.7s1.5-8.7 3.3-10.6c1.7-2 5.1-5 7.8-5.4zm54 43.6s-6.4 2.2-6.8 7.3 2.1 5 3.4 4-2.2-1-.7-4.6c1.4-3.6 4.1-6.7 4.1-6.7zM521.3 302s6.7-3.9 12.7-1.4c6.1 2.5 8 7.3 8 7.3s-5.8-4.4-8.9-5.8c-3.1-1.5-11.8-.1-11.8-.1zm88.3 22.4s9-.9 17.2 2.7c8.1 3.6 8.2 8.3 11.3 9.3 0 0-5.2.5-10.8-5.8s-17.7-6.2-17.7-6.2zm-17.2-8.7s.9-3.9 5-4c6.7-.2 8.1 10.6 8.3 10.5l-.1-.2c-3.5-7.9-7.8-7.6-7.8-7.6-2.1.1-3.9 1.9-4.2 3.1-.2.8-.3 1.6-.3 1.6s-2.1-2.9-4.3-2.8c-4.2.1-6.7 4.5-6.7 4.5s2.4-6.3 5.8-6.7c3.2-.3 4.3 1.6 4.3 1.6zm49-11.9s1.2-1.7 6.8 0 5.6 4 5.6 4-.6-4.7-5.2-5.8c-4.5-1.1-7.2 1.8-7.2 1.8zm-15 1s-8 3.1-10.8 5.9c-2.9 2.8-3.2 5.7-.5 4.8s2.9-2.4 4.7-5c1.7-2.4 6.6-5.7 6.6-5.7z"/></g><defs ><path id="C" d="M230.2 45.5c-1.6-4.1-5.1-6.5-9-6.5-5.9 0-9.9 5.1-9.9 10.9 0 6 4.1 11.1 10 11.1 3.8 0 7-2.1 8.9-6.3h9.9c-2.3 8.9-10 14.6-18.8 14.6-5.2 0-10-1.8-13.9-5.6-4-3.9-5.7-8.6-5.7-14.3 0-9.8 8.5-18.7 19.1-18.7 5.1 0 9.2 1.4 13 4.6 3.5 3 5.6 6.4 6.3 10.2h-9.9z"/><path id="D" d="M70.6 441.8v-16.3h5.5c2 0 3.6.4 4.8 1 2.3 1.3 3.8 3.8 3.8 7.2 0 5.4-3.2 8.1-8.3 8.1h-5.8zm6-3.7c2.4 0 3.9-1.5 3.9-4.5 0-2.9-1.5-4.5-3.9-4.5h-1.9v9h1.9z"/><path id="E" d="M94.9 441.8l-3.8-5.3v5.3h-4v-16.3h5.3c1.7 0 3 .2 3.9.6 1.8.8 3 2.7 3 5 0 2.6-1.5 4.7-4 5.1l4.4 5.5h-4.8zm-2.3-8.1c1.7 0 2.7-.8 2.7-2.3 0-1.4-1.1-2.2-2.6-2.2h-1.6v4.5h1.5z"/><path id="F" d="M120.1 441.8v-16.3h5.5c1.7 0 3 .2 3.9.6 1.8.8 2.9 2.7 2.9 4.9 0 3-1.7 5.7-6.3 5.7h-1.9v5.1h-4.1zm5.8-8.8c1.7 0 2.5-.6 2.5-2 0-1.3-.8-1.9-2.7-1.9h-1.6v3.9h1.8z"/><path id="G" d="M165.4 441.8l-6.2-9.9.1 9.9h-4v-16.3h3.6l6.3 10.3-.2-10.3h4v16.3h-3.6z"/><path id="H" d="M72.9 468.7l2.1-4.6-4.7-11.6h1.6l3.8 9.6 4.1-9.6h1.6l-7 16.3h-1.5z"/><path id="I" d="M105.8 464.5v-1.9c-.7 1.4-2.1 2.2-3.8 2.2-2.6 0-5.2-1.4-5.2-5.4v-6.9h1.5v6.7c0 2.7 1.2 4.2 3.7 4.2 2.1 0 3.8-1.5 3.8-4.3v-6.6h1.5v12h-1.5z"/><path id="J" d="M110.3 464.5v-12h1.5v1.7c.5-1.3 1.5-1.9 3.4-2v1.6c-2.2.2-3.4 1.7-3.4 3.6v7.1h-1.5z"/><path id="K" d="M106.1 481.3c-1.2 2.4-3.2 3.8-6 3.8-3.6 0-6.5-2.7-6.5-6.4 0-3.3 2.9-6.2 6.5-6.2 2.6 0 5 1.5 6 3.9h-1.7c-.9-1.7-2.5-2.6-4.2-2.6-2.8 0-5 2.2-5 4.9a4.95 4.95 0 0 0 5 5c1.8 0 3.4-.8 4.2-2.4h1.7z"/><path id="L" d="M108.4 471.4v-2.8h1.5v2.8h-1.5zm0 13.5v-12h1.5v12h-1.5z"/><path id="M" d="M123.3 482.7c-.9 1.6-2.8 2.5-4.7 2.5-3.4 0-6.3-2.7-6.3-6.2s2.8-6.4 6.3-6.4c1.9 0 3.7.9 4.6 2.5v-2.2h1.5v10.8c0 4.4-3.2 6-5.9 6-3 0-5.3-1.6-6.2-4.4h1.6c.8 2 2.4 3 4.5 3 2.7 0 4.4-1.8 4.4-4.4v-1.2zm.1-3.8c0-2.6-2.1-5-4.8-5-2.6 0-4.7 2.3-4.7 5 0 2.6 2.1 4.9 4.8 4.9 2.6 0 4.7-2.3 4.7-4.9z"/><path id="N" d="M138.4 484.9v-2.1c-1 1.5-2.7 2.4-4.7 2.4-3.6 0-6.5-2.7-6.5-6.3s2.9-6.3 6.5-6.3c2 0 3.7.9 4.7 2.4v-2.1h1.5v12h-1.5zm.1-6c0-2.7-2.1-5-4.8-5-2.8 0-4.9 2.1-4.9 5 0 2.8 2.1 4.9 4.9 4.9 2.7 0 4.8-2.2 4.8-4.9z"/><path id="O" d="M164.1 484.9v-10.6h-2.5v-1.4h2.5v-4.2h1.5v4.2h2.9v1.4h-2.9v10.6h-1.5z"/><path id="P" d="M178.6 479.4c.1 2.4 2.3 4.4 4.7 4.4 1.9 0 3.7-1.1 4.3-2.8h1.6c-.9 2.6-3.3 4.2-5.9 4.2-3.4 0-6.3-2.8-6.3-6.3s2.9-6.3 6.2-6.3c3.6 0 6.3 3.1 6.3 6.4v.5h-10.9zm9.4-1.4c-.4-2.4-2.4-4.1-4.7-4.1-2.2 0-4.2 1.6-4.7 4.1h9.4z"/><path id="Q" d="M102.3 505.3l-5.1-12h1.7l4.2 10.1 4.3-10.1h1.7l-5.1 12h-1.7z"/><path id="R" d="M547 452.9c0-3.5 2.9-6.4 6.3-6.4 3.5 0 6.3 2.9 6.3 6.3 0 3.5-2.9 6.3-6.3 6.3s-6.3-2.9-6.3-6.2zm11.1-.2c0-2.6-2.1-4.9-4.8-4.9-2.6 0-4.7 2.3-4.7 5 0 2.6 2.1 4.9 4.8 4.9 2.6 0 4.7-2.2 4.7-5z"/><path id="S" d="M378.3 438.2v-16.3h9v3.7h-5.1v2.5h4.9v3.7h-4.9v2.8h5.1v3.7h-9z"/><path id="T" d="M391.9 447.1c-.2-1.2-.7-1.6-1.5-1.6s-1.4.6-1.4 1.3c0 1 .9 1.4 2.7 2.2 3.6 1.5 4.5 2.8 4.5 5 0 3.1-2.2 5-5.7 5s-5.9-1.8-5.9-5.3v-.4h4.1c0 1.3.7 2.2 1.7 2.2a1.58 1.58 0 0 0 1.6-1.6c0-1.3-1.8-1.9-3.3-2.5-2.7-1.1-3.9-2.5-3.9-4.6 0-2.8 2.7-4.8 5.7-4.8 1.1 0 2 .2 2.9.7 1.7.9 2.6 2.2 2.6 4.4h-4.1z"/><path id="U" d="M990 441.6c.8-.1 1.2-.5 1.2-1.1s-.4-1-.9-1c-.7 0-1 .6-1.6 1.9-1.1 2.6-2.1 3.3-3.6 3.3-2.3 0-3.6-1.6-3.6-4.1 0-2.6 1.3-4.3 3.9-4.3h.3v3c-1 0-1.6.5-1.6 1.2a1.11 1.11 0 0 0 1.1 1.1c.9 0 1.4-1.3 1.8-2.4.8-1.9 1.8-2.8 3.3-2.8 2 0 3.5 2 3.5 4.1a4.65 4.65 0 0 1-.5 2.1c-.7 1.3-1.6 1.9-3.2 1.9v-2.9z"/><path id="V" d="M987.2 487.7c3.7 0 6.4 2.6 6.4 6.2 0 3.5-2.7 6.3-6.1 6.3-3.5 0-6.2-2.7-6.2-6.1.1-3.3 2.4-6.4 5.9-6.4zm.3 9.5c1.9 0 3.5-1.3 3.5-3.2s-1.6-3.2-3.5-3.2c-2 0-3.5 1.3-3.5 3.3 0 1.8 1.6 3.1 3.5 3.1z"/></defs></svg>