<svg xmlns="http://www.w3.org/2000/svg" xmlns:xlink="http://www.w3.org/1999/xlink" viewBox="0 0 1000.89 563"><path d="M0 0h1000.9v563H0z" fill="#658cb7"/><path d="M77.952 319.37l115.863-14.842 28.278 220.746-115.863 14.842z" fill="#787979"/><path d="M77.93 321.084l11.486-1.47 27.893 217.74-11.486 1.47z" fill="#585858"/><g fill="#383031"><path d="M73.63 314.84l120.862-15.483 1.28 9.988L74.9 324.828zm28.747 220.845l120.862-15.483 1.28 9.988-120.862 15.483z"/><path d="M142.718 282.226l47.194-6.046 3.07 23.974-47.194 6.046z"/></g><path d="M146.86 281.7l-10.16-79.28 38.96-5 10.16 79.3-38.96 4.97z" fill="#787979"/><path d="M188.45 276.38l-43.24 5.53-.58-4.34 43.2-5.82.62 4.63zm-54.638-71.58l43.2-5.818.623 4.628-43.2 5.818z" fill="#585858"/><path d="M183.74 277l-10.18-79.4 6.24-.8 10.14 79.4-6.2.8zm-41 5.23l-10.2-79.4 6.24-.8 10.18 79.4-6.2.8z" fill="#cfe9f9"/><path d="M147.434 221.848l22.724-2.91 4.703 36.7-22.724 2.91z" fill="#585858"/><path d="M150.61 289.777l34.64-4.55.556 4.237-34.64 4.55z" fill="#22160f"/><path d="M147.37 222.026l6.745-.864 2.848 22.228-6.745.864zm15.973-2.033l6.745-.864 2.848 22.228-6.745.864z" fill="#cfe9f9"/><path d="M130.365 193.937l48.196-6.174L180 199l-48.196 6.174zm14.015-30.777a55 55 0 0 1-6.11 26.53l32.17-4.13s-9.8-8-12.95-25.07 3.76-21.85 1.66-25.37c-2.15-3.28-22.5-1.44-22.73 3-2.2 3.4 7.52 9.78 7.96 25.04z" fill="#383031"/><path d="M138.25 189.697l32.217-4.127.416 3.243-32.217 4.127zM166.2 242.2l-9.23 1.17-.3-2.44 9.23-1.2.3 2.46z" fill="#22160f"/><path d="M521.85 358.43l-1.2 2.92 1.8.2-.56-3.1-.03-.02zm8.45.14l-.85-.1-.23 2.1.94.1c.87.1 1.34-.17 1.43-.92s-.32-1.08-1.3-1.2zm-194.7-61.2l-3.73-.4-1 9.2 4.1.44c3.84.4 5.9-.74 6.26-4 .34-3.16-1.38-4.77-5.63-5.23zM367.8 341l-.83-.1-.26 2.46.8.1c.87.1 1.45-.27 1.54-1.12s-.43-1.24-1.25-1.34zm45.9 5l-1-.1-.53 4.86 1 .1c1.26.13 2.13-.6 2.3-2.2s-.52-2.55-1.78-2.66zm-28-3l-.83-.1-.27 2.45.8.1c.87.1 1.44-.26 1.53-1.1s-.42-1.34-1.24-1.34zm-35.26-4a2.63 2.63 0 1 0 2 2.86 2.47 2.47 0 0 0-2-2.86zm94.62-26.47l-5.26 12.8 7.83.84-2.42-13.57-.15-.07zm-135.83 22.15l-.83-.1-.26 2.46.8.1c.86.1 1.44-.27 1.53-1.12s-.43-1.25-1.25-1.34zm230 24.7a2.63 2.63 0 1 0 2 2.86 2.47 2.47 0 0 0-2-2.86zm-239.96-62.54l-5.26 12.8 7.83.84-2.42-13.57-.15-.07zm311.28 16.65s.67-14.9-3.1-28a35.55 35.55 0 0 0-14-19.33s2.52 9 2.52 16.52a56.66 56.66 0 0 1-2.52 15.26s-2.67-4-10.22-7.12-10.67-2.22-10.67-2.22 1.33-21.33-13.33-37.55-42.9-23.34-58.78-21.78c0 0-18.1-24.37-22.7-27.33s-7.4-3.56-12.45-6.67-11-6.82-14.52-8.3-10.22-4.6-16.44-4.6-14.67-5.93-28.6-1.2-10.52 9.34-6.82 7.86 11.1-6.37 25-4.74 16.9 3.1 22.67 6.22 16.74 10.52 19.25 13 12.9 17.18 13.5 21.77l1 8.3s-19.7-26.37-37.33-32.15-27-6.22-35.26-4.15a38.05 38.05 0 0 0-14.45 7.71s-20.74-12-45.48-11-48.74 17-55.37 24.37-15.55 24.9-10.37 33.2l-11.7 3.7a48.88 48.88 0 0 1-6.22-12.67 58.41 58.41 0 0 1-2.45-14.89s-11.1 9.78-12.66 18.45a55.55 55.55 0 0 0 0 17.33s-18.23 10.22-25.78 25.78-6.9 36.67-3.78 48.22 11 16.56 16.44 20.78 6.67 5.55 12.45 6.67 8.44 5.44 14.33 7.33 7.45 1.1 4.34-1.56-12.12-6.66-14-10.1-1.78-5.44-5-8.55-3.9-4.23-4.67-8.1c0 0 11.67 11.1 18.22 14.66s21.9 10.34 35.45 11 21.66 2.56 36.88-.44c0 0-21.1 26.78-33.55 35.9s-43.1 24.9-63.1 30.22-26.15 3.66-26.15 3.66l1.13 8.8s9.24.43 32.57-6.46a470.34 470.34 0 0 0 46.67-17s-9.67 6.22-15.9 8.9-18.78 5.78-18.78 5.78 11.78.44 19.9-1.9c6.36-1.83 23.75-8 35.64-14.26l-21.42 13c-5.77 3.12-3.55 1.23-10.1 4.34s-4.66 3.55-14.33 6.22-14.33 2.67-23.67 8.9c0 0 10.45.9 18.23-1.45s7.44-3.55 15.22-4.33 6.1.1 10-.33 6.33-2.78 9.78-2.78 15.44 1.56 33.22-5.44a98.69 98.69 0 0 0 29.44-18.23 44.21 44.21 0 0 0 5.89 4.23c2.78 1.55 8.56 2.77 8.56 2.77a8 8 0 0 0-3.56 3.89c-1.44 3-10.78 12.67-18.55 18.56 0 0 9-3.56 15.55-4.67s6.56-1 12-2.22 17-9 19.78-12.9c0 0 23.4-.07 39.55-3.2s42.08-11.6 42.08-11.6 5.37 5.45 16.15 7.78 24.55 4.1 35-2 12.44-11.56 12.44-11.56l8.56-.7s-12.15 11.85-19.26 16-16.6 6.82-21.2 7.26-3.4 4.15-.44 4.15 2.52 1.48 6.66 1.48 9.5-2.52 14.08-3.56 16.15-.14 27-6.8 28.52-22.37 35.4-37.7 7.55-24 7.55-33.34c0 0 7.56-3.1 10.9-17.1s-2.3-27.97-2.3-27.97zM256.9 319.2l-8.32-40 9.8 1 4.6 27.92h.1l10.5-26.3 9.84 1.16-16.7 37.3zm33.63-2l-2.57 5.38-10.26-1.1 19.17-37 7.53.8 10.7 40.25-10.36-1.1-1.22-5.8zm14.22 17l-2.57-.28-.17 1.5 2.5.27-.22 2-2.48-.27-.36 3.36-2.1-.22.95-8.82 4.66.5zm7.83 1.92a2.68 2.68 0 0 1-2.42 2.55l2 3.25-2.5-.27-1.67-3.06-.3 2.85-2.1-.23 1-8.82 2.8.3a5.28 5.28 0 0 1 2 .54 3 3 0 0 1 1.19 2.88zm9.93 2.4a4.54 4.54 0 1 1-4-5 4.53 4.53 0 0 1 4 4.99zm10.08 5.6l-2-.22.8-6.6-2.54 6.43-1.45-.15-1.12-6.9-.66 6.7-2-.22.95-8.83 2.8.3 1.07 6 2.3-5.63 2.82.3zm1.8-28.83l-4.45-.48-1.3 12.12-9.2-.95 4.16-38.65 12.63 1.36c4 .38 6.92 1.27 8.8 2.43 3.84 2.36 5.88 7.08 5.32 12.3-.73 7.1-5.25 13-15.96 11.86zm8 29.9l-2.18-.24.35-3.2-1.95-5.9 2.37.26.9 3.68 1.66-3.4 2.34.26-3.17 5.35zm12.3-3.2a4.54 4.54 0 1 1-4-4.99 4.52 4.52 0 0 1 3.96 5zm7.93 1.92a4.08 4.08 0 0 1-.65 2 3.14 3.14 0 0 1-3 1.2 3.57 3.57 0 0 1-1.78-.64c-.93-.72-1.33-1.6-1.15-3.3l.6-5.4 2.18.24-.58 5.37c-.12 1.1.16 1.67.93 1.76s1.13-.27 1.26-1.5l.58-5.4 2.2.24zm8.57-1.46a2.68 2.68 0 0 1-2.42 2.55l2 3.25-2.5-.27-1.67-3.06-.3 2.85-2.1-.23.95-8.82 2.8.3a5.16 5.16 0 0 1 2 .54 2.94 2.94 0 0 1 1.19 2.88zm3.4-26.05l-11.27-1.2-.7 6.63 11.62 1.26-.93 8.67-20.77-2.24 4.16-38.65 20.74 2.22-.93 8.67-11.63-1.25-.64 6 11.27 1.2zm6.66 26.06l-2.57-.27-.16 1.5 2.48.27-.2 2-2.5-.27-.36 3.36-2.1-.23.95-8.82 4.67.5zm7.84 1.93a2.67 2.67 0 0 1-2.43 2.54l2 3.26-2.5-.27-1.73-3.07-.3 2.85-2.1-.22.95-8.83 2.8.3a5.1 5.1 0 0 1 2 .54 2.94 2.94 0 0 1 1.28 2.88zm3.1 6.18l-2.2-.24 1-8.82 2.18.24zm132.23-41.66l9.55 1-3.22 30 11.06 1.2-.93 8.67-20.62-2.22zm-28.32-3.05l20.77 2.24-.93 8.67-11.62-1.25-.65 6 11.27 1.22-.94 8.67-11.26-1.22-.72 6.64 11.62 1.25-.93 8.67-20.77-2.24zM469.44 303l20.42 2.2-.94 8.67-11.26-1.2-.7 6.58 10.86 1.17-.93 8.67-10.9-1.2-1.57 14.73-9.15-1zm-69.84 41.45l-2.65-.3-.15 1.37 2.58.28-.22 2-2.57-.28-.15 1.47 2.66.28-.2 2-4.75-.5.95-8.82 4.75.5zm-3.1-22.3l.1-.84 9.5 1c-.3 3.2 1 5.45 3.37 5.7a3.64 3.64 0 0 0 4-3.32c.33-3.08-3.66-4.88-6.9-6.66-5.84-3.22-8.26-6.86-7.72-11.87.7-6.6 7.4-10.73 14.27-10a14 14 0 0 1 6.44 2.34c3.76 2.57 5.35 5.86 4.85 11l-9.45-1c-.1-2.8-1.12-3.92-3-4.12a3.17 3.17 0 0 0-3.61 2.67c-.25 2.3 1.66 3.57 5.55 5.83 7.85 4.55 9.6 7.85 9 12.92-.8 7.47-6.23 11.32-14.3 10.45s-12.98-5.8-12.1-14.1zm11.4 30.12l-1.9-.2-2.7-5.75-.53 5.4-2.1-.23 1-8.82 1.88.2 2.72 5.94.5-5.6 2.1.23zm9.77-3.4c-.3 2.9-2.14 4.23-4.8 3.95l-3.05-.33.95-8.83 2.9.32a5.09 5.09 0 0 1 2.45.8 4.31 4.31 0 0 1 1.54 4.09zm4.93-.3c1.8 1 2.2 1.8 2.07 2.95-.2 1.7-1.43 2.6-3.27 2.4s-3-1.34-2.77-3.23v-.2l2.17.23c-.07.73.23 1.24.77 1.3a.83.83 0 0 0 .91-.76c.08-.7-.84-1.1-1.58-1.52-1.33-.73-1.88-1.57-1.76-2.7a2.84 2.84 0 0 1 3.26-2.28 3.21 3.21 0 0 1 1.47.54 2.42 2.42 0 0 1 1.11 2.52l-2.16-.24c0-.64-.25-.9-.68-.94a.73.73 0 0 0-.82.61c-.05.53.38.82 1.27 1.33zm12.48 6.65l-.28-1.32-3-.32-.6 1.22-2.35-.25 4.4-8.45 1.72.18 2.44 9.2zm1.25-22.33l-2.57 5.38-10.26-1.1 19.17-37 7.53.8 10.7 40.25-10.36-1.1-1.22-5.8zm7.37 16.34l-1.67-.2-.74 6.85-2.18-.24.74-6.84-1.7-.18.22-2 5.54.6zm11.3 2.3a2.68 2.68 0 0 1-2.42 2.55l2 3.25-2.5-.27-1.64-3.04-.3 2.85-2.1-.23 1-8.82 2.8.3a5.16 5.16 0 0 1 2 .54 2.94 2.94 0 0 1 1.15 2.87zm7.77 3.23a4.15 4.15 0 0 1-.66 2 3.12 3.12 0 0 1-3 1.19 3.44 3.44 0 0 1-1.77-.63c-.94-.72-1.34-1.6-1.15-3.3l.58-5.4 2.18.23-.58 5.38c-.12 1.1.16 1.67.93 1.75s1.13-.26 1.26-1.5l.6-5.4 2.18.23zm7-2.7l-1.67-.2-.74 6.85-2.18-.24.74-6.84-1.7-.18.2-2 5.55.6zm7.56 7.74l-2.2-.24.4-3.53-2.8-.3-.38 3.53-2.18-.24.95-8.82 2.18.23-.35 3.32 2.8.3.36-3.3 2.18.23zm6.7.72l-4.68-.5 1-8.82 2.18.23-.74 6.85 2.53.27zm6.6-6.2l-2.66-.3-.15 1.38 2.58.27-.22 2-2.57-.28-.16 1.52 2.65.3-.2 2-4.75-.5 1-8.82 4.74.5zm4.9 2.16c1.8 1 2.2 1.8 2.06 2.95-.18 1.7-1.42 2.58-3.27 2.38s-3-1.33-2.77-3.23v-.2l2.17.23c-.06.73.23 1.25.77 1.3a.85.85 0 0 0 .92-.76c.07-.7-.84-1.12-1.58-1.52-1.33-.74-1.9-1.57-1.76-2.7a2.82 2.82 0 0 1 3.26-2.28 3.17 3.17 0 0 1 1.47.53 2.45 2.45 0 0 1 1.11 2.52l-2.16-.23c0-.64-.26-.9-.68-.95a.73.73 0 0 0-.83.62c-.01.52.43.8 1.32 1.33zm7.2.77c1.8 1 2.18 1.8 2.06 2.95-.18 1.7-1.42 2.6-3.27 2.4s-3-1.34-2.77-3.23v-.2l2.17.23c-.07.73.23 1.24.77 1.3a.83.83 0 0 0 .91-.76c.08-.7-.84-1.1-1.57-1.52-1.34-.73-1.9-1.56-1.77-2.7a2.83 2.83 0 0 1 3.26-2.27 3.09 3.09 0 0 1 1.47.53 2.44 2.44 0 0 1 1.11 2.52l-2.16-.24c0-.64-.25-.9-.68-.94a.73.73 0 0 0-.82.61c.02.53.43.82 1.32 1.33zm9.23 6.3l-1.9-9.13 2.24.24 1 6.37 2.4-6 2.26.25-3.82 8.5zm11.12 1.2l-.27-1.32-3-.32-.6 1.23-2.34-.26 4.38-8.45 1.72.2 2.48 9.2zm6.92-2.05l-1-.1-.3 2.77-2.1-.23 1-8.82 2.9.3a4.67 4.67 0 0 1 2 .55 2.86 2.86 0 0 1 1.22 2.81c-.2 1.63-1.26 2.98-3.7 2.72zm13.46-.27a4.54 4.54 0 1 1-4-5 4.52 4.52 0 0 1 4 5zm8.07-.46a2.66 2.66 0 0 1-2.42 2.55l2 3.26-2.5-.27-1.67-3.07-.3 2.85-2.1-.22 1-8.83 2.8.3a5.08 5.08 0 0 1 2 .55 2.93 2.93 0 0 1 1.22 2.88zm9.17-24.22l-1.52 14-9.55-1 1.52-14.05-8.52-25.8L553 312l3.88 16.1 7.28-14.9 10.28 1.1zm22.88 16.68l-8.64-.94 1-8.88 8.64.94zm1.37-12.75l-8.64-.93 2.8-25.9 8.64.93zm-151.12 7.24l-1.2 2.92 1.78.2-.55-3.1-.03-.02zM548.2 360.5l-.83-.1-.26 2.45.8.1c.87.1 1.45-.26 1.54-1.1s-.43-1.25-1.25-1.34zm-229.93-25a2.63 2.63 0 1 0 2.05 2.86 2.48 2.48 0 0 0-2.05-2.86zm133.36 14.57l-.83-.1-.26 2.46.8.1c.87.1 1.45-.27 1.54-1.12s-.44-1.25-1.25-1.34zm24.1 80.03c3.72 1.4 7.22 1.17 9.16 5.84s-3.88 8.55-6.6 8.55-9.6.5-13.83-6.05 1.78-12.28 5.67-10.5a34.07 34.07 0 0 0 5.61 2.16zm96.42-192c3.74 1.3 7.74 3 7.63 5.82s-1.44 3.63-5.18 3.5-9.63-3.5-11.82-6.74.1-4.14 2.34-4.4 7.03 1.8 7.03 1.8zM266.8 217.37c1.07-1.83 2.52-3.6 3.52-3s-.37 3-1 4.15-2.15 3.4-2.9 3-.48-2.7.37-4.15zm16.7-16.9s-7.26 4.15-5.7 6 5.07-3.1 11.4-6.48 15.3-8.7 15.3-8.7-17.37 6.7-21 9.18zm6.77 177.45c3 .74 5.1 1.1 5.28 2.1s-1.44 3.16-5.28 3.33a7.36 7.36 0 0 1-6.55-2.72c-1-1.17-1.78-3.06 1.33-3.28s2.8-.06 5.22.56z" fill="#fff"/><g fill="#bad1e8"><use xlink:href="#B"/><path d="M996.82 397.2v3h-7.3a5.3 5.3 0 0 1-2.8-.6 4.26 4.26 0 0 1-2-3.9 4.87 4.87 0 0 1 .6-2.5c.8-1.4 1.9-2.1 4.2-2.1h7.3v3h-7.2c-1.5 0-2.2.5-2.2 1.5s.5 1.5 2.2 1.5h7.2zm-11.8 6.5h9.2v-2.3h2.7v7.7h-2.7v-2.3h-9.2zm0 13.4h4.7v-3.9h-4.7v-3h11.8v3h-4.38v3.9h4.5v3h-11.8v-3zm0 5.3h11.8v3h-9.2v3.5h-2.7v-6.5zm0 7.7h11.8v6.6h-2.7V433h-1.8v3.6h-2.7V433h-2v3.7h-2.7v-6.6z"/><use xlink:href="#C"/><use xlink:href="#C" y="9.5"/><path d="M985.02 460.4l11.8-4v3.1l-8.3 2.4 8.3 2.4v3.1l-11.8-4zm0 14.9l1.7-.6v-4.1l-1.7-.6v-3.2l11.8 4.8v2.4l-11.8 4.7zm8.1-2.6l-4-1.3v2.5zm-8.1 7h11.8v4a8.76 8.76 0 0 1-.4 2.8 3.86 3.86 0 0 1-3.6 2.1c-2.2 0-4.1-1.2-4.1-4.6v-1.4h-3.7zm6.4 4.2c0 1.2.4 1.8 1.4 1.8s1.4-.6 1.4-1.9v-1.2h-2.78z"/><use xlink:href="#D"/><use xlink:href="#B" y="123"/><path d="M985.02 514.3h2.7v2.8h-2.7zm7.3 13a3.09 3.09 0 0 0 2.1-2.9 3.51 3.51 0 0 0-7 0 3.06 3.06 0 0 0 2 2.8v3.2a6.21 6.21 0 0 1-2.9-10.4 5.88 5.88 0 0 1 4.5-1.8 6.17 6.17 0 0 1 6 6.1 5.65 5.65 0 0 1-1.5 4.1 5.53 5.53 0 0 1-3.3 2v-3.1z"/><use xlink:href="#D" y="41.9"/><path d="M985.02 555.4l8.9.1-8.9-2.5v-2l9-2.6-9 .1v-2.8h11.8v3.9l-7.8 2.4 7.8 2.3v3.9h-11.8z"/></g><g fill="#fff"><path d="M59.72 77.5V62.87h-12V77.5h-9.28V40.9h9.35v13.75h12V40.9h9.34v36.6zM74.1 60.05c0-11.32 8.16-19.83 19.28-19.83 10.68 0 19.33 8.26 19.33 18.74A18.9 18.9 0 0 1 93.84 78.2c-10.2 0-19.73-7.32-19.73-18.15zm29.27-.8c0-5.74-4.1-10.83-10-10.83s-9.94 4.9-9.94 10.68c0 6.03 4.12 10.9 10.1 10.9 5.8 0 9.84-4.9 9.84-10.74zM143 77.5l-5.5-23.68h-.06L131.9 77.5h-8.47L114 40.9h9.5l4.95 23.8h.1l5.4-23.8h7.17l5.3 23.9h.1l5-23.9h9.44l-9.73 36.6zm40.5 0V49.12h-7.22v-8.2H200v8.2h-7.17V77.5zm17.94-17.45c0-11.32 8.16-19.83 19.3-19.83 10.68 0 19.33 8.26 19.33 18.74a18.91 18.91 0 0 1-18.89 19.24c-10.18 0-19.73-7.32-19.73-18.15zm29.28-.8c0-5.74-4.1-10.83-10-10.83s-9.94 4.9-9.94 10.68c0 6 4.1 10.88 10.1 10.88 5.8.01 9.85-4.9 9.85-10.73zm29.72 18.25V40.9h12.36a20.87 20.87 0 0 1 8.75 1.39c4 1.83 6.43 6 6.43 11 0 6.78-3.76 12.76-14.24 12.76h-4.4V77.5zm12.9-19.68c3.76 0 5.64-1.28 5.64-4.4 0-3-1.83-4.3-6-4.3h-3.64v8.7zm36 19.68l-8.45-11.8h-.1v11.8h-9V40.9h12a22.6 22.6 0 0 1 8.65 1.34c4 1.78 6.72 6.08 6.72 11.27 0 5.8-3.46 10.53-9.1 11.52L320 77.5zm-5.1-18.2c3.7 0 6-1.73 6-5.24 0-3.17-2.37-5-5.88-5h-3.56V59.3zm19.9 18.2V40.9h20.3v8.2h-11.36v5.7h11V63h-11v6.27h11.36v8.23zm35.8 0l-12.2-36.6h9.6l7.37 25.67h.1l7.4-25.67h9.65l-12.27 36.6zm26 0V40.9h20.33v8.2H394.9v5.7h11V63h-11v6.27h11.38v8.23zm48.86 0l-14-22.35.24 22.35h-8.95V40.9h8.06l14.24 23.14-.4-23.14h9v36.6zm19.2 0V49.12h-7.22v-8.2h23.73v8.2h-7.17V77.5zm58.14 0l-1.78-5.3h-12.7l-1.93 5.3h-10l14.68-36.6h7.37l14.5 36.6zm-8-25.16l-.15-.05-3.77 12.5h7.67zm42.9 25.16l-12.2-36.6h9.6l7.37 25.67h.1l7.42-25.67h9.64L556.7 77.5zm44.55 0l-1.78-5.3h-12.7l-1.93 5.3h-10l14.65-36.6h7.37l14.53 36.6zm-8-25.16l-.15-.05-3.77 12.5h7.66zm21.9 25.16V40.9h12.36a20.9 20.9 0 0 1 8.75 1.39c4 1.83 6.43 6 6.43 11 0 6.78-3.76 12.76-14.24 12.76h-4.37V77.5zm12.93-19.68c3.76 0 5.64-1.28 5.64-4.4 0-3-1.83-4.3-6-4.3h-3.64v8.7zm18.53 19.68V40.9h20.32v8.2H645.9v5.7h11V63h-11v6.27h11.38v8.23zm41.4 0V40.9h11.7a27.78 27.78 0 0 1 5.84.45c4.15.94 7.6 4.15 7.6 9.1a8.23 8.23 0 0 1-4.25 7.41 8.32 8.32 0 0 1 6 8.51 10.32 10.32 0 0 1-4.22 8.62c-2.87 2-4.75 2.47-10.53 2.47zM691 54.8c2.33 0 3.56-1 3.56-2.92s-1.18-2.77-3.5-2.77h-3.76v5.7zm1.1 14.48c2.62 0 4.25-1.13 4.25-3.5 0-2.12-1.43-3.16-4.2-3.16h-4.85v6.67zm41.34 8.22l-1.78-5.3h-12.72L717 77.5h-10l14.68-36.6h7.37l14.5 36.6zm-8-25.16l-.15-.05-3.78 12.5h7.67zM750.5 77.5V49.12h-7.22v-8.2H767v8.2h-7.17V77.5zm25.66 0V49.12h-7.22v-8.2h23.73v8.2h-7.17V77.5zm20.28 0V40.9h20.33v8.2h-11.4v5.7h11V63h-11v6.27h11.38v8.23zm43.6 0l-8.46-11.8h-.1v11.8h-8.95V40.9h12a22.56 22.56 0 0 1 8.65 1.34c4 1.78 6.73 6.08 6.73 11.27 0 5.8-3.46 10.53-9.1 11.52l9.94 12.46zm-5.1-18.2c3.7 0 6-1.73 6-5.24 0-3.17-2.38-5-5.9-5h-3.56V59.3zM862 77.5V64.2l-10.93-23.3h10.13l5.44 14.7 5.5-14.7h10l-10.8 23.3v13.3zM36.82 107.78C36.82 96.45 44.98 88 56.1 88c10.68 0 19.33 8.2 19.33 18.7a18.9 18.9 0 0 1-18.89 19.23c-10.18 0-19.73-7.3-19.73-18.14zM66.1 107c0-5.74-4.1-10.83-10-10.83s-9.94 4.9-9.94 10.68c0 6 4.1 10.87 10.08 10.87 5.8-.01 9.86-4.9 9.86-10.72zM98 125.23l-8.45-11.82h-.1v11.82h-9v-36.6h12a22.62 22.62 0 0 1 8.67 1.36c4 1.78 6.72 6.08 6.72 11.27 0 5.78-3.46 10.53-9.1 11.52l9.94 12.46zM92.9 107c3.7 0 6-1.73 6-5.24 0-3.16-2.37-4.94-5.88-4.94h-3.58V107zm35.16 18.23v-36.6h20.32v8.2H137v5.7h11v8.2h-11V117h11.37v8.2zm22.8-14.68v-8.06h13.9v8.06zm43.7-8a9.57 9.57 0 0 0-8.85-6.38c-5.84 0-9.8 5-9.8 10.68 0 5.93 4 10.87 9.84 10.87 3.7 0 6.87-2.07 8.8-6.18h9.8a19.29 19.29 0 0 1-32.14 8.9 18.53 18.53 0 0 1-5.64-14c0-9.73 8.36-18.43 18.86-18.43a18.57 18.57 0 0 1 12.76 4.5 17.1 17.1 0 0 1 6.18 10.09zm14.63 22.7v-36.6h9.34v36.6zm53.36-18.73c0 9.84-7.22 19.48-19.53 19.48a19.16 19.16 0 0 1-19.43-19.18c0-11.08 9-18.84 19.58-18.84 8.26.05 16.26 5.6 18.26 12.95H251a9 9 0 0 0-8.06-4.74c-5.88 0-10 4.74-10 10.63 0 6.08 3.86 11 10 11 4.35 0 7.62-2.12 8.75-5.88h-10.9v-7.47h21.76zm25.96 18.73l-1.78-5.3h-12.7l-1.93 5.3h-10l14.7-36.6h7.36l14.54 36.6zm-8-25.17h-.14l-3.76 12.5h7.66zm39.4 25.17l-8.5-11.82h-.1v11.82h-8.9v-36.6h12a22.56 22.56 0 0 1 8.6 1.36c4 1.78 6.73 6.08 6.73 11.27 0 5.78-3.47 10.53-9.1 11.52l9.94 12.46zm-5.1-18.2c3.7 0 6-1.73 6-5.24 0-3.16-2.38-4.94-5.9-4.94h-3.56V107zm19.87 18.2v-36.6h20.33v8.2h-11.38v5.7h11v8.2h-11V117h11.38v8.2zm30.52 0V96.85H358v-8.2h23.73v8.2h-7.17v28.38zm25.68 0V96.85h-7.22v-8.2h23.77v8.2h-7.17v28.38zm20.27 0v-36.6h20.32v8.2h-11.4v5.7h11v8.2h-11V117h11.38v8.2zm41.4 0v-36.6h20v8.2h-11v6.23h10.58v8.2H461.5v13.94zm42.52 0l-8.45-11.82h-.1v11.82h-8.95v-36.6h12A22.62 22.62 0 0 1 498.2 90c3.95 1.78 6.72 6.08 6.72 11.27 0 5.78-3.46 10.53-9.1 11.52l9.94 12.46zM490 107c3.7 0 6-1.73 6-5.24 0-3.16-2.37-4.94-5.88-4.94h-3.56V107zm18.78.78c0-11.33 8.16-19.83 19.28-19.83 10.68.05 19.38 8.26 19.38 18.74a18.9 18.9 0 0 1-18.89 19.23c-10.23 0-19.77-7.3-19.77-18.14zm29.27-.8c0-5.74-4.1-10.83-10-10.83s-9.93 4.9-9.93 10.68c0 6 4.1 10.87 10.08 10.87 5.8 0 9.85-4.9 9.85-10.7zm44.4 18.25l.3-27.4-.1-.1-7.8 27.5h-6.2l-7.9-27.74.3 27.74h-8.6v-36.6h12l7.27 24.08h.1l7.17-24.08h12.06v36.6zm30.53 0v-36.6h20.33v8.2h-11.38v5.7h11v8.2h-11V117h11.38v8.2zm49.2 0l-7.92-13-7.5 13H636.3l12.8-19.48-11.32-17.1h10.58l6.28 10.43 6.08-10.43h10.53L660.1 106l12.66 19.28zm14.44 0v-36.6h12.36a20.9 20.9 0 0 1 8.75 1.36c4 1.83 6.43 6 6.43 11 0 6.78-3.76 12.76-14.24 12.76h-4.35v11.47zm13-19.68c3.76 0 5.64-1.28 5.64-4.4s-1.83-4.3-6-4.3h-3.65v8.7zm18.68 19.68v-36.6h9.35V117h10.83v8.2zm21.77-17.45c0-11.33 8.16-19.83 19.3-19.83 10.68 0 19.33 8.26 19.33 18.74a18.9 18.9 0 0 1-18.89 19.23c-10.18 0-19.73-7.3-19.73-18.14zm29.27-.78c0-5.74-4.1-10.83-10-10.83s-9.9 4.88-9.9 10.67c0 6 4.1 10.87 10.08 10.87 5.77 0 9.82-4.9 9.82-10.7zm13.9 18.23v-36.6h12.46c4.55 0 8.16.8 10.73 2.23 5.2 3 8.46 8.6 8.46 16.07 0 12.06-7.12 18.3-18.54 18.3zM786.8 117c5.4 0 8.75-3.36 8.75-10s-3.3-10.14-8.7-10.14h-4.25V117zm23.64 8.23v-36.6h9.35v36.6zm38.7 0l-14-22.35.24 22.35h-8.95v-36.6h8l14.24 23.14-.4-23.14h9v36.6zm52.17-18.73c0 9.84-7.22 19.48-19.53 19.48a19.17 19.17 0 0 1-19.44-19.18c0-11.08 9-18.84 19.58-18.84 8.26 0 16.22 5.6 18.3 13h-10.48a9 9 0 0 0-8.06-4.74c-5.9 0-10 4.74-10 10.63 0 6.08 3.86 11 10 11 4.35 0 7.6-2.12 8.75-5.88h-10.88v-7.47h21.76zm5.04-.3v-8.4h8.56v8.4zm0 19v-8.4h8.56v8.4z"/><use xlink:href="#E"/><path d="M664.35 167.7v-13l-5.48 13h-1.25l-5.44-13v13h-1.54v-14.64h2.25l5.33 12.46 5.34-12.46h2.25v14.64zm14.65 0v-1.9a5 5 0 0 1-4.21 2.16 5.68 5.68 0 1 1 0-11.36 4.86 4.86 0 0 1 4.21 2.18v-1.9h1.43v10.82zm.08-5.4a4.39 4.39 0 0 0-4.35-4.45 4.43 4.43 0 1 0 4.35 4.45zm11.42 5.4l-3.56-4.27-1.74 2.2v2.06h-1.4v-14.64h1.4v10.43l5-6.6h1.8l-4.28 5.46 4.5 5.36zm4.43-4.9a4.29 4.29 0 0 0 4.19 3.92 4.11 4.11 0 0 0 3.88-2.55h1.44a5.65 5.65 0 1 1-5.34-7.56 5.79 5.79 0 0 1 5.68 5.78v.4zm8.44-1.24a4.26 4.26 0 0 0-8.44 0zm14.75-2a1.64 1.64 0 0 0-1.62-1.7 1.61 1.61 0 0 0-1.65 1.62c0 .8.56 1.34 1.88 1.78 2.63.87 3.15 1.92 3.15 3.46a3.11 3.11 0 0 1-3.44 3.28 3.24 3.24 0 0 1-3.33-3.39v-.08h1.4c0 1.45.77 2.22 1.94 2.22a1.81 1.81 0 0 0 2-1.94c0-1.05-.67-1.62-1.9-2.08-1.9-.7-3.1-1.22-3.1-3.08a3 3 0 0 1 3.09-3 2.89 2.89 0 0 1 2.94 2.95zm12.42 8.14V166a3.66 3.66 0 0 1-3.45 1.94c-2.3 0-4.7-1.23-4.7-4.9v-6.2h1.4v6c0 2.45 1 3.8 3.3 3.8 1.86 0 3.4-1.3 3.4-3.9v-5.93h1.38v10.82zm4.72 0v-10.8h1.38v1.56c.48-1.13 1.3-1.74 3-1.84v1.46a3.12 3.12 0 0 0-3.07 3.25v6.4zm7.5-4.9a4.29 4.29 0 0 0 4.19 3.92 4.11 4.11 0 0 0 3.88-2.55h1.46a5.65 5.65 0 1 1-5.34-7.56 5.79 5.79 0 0 1 5.68 5.78v.4zm8.44-1.24a4.26 4.26 0 0 0-8.44 0zm11.86 6.14v-9.58h-2.28v-1.24h2.28v-3.82h1.38v3.82h2.6v1.24h-2.6v9.58zm5.78-5.33a5.66 5.66 0 1 1 5.6 5.63 5.72 5.72 0 0 1-5.6-5.63zm9.93-.14a4.28 4.28 0 1 0-4.27 4.49 4.35 4.35 0 0 0 4.27-4.49zm10.57 5.47v-8.5h-1.23v-2.5h1.23v-.46c0-1.82.7-3.48 4.2-3.48h.46v2.47h-.12c-.85 0-1.27.22-1.27 1.13v.34h1.4v2.5h-1.4v8.5zm12.2.35a5.84 5.84 0 1 1 5.91-5.88 5.75 5.75 0 0 1-5.91 5.88zm2.63-5.84a2.63 2.63 0 1 0-2.63 2.77 2.7 2.7 0 0 0 2.63-2.77zm5.74 5.5v-14.64h3.28v14.64zm6.45 0v-14.64h3.28v14.64zm11.85.35a5.84 5.84 0 1 1 5.92-5.88 5.75 5.75 0 0 1-5.92 5.88zm2.63-5.84a2.63 2.63 0 1 0-2.63 2.77 2.69 2.69 0 0 0 2.63-2.77zm14.6 5.5l-1.84-7.1-1.84 7.1h-3l-3.36-11h3.4l1.64 6.82 1.8-6.82H845l1.82 6.82 1.65-6.82h3.38l-3.38 11zm16.82 0v-9.58h-2.28v-1.24h2.28v-3.82h1.4v3.82h2.6v1.24h-2.6v9.58zm14.3 0v-6c0-2.44-1.47-3.82-3.37-3.82-2.1 0-3.38 1.6-3.38 3.72v6.13h-1.38v-14.67h1.4v5.2a3.89 3.89 0 0 1 3.32-1.66c3 0 4.77 2.06 4.77 5.07v6zm5.68-4.9a4.29 4.29 0 0 0 4.19 3.92 4.1 4.1 0 0 0 3.88-2.55h1.46a5.65 5.65 0 1 1-5.34-7.56 5.79 5.79 0 0 1 5.68 5.78v.4zm8.45-1.24a4.33 4.33 0 0 0-4.26-3.7 4.27 4.27 0 0 0-4.19 3.7zM652.6 188.6l-4.57-10.82h1.48l3.82 9.1 3.88-9.1h1.48l-4.57 10.82zm17.94 0v-1.9a5 5 0 0 1-4.22 2.16 5.68 5.68 0 1 1 0-11.36 4.91 4.91 0 0 1 4.22 2.17v-1.9h1.4v10.82zm.08-5.4a4.4 4.4 0 0 0-4.35-4.46 4.44 4.44 0 1 0 4.35 4.46zm4.6 9.2v-14.62h1.38v1.9a5 5 0 0 1 4.22-2.17 5.68 5.68 0 1 1 0 11.36 5.05 5.05 0 0 1-4.22-2.16v5.7zm5.62-13.66a4.41 4.41 0 0 0-4.32 4.46 4.35 4.35 0 0 0 4.34 4.41 4.44 4.44 0 1 0 0-8.87zm9.6 4.96a4.3 4.3 0 0 0 4.2 3.92 4.11 4.11 0 0 0 3.88-2.55h1.46a5.65 5.65 0 1 1-5.34-7.56 5.79 5.79 0 0 1 5.68 5.78v.4zm8.45-1.25a4.26 4.26 0 0 0-8.45 0zm10.1.8a5.66 5.66 0 1 1 5.64 5.6 5.72 5.72 0 0 1-5.64-5.6zm9.93-.14a4.28 4.28 0 1 0-4.28 4.49 4.36 4.36 0 0 0 4.28-4.49zm4.27 5.48v-10.82h1.4v1.56c.47-1.13 1.3-1.74 3-1.84v1.5a3.12 3.12 0 0 0-3.07 3.25v6.4zm13.92-4.9a4.29 4.29 0 0 0 4.19 3.92 4.11 4.11 0 0 0 3.88-2.55h1.46a5.65 5.65 0 1 1-5.34-7.56 5.79 5.79 0 0 1 5.68 5.78v.4zm8.44-1.25a4.26 4.26 0 0 0-8.44 0zm3.64 1.25v-1.32h5.38v1.32zm18.76 1.7a5.85 5.85 0 0 1-11.19-2.33 5.78 5.78 0 0 1 5.81-5.58 5.67 5.67 0 0 1 5.38 3.54h-1.52a4.26 4.26 0 0 0-3.82-2.3 4.44 4.44 0 1 0 0 8.87 4.15 4.15 0 0 0 3.82-2.2zm2.88-8.95V174h1.38v2.5zm0 12.15v-10.82h1.38v10.82zm14.06-1.98a4.69 4.69 0 0 1-4.17 2.24 5.63 5.63 0 0 1-5.66-5.62 5.71 5.71 0 0 1 5.66-5.74 4.85 4.85 0 0 1 4.17 2.21v-1.93h1.4v9.67a5.05 5.05 0 0 1-5.28 5.4 5.48 5.48 0 0 1-5.54-4h1.46a4.17 4.17 0 0 0 4.06 2.73 3.71 3.71 0 0 0 3.91-4zm.08-3.42a4.28 4.28 0 1 0-6.42 3.706 4.28 4.28 0 0 0 6.42-3.707zm14.32 5.4v-1.9a5 5 0 0 1-4.21 2.16 5.68 5.68 0 1 1 0-11.36 4.88 4.88 0 0 1 4.21 2.17v-1.9h1.4v10.82zm.08-5.4a4.4 4.4 0 0 0-4.35-4.46 4.44 4.44 0 1 0 4.4 4.46zm4.62 5.4v-10.82h1.44v1.56c.47-1.13 1.3-1.74 3-1.84v1.5a3.12 3.12 0 0 0-3.06 3.25v6.4zm7.5-4.9a4.3 4.3 0 0 0 4.2 3.92 4.09 4.09 0 0 0 3.87-2.55h1.47a5.65 5.65 0 1 1-5.34-7.56 5.78 5.78 0 0 1 5.67 5.78v.4zm8.45-1.25a4.26 4.26 0 0 0-8.45 0zm5.58 6.15V179h-2.27v-1.24h2.27V174h1.4v3.82h2.6V179h-2.6v9.58zm7.5 0V179h-2.27v-1.24h2.27V174h1.4v3.82h2.6V179h-2.6v9.58zm7.13-4.9a4.29 4.29 0 0 0 4.19 3.92 4.1 4.1 0 0 0 3.88-2.55h1.46a5.65 5.65 0 1 1-5.34-7.56 5.79 5.79 0 0 1 5.68 5.78v.4zm8.45-1.25a4.34 4.34 0 0 0-4.26-3.7 4.28 4.28 0 0 0-4.19 3.7zM663.76 209.5v-6.35c0-2.06-1-3.5-3-3.5s-3 1.43-3 3.54v6.32h-1.32v-6.34c0-2.1-1-3.52-2.95-3.52s-3 1.4-3 3.52v6.34h-1.4v-10.83h1.4v1.25a3.37 3.37 0 0 1 3-1.52 4 4 0 0 1 3.64 2.07 4.16 4.16 0 0 1 3.64-2.07c2.8 0 4.33 2.05 4.33 4.6v6.5z"/><use xlink:href="#F"/><path d="M690.97 209.5v-6c0-2.43-1.47-3.82-3.37-3.82-2.1 0-3.38 1.6-3.38 3.72v6.14h-1.38v-10.87h1.38v1.4a3.89 3.89 0 0 1 3.32-1.66c3 0 4.77 2.05 4.77 5.06v6zm12.83 0v-1.7a3.63 3.63 0 0 1-3.44 1.94c-2.32 0-4.7-1.22-4.7-4.88v-6.2h1.38v6c0 2.45 1 3.8 3.3 3.8 1.86 0 3.4-1.3 3.4-3.9v-5.94h1.4v10.83zm5.5 0v-9.58h-1.68v-1.25h1.68c0-3 1.4-4 4.16-4.07v1.28c-1.92 0-2.73.8-2.73 2.7v.08h2.72v1.25h-2.77v9.58z"/><use xlink:href="#F" x="47"/><path d="M740.56 206.3a5.86 5.86 0 0 1-11.2-2.33 5.78 5.78 0 0 1 5.82-5.58 5.68 5.68 0 0 1 5.38 3.54h-1.53a4.24 4.24 0 0 0-3.81-2.3 4.44 4.44 0 1 0 0 8.87 4.13 4.13 0 0 0 3.81-2.2zm4.14 3.2v-9.58h-2.25v-1.25h2.27v-3.82h1.4v3.82h2.6v1.25h-2.6v9.58zm14.34 0v-1.7a3.63 3.63 0 0 1-3.44 1.94c-2.32 0-4.7-1.22-4.7-4.88v-6.2h1.38v6c0 2.45 1.05 3.8 3.3 3.8 1.86 0 3.4-1.3 3.4-3.9v-5.94h1.4v10.83zm4.7 0v-10.83h1.4v1.57c.47-1.13 1.3-1.74 3-1.84v1.46a3.11 3.11 0 0 0-3.06 3.25v6.4zm7.5-4.92a4.3 4.3 0 0 0 4.2 3.92 4.08 4.08 0 0 0 3.87-2.56h1.47a5.65 5.65 0 1 1-5.34-7.55 5.78 5.78 0 0 1 5.67 5.77v.42zm8.45-1.25a4.26 4.26 0 0 0-8.45 0zm4.32 6.17v-10.83h1.42v1.57c.47-1.13 1.3-1.74 3-1.84v1.46a3.11 3.11 0 0 0-3 3.25v6.4zm12.92-12.16v-2.5h3.28v2.5zm0 12.15v-11h3.28v11zm13.33.01v-6.1c0-1.48-.5-2.17-1.72-2.17s-1.88.73-1.88 2.2v6.06h-3.23v-11h3v1.16a3.17 3.17 0 0 1 3-1.54c2 0 4.08 1.1 4.08 4.35v7zm11.1-7.9c0-.63-.48-.83-1-.83s-.95.32-.95.73c0 .6.53.9 2.06 1.3 2.6.7 3.46 1.74 3.46 3.34 0 2.3-2 3.74-4.47 3.74s-4.24-1.4-4.48-3.64h3.27a1.14 1.14 0 0 0 1.25 1c.57 0 1.14-.34 1.14-.85s-.37-.93-2-1.44c-2.76-.86-3.5-1.94-3.5-3.23 0-2.18 2-3.58 4.26-3.58 2.37 0 4.05 1.3 4.2 3.46zm6.64 7.9V201h-1.63v-2.5H828v-3.67h3.28v3.67h1.58v2.5h-1.58v8.5z"/><use xlink:href="#G"/><path d="M850.52 209.5v-1.17a2.74 2.74 0 0 1-2.82 1.52c-2.32 0-4.24-1.38-4.24-4.5v-6.82h3.3v6.15c0 1.44.5 2.12 1.76 2.12s1.88-.84 1.88-2.18v-6.1h3.28v11zm14.03-6.76a2.51 2.51 0 0 0-2.45-1.54 2.8 2.8 0 0 0 .08 5.58 2.5 2.5 0 0 0 2.37-1.47h3.35a5.9 5.9 0 0 1-11.64-1.31 5.88 5.88 0 0 1 11.62-1.23zm6.6 6.76V201h-1.63v-2.5h1.63v-3.67h3.3v3.67h1.58v2.5h-1.58v8.5zm7.08-12.16v-2.5h3.28v2.5zm0 12.15v-11h3.28v11zm11.85.33a5.84 5.84 0 1 1 5.92-5.87 5.74 5.74 0 0 1-5.92 5.87zm2.63-5.83a2.63 2.63 0 1 0-2.63 2.77 2.69 2.69 0 0 0 2.63-2.76zm12.83 5.5v-6.1c0-1.48-.52-2.17-1.72-2.17s-1.88.73-1.88 2.2v6.06h-3.3v-11h3.07v1.16a3.15 3.15 0 0 1 3-1.54c2 0 4.07 1.1 4.07 4.35v7zm11.08-7.9c0-.63-.48-.83-1-.83s-.95.32-.95.73c0 .6.53.9 2.06 1.3 2.6.7 3.46 1.74 3.46 3.34 0 2.3-2 3.74-4.47 3.74s-4.24-1.4-4.47-3.64h3.26a1.14 1.14 0 0 0 1.25 1c.57 0 1.15-.34 1.15-.85s-.38-.93-2-1.44c-2.77-.86-3.5-1.94-3.5-3.23 0-2.18 2-3.58 4.25-3.58s4.06 1.3 4.2 3.46zm6.82 7.9V207h1.46v2.5z"/><use xlink:href="#H"/><path d="M650.6 251.26v-14.64h3.76c3.06 0 4.7 1.68 4.7 3.9a3.45 3.45 0 0 1-1.61 2.95 3.82 3.82 0 0 1 2.44 3.6c0 2-1.13 4.2-5 4.2zm3.78-8.33c2.8 0 3.22-1.62 3.22-2.47 0-1.1-.63-2.5-3.34-2.5h-2.2v5zm.45 7c1.88 0 3.6-.75 3.6-2.87 0-1.66-1.44-2.8-3.6-2.8h-2.77v5.68zm15.85 1.33v-1.68a3.63 3.63 0 0 1-3.44 1.94c-2.3 0-4.7-1.23-4.7-4.9v-6.2h1.4v6c0 2.45 1 3.8 3.3 3.8 1.86 0 3.4-1.3 3.4-3.9v-5.94h1.4v10.82zm6.06 3.8l1.88-4.15-4.18-10.47h1.47l3.44 8.63 3.68-8.63h1.4l-6.28 14.62zm23.1-3.8v-6c0-1.43-.55-2.24-1.76-2.24s-1.84.74-1.84 2.1v6.17h-3.28v-14.67h3.28v4.7a3.1 3.1 0 0 1 2.85-1.42c2.5 0 4 1.58 4 4.45v6.9zm6.4-12.14v-2.5h3.3v2.5zm0 12.14v-11h3.3v11zM720.8 250a3.28 3.28 0 0 1-3.07 1.64 5.49 5.49 0 0 1-5.52-5.78 5.6 5.6 0 0 1 5.52-5.91 3.46 3.46 0 0 1 3.05 1.38v-1h3.28v9.82a7.54 7.54 0 0 1-.59 3.36c-.8 1.52-2.95 2.7-5.7 2.7-3.1 0-5.12-1.76-5.4-3.86h3.8a1.94 1.94 0 0 0 1.92 1.09c1.66 0 2.67-1.1 2.67-3.1zm0-4.16a2.66 2.66 0 1 0-2.69 2.73 2.59 2.59 0 0 0 2.71-2.75zm13.3 5.42v-6c0-1.43-.56-2.24-1.76-2.24s-1.84.74-1.84 2.1v6.17h-3.3v-14.67h3.3v4.7a3.08 3.08 0 0 1 2.84-1.42c2.52 0 4 1.58 4 4.45v6.9zm21.48 3.66v-4.78a3.89 3.89 0 0 1-3.33 1.48 5.37 5.37 0 0 1-5.3-5.64c0-3.48 2.26-6.07 5.5-6.07a3.67 3.67 0 0 1 3.27 1.58v-1.2h3.14v14.64zm.12-9.14a2.78 2.78 0 0 0-2.79-2.81 2.79 2.79 0 1 0 2.79 2.81zm13.4 5.48v-1.16a2.74 2.74 0 0 1-2.83 1.52c-2.3 0-4.23-1.4-4.23-4.5v-6.83h3.28v6.16c0 1.44.52 2.1 1.76 2.1s1.88-.83 1.88-2.17v-6.1h3.3v11z"/><use xlink:href="#I"/><path d="M790.2 251.26v-14.64h3.25v14.64zm6.44-12.14v-2.5h3.28v2.5zm0 12.14v-11h3.28v11zm7.2 0v-8.48h-1.62v-2.5h1.62v-3.66h3.3v3.66h1.58v2.5h-1.58v8.48zm8.26 3.66l1.75-4.2-4.08-10.43h3.5l2.2 6.37 2.1-6.37h3.5l-5.5 14.64zm10.07-2.32l1.74-3.82h1.46l-1.74 3.82zm-171.73 19.55v-9.57h-2.27v-1.25h2.27v-3.82h1.4v3.82h2.6v1.25h-2.6v9.57zm6.23 0v-10.82h1.4v1.56c.47-1.13 1.3-1.74 3.05-1.84v1.47a3.11 3.11 0 0 0-3.07 3.24v6.4zm14.86 0v-1.68a3.62 3.62 0 0 1-3.44 1.94c-2.3 0-4.7-1.23-4.7-4.9v-6.2h1.4v6c0 2.46 1.05 3.8 3.3 3.8 1.86 0 3.4-1.3 3.4-3.9v-5.93h1.38v10.82zm8.9-8.15a1.64 1.64 0 0 0-1.62-1.7 1.61 1.61 0 0 0-1.64 1.62c0 .8.55 1.35 1.88 1.78 2.63.87 3.14 1.92 3.14 3.46a3.11 3.11 0 0 1-3.4 3.25 3.23 3.23 0 0 1-3.36-3.41h1.4c0 1.44.77 2.2 1.94 2.2a1.82 1.82 0 0 0 2-1.94c0-1.05-.68-1.62-1.92-2.07-1.9-.7-3.1-1.23-3.1-3.1a3 3 0 0 1 3.09-3 2.9 2.9 0 0 1 3 2.95zm5.54 8.15v-9.57h-2.27v-1.25h2.27v-3.82h1.4v3.82h2.6v1.25h-2.6v9.57zm15.46 0l-2.3-7.2-2.26 7.2h-1.56l-4.1-10.82h1.44l3.4 9.06 2.48-7.76h1.2l2.5 7.76 3.44-9.06h1.42l-4.13 10.82zm7.56-5.35a5.66 5.66 0 1 1 5.63 5.6 5.72 5.72 0 0 1-5.63-5.6zm9.93-.14a4.28 4.28 0 1 0-4.28 4.49 4.36 4.36 0 0 0 4.28-4.49zm4.27 5.5v-10.82h1.4v1.56c.47-1.13 1.3-1.74 3-1.84v1.47a3.11 3.11 0 0 0-3.07 3.24v6.4zm8.02 0v-9.57h-2.28v-1.25h2.28v-3.82h1.38v3.82h2.6v1.25h-2.6v9.57zm14.3 0v-6c0-2.44-1.46-3.82-3.36-3.82-2.1 0-3.38 1.6-3.38 3.72v6.13h-1.34V257.5h1.4v5.2a3.91 3.91 0 0 1 3.32-1.66c3 0 4.77 2.06 4.77 5.07v6zm6.14 3.85l1.88-4.15-4.2-10.47h1.46l3.44 8.63 3.68-8.63h1.47L753.1 276zm25.88-3.85v-1.9a5 5 0 0 1-4.21 2.16 5.68 5.68 0 1 1 0-11.36 5.11 5.11 0 0 1 4.21 2.14v-5.68h1.4v14.64zm.08-5.4a4.39 4.39 0 0 0-4.35-4.45 4.43 4.43 0 1 0 4.35 4.45zm5.6.5a4.3 4.3 0 0 0 4.2 3.92 4.11 4.11 0 0 0 3.88-2.55h1.46a5.65 5.65 0 1 1-5.34-7.56 5.79 5.79 0 0 1 5.68 5.78v.4zm8.45-1.24a4.26 4.26 0 0 0-8.45 0zm7.77 6.15l-4.57-10.82h1.48l3.82 9.1 3.88-9.1h1.48l-4.57 10.82zm8.3-12.15v-2.5h1.4v2.5zm0 12.15v-10.82h1.4v10.82zm15.48-3.15a5.73 5.73 0 1 1 0-4.38h-1.53a4.26 4.26 0 0 0-3.82-2.29 4.43 4.43 0 0 0 0 8.86 4.16 4.16 0 0 0 3.82-2.19zm3.76-1.76a4.29 4.29 0 0 0 4.19 3.92 4.1 4.1 0 0 0 3.88-2.55h1.46a5.65 5.65 0 1 1-5.34-7.56 5.79 5.79 0 0 1 5.68 5.78v.4zm8.46-1.24a4.26 4.26 0 0 0-8.44 0zm5 6.15v-2.5h1.47v2.5z"/><use xlink:href="#E" y="146.22"/><path d="M659.56 313.93l-5.62-8.93.1 8.94h-3.6V299.3h3.23l5.7 9.26-.15-9.26h3.58v14.64zm9.22-4.5a2.46 2.46 0 0 0 2.58 2.07 2.29 2.29 0 0 0 2-1h3.37a5.79 5.79 0 1 1-1.249-6.15 5.79 5.79 0 0 1 1.62 4.231 5 5 0 0 1-.07.87zm5-2.22a2.6 2.6 0 0 0-5 0zm8.66 6.7l-4-10.93h3.4l2.1 6.84 2.1-6.84h3.4l-3.95 11zm11.63-4.5a2.46 2.46 0 0 0 2.58 2.07 2.32 2.32 0 0 0 2-1H702a5.79 5.79 0 1 1-1.249-6.15 5.79 5.79 0 0 1 1.62 4.231 4.2 4.2 0 0 1-.07.87zm5-2.22a2.6 2.6 0 0 0-5 0zm5.9 6.7V303h3.1v1.16a2.7 2.7 0 0 1 2.75-1.54v3.3c-2 0-2.6.75-2.6 2V314zm21.96 0v-1.17a2.74 2.74 0 0 1-2.83 1.52c-2.3 0-4.23-1.38-4.23-4.5V303h3.28v6.15c0 1.44.52 2.12 1.77 2.12s1.88-.83 1.88-2.18V303h3.28v11zM737.9 306c0-.63-.48-.83-1-.83s-1 .32-1 .73c0 .6.53.9 2.06 1.3 2.6.7 3.46 1.74 3.46 3.34 0 2.3-2 3.74-4.47 3.74s-4.24-1.4-4.47-3.64h3.26a1.13 1.13 0 0 0 1.25 1c.57 0 1.14-.33 1.14-.85s-.37-.93-2-1.44c-2.77-.85-3.5-1.94-3.5-3.23 0-2.17 2-3.58 4.26-3.58s4 1.3 4.2 3.46zm8.63 3.44a2.46 2.46 0 0 0 2.58 2.07 2.32 2.32 0 0 0 2-1h3.33a5.79 5.79 0 1 1-1.249-6.15 5.79 5.79 0 0 1 1.62 4.231 4.2 4.2 0 0 1-.07.87zm5-2.22a2.6 2.6 0 0 0-5 0zm18.24 7.04a5.84 5.84 0 1 1 5.91-5.87 5.74 5.74 0 0 1-5.91 5.87zm2.63-5.83a2.63 2.63 0 1 0-2.63 2.77 2.7 2.7 0 0 0 2.67-2.77zm5.74 5.5V299.3h3.3v14.64zm14.76 0v-1.2a3.55 3.55 0 0 1-3.29 1.54c-3.32 0-5.5-2.55-5.5-5.87s2.24-5.84 5.45-5.84a4.27 4.27 0 0 1 3.22 1.31v-4.6h3.28v14.64zm0-5.54a2.78 2.78 0 1 0-2.81 2.83 2.76 2.76 0 0 0 2.83-2.83zm21.45 5.54v-1.2a3.51 3.51 0 0 1-3.22 1.56c-3.25 0-5.5-2.55-5.5-5.87a5.62 5.62 0 0 1 5.51-5.86 3.73 3.73 0 0 1 3.22 1.54V303h3.28v11zm0-5.5a2.78 2.78 0 0 0-2.79-2.79 2.8 2.8 0 1 0 2.79 2.79zm13.35 5.5v-6.1c0-1.48-.52-2.17-1.72-2.17s-1.88.73-1.88 2.2v6.06h-3.3V303h3.07v1.16a3.17 3.17 0 0 1 3-1.54c2 0 4.07 1.1 4.07 4.35v7zm14.74 0v-1.2a3.55 3.55 0 0 1-3.28 1.54c-3.33 0-5.5-2.55-5.5-5.87s2.23-5.84 5.44-5.84a4.27 4.27 0 0 1 3.22 1.31v-4.6h3.3v14.64zm0-5.54a2.78 2.78 0 1 0-2.81 2.83 2.76 2.76 0 0 0 2.81-2.83zm20.08 5.54v-6.1c0-1.48-.52-2.17-1.73-2.17s-1.88.73-1.88 2.2v6.06h-3.28V303h3.07v1.16a3.16 3.16 0 0 1 3-1.54c2 0 4.08 1.1 4.08 4.35v7zm9.06-4.5a2.46 2.46 0 0 0 2.57 2.07 2.3 2.3 0 0 0 2-1h3.36a5.84 5.84 0 1 1 .38-1.92 4.21 4.21 0 0 1-.08.87zm5-2.22a2.46 2.46 0 0 0-2.52-1.88 2.44 2.44 0 0 0-2.47 1.88zm14.62 6.7l-1.84-7.1-1.84 7.1h-3l-3.36-11h3.3l1.64 6.82 1.8-6.82h2.77l1.82 6.82 1.65-6.82h3.38l-3.38 11zm-241.97 20.9v-14.64h1.4v5.7a5.13 5.13 0 0 1 4.21-2.17 5.68 5.68 0 1 1 0 11.35 5 5 0 0 1-4.21-2.15v1.9zm5.62-9.86a4.44 4.44 0 1 0 4.02 2.154 4.44 4.44 0 0 0-4.02-2.154zm18.23 9.86v-1.9a5 5 0 0 1-4.22 2.15 5.68 5.68 0 1 1 0-11.35 4.89 4.89 0 0 1 4.22 2.17V324h1.36v10.83zm.08-5.4a4.4 4.4 0 0 0-4.36-4.46 4.44 4.44 0 1 0 4.36 4.46zm5.88 5.4v-9.58h-2.28V324h2.28v-3.8h1.4v3.8h2.6v1.25h-2.6v9.58zm7.5 0v-9.58h-2.28V324h2.28v-3.8h1.38v3.8h2.6v1.25h-2.6v9.58zm7.12-4.92a4.3 4.3 0 0 0 4.19 3.92 4.09 4.09 0 0 0 3.88-2.55h1.47a5.65 5.65 0 1 1-5.35-7.56 5.78 5.78 0 0 1 5.68 5.77v.42zm8.45-1.25a4.26 4.26 0 0 0-8.45 0zm4.33 6.17V324h1.4v1.57c.47-1.13 1.3-1.74 3-1.84v1.46a3.11 3.11 0 0 0-3.07 3.25v6.4zm6.73-12.15v-2.5h1.4v2.5zm0 12.15V324h1.4v10.83z"/><use xlink:href="#J"/><path d="M735.73 326.67a1.65 1.65 0 0 0-1.62-1.71 1.61 1.61 0 0 0-1.64 1.63c0 .8.55 1.34 1.88 1.78 2.63.87 3.14 1.92 3.14 3.46a3.1 3.1 0 0 1-3.4 3.24 3.23 3.23 0 0 1-3.33-3.38v-.08h1.4c0 1.45.77 2.22 1.94 2.22a1.82 1.82 0 0 0 2-1.94c0-1.05-.68-1.62-1.92-2.08-1.9-.7-3.1-1.23-3.1-3.1a3 3 0 0 1 3.09-3 2.89 2.89 0 0 1 2.95 2.95zm11.85 8.15v-9.58h-2.27V324h2.27v-3.8h1.4v3.8h2.6v1.25h-2.6v9.58zm5.78-5.35a5.66 5.66 0 1 1 5.64 5.6 5.72 5.72 0 0 1-5.64-5.6zm9.93-.13a4.27 4.27 0 1 0-4.27 4.49 4.35 4.35 0 0 0 4.27-4.49zm13.6 3.5a4.68 4.68 0 0 1-4.17 2.23 5.62 5.62 0 0 1-5.66-5.61 5.71 5.71 0 0 1 5.66-5.74 4.85 4.85 0 0 1 4.17 2.21V324h1.38v9.68a5 5 0 0 1-5.28 5.4 5.48 5.48 0 0 1-5.54-4h1.47a4.16 4.16 0 0 0 4 2.73 3.7 3.7 0 0 0 3.92-3.95zm.08-3.42a4.29 4.29 0 1 0-4.29 4.41 4.41 4.41 0 0 0 4.29-4.41z"/><use xlink:href="#J" x="63.77"/><path d="M796.6 334.82v-9.58h-2.27V324h2.27v-3.8h1.4v3.8h2.6v1.25H798v9.58zm14.3 0v-6c0-2.43-1.47-3.82-3.37-3.82-2.1 0-3.38 1.6-3.38 3.72v6.14h-1.4v-14.68h1.4v5.2a3.89 3.89 0 0 1 3.32-1.66c3 0 4.77 2 4.77 5.06v6zm5.7-4.92a4.29 4.29 0 0 0 4.19 3.92 4.1 4.1 0 0 0 3.88-2.55h1.46a5.65 5.65 0 1 1-5.34-7.56 5.78 5.78 0 0 1 5.68 5.77v.42zm8.45-1.25a4.34 4.34 0 0 0-4.26-3.7 4.28 4.28 0 0 0-4.19 3.7zm4.3 6.17V324h1.4v1.57c.47-1.13 1.3-1.74 3-1.84v1.46a3.11 3.11 0 0 0-3.06 3.25v6.4zm6.1 0v-2.5h1.46v2.5z"/><use xlink:href="#H" y="125.33"/><path d="M656.67 365.67a2.64 2.64 0 0 0-2.59-2.65 2.57 2.57 0 0 0-2.65 2.55c0 1.25.75 2 2.83 2.56 3.16.8 4.23 2.45 4.23 4.43a4.33 4.33 0 0 1-4.41 4.29 4.27 4.27 0 0 1-4.51-4.35h1.46a3.001 3.001 0 1 0 6 .12c0-1.6-1.05-2.48-3-3-2.1-.6-4.1-1.3-4.1-4a4.09 4.09 0 0 1 8.17 0zm5.66 10.93V367h-2.27v-1.25h2.27V362h1.4v3.82h2.6V367h-2.6v9.57zm5.77-5.35a5.66 5.66 0 1 1 5.64 5.6 5.73 5.73 0 0 1-5.64-5.6zm9.93-.14a4.27 4.27 0 1 0-4.27 4.49 4.36 4.36 0 0 0 4.27-4.49zm4.3 5.5v-10.82h1.4v1.56c.48-1.12 1.3-1.74 3.05-1.84v1.5a3.1 3.1 0 0 0-3.06 3.24v6.4zm7.5-4.9a4.3 4.3 0 0 0 4.2 3.91 4.08 4.08 0 0 0 3.87-2.55h1.47a5.65 5.65 0 1 1-5.34-7.56 5.78 5.78 0 0 1 5.67 5.78v.42zm8.45-1.25a4.26 4.26 0 0 0-8.45 0zm10.65 6.15V362h1.38v5.72a5.12 5.12 0 0 1 4.22-2.18 5.68 5.68 0 0 1 0 11.36 5 5 0 0 1-4.22-2.16v1.9zm5.62-9.85a4.43 4.43 0 1 0 0 8.86 4.43 4.43 0 1 0 0-8.86zm18.22 9.85v-1.9a5 5 0 0 1-4.21 2.16 5.68 5.68 0 0 1 0-11.36 4.88 4.88 0 0 1 4.21 2.18v-1.9h1.4v10.82zm.08-5.4a4.4 4.4 0 0 0-4.35-4.45 4.35 4.35 0 0 0-4.42 4.47 4.3 4.3 0 0 0 4.44 4.39 4.36 4.36 0 0 0 4.33-4.41zm5.88 5.4V367h-2.28v-1.25h2.28V362h1.38v3.82h2.6V367h-2.6v9.57zm7.5 0V367h-2.28v-1.25h2.28V362h1.38v3.82h2.6V367h-2.6v9.57zm7.12-4.9a4.3 4.3 0 0 0 4.2 3.91 4.08 4.08 0 0 0 3.87-2.55h1.47a5.65 5.65 0 1 1-5.34-7.56 5.79 5.79 0 0 1 5.68 5.78v.42zm8.45-1.25a4.26 4.26 0 0 0-8.45 0zm4.3 6.15v-10.82h1.38v1.56c.48-1.12 1.3-1.74 3-1.84v1.5a3.11 3.11 0 0 0-3.07 3.24v6.4zm6.75-12.15V362h1.4v2.5zm0 12.14v-10.82h1.4v10.82zm5.65-4.9a4.3 4.3 0 0 0 4.2 3.91 4.1 4.1 0 0 0 3.88-2.55h1.46a5.65 5.65 0 1 1-5.34-7.56 5.79 5.79 0 0 1 5.68 5.78v.42zm8.45-1.25a4.26 4.26 0 0 0-8.45 0zm8.5-2a1.64 1.64 0 0 0-1.62-1.7 1.61 1.61 0 0 0-1.64 1.62c0 .8.55 1.35 1.88 1.78 2.63.87 3.14 1.92 3.14 3.47a3.11 3.11 0 0 1-3.4 3.24 3.22 3.22 0 0 1-3.32-3.38v-.08h1.38c0 1.44.77 2.2 1.94 2.2a1.81 1.81 0 0 0 2-1.93c0-1.05-.67-1.63-1.92-2.08-1.9-.7-3.1-1.23-3.1-3.1a3 3 0 0 1 3.09-3 2.9 2.9 0 0 1 3 2.95zm20.18 8.16v-1.9a5 5 0 0 1-4.22 2.16 5.68 5.68 0 1 1 0-11.36 4.9 4.9 0 0 1 4.22 2.18v-1.9H817v10.82zm.08-5.4a4.4 4.4 0 0 0-4.36-4.45 4.34 4.34 0 0 0-4.41 4.47 4.3 4.3 0 0 0 4.43 4.39 4.36 4.36 0 0 0 4.34-4.41zm5.87 5.4V367h-2.27v-1.25h2.27V362h1.4v3.82h2.6V367h-2.6v9.57zm12.4 0v-11h3.1v1.17a2.69 2.69 0 0 1 2.75-1.54v3.3c-2 0-2.6.75-2.6 2v6zm13.24.33a5.84 5.84 0 1 1 5.92-5.88 5.75 5.75 0 0 1-5.92 5.88zm2.63-5.84a2.63 2.63 0 1 0-2.63 2.77 2.71 2.71 0 0 0 2.63-2.77zm11.34 5.84a5.84 5.84 0 1 1 5.92-5.88 5.74 5.74 0 0 1-5.92 5.88zm2.63-5.84a2.63 2.63 0 1 0-2.63 2.77 2.7 2.7 0 0 0 2.63-2.77zm19.5 5.5v-5.9c0-1.72-.55-2.36-1.68-2.36s-1.82.76-1.82 2.2v6.07h-3.28v-6c0-1.43-.52-2.22-1.65-2.22-1.28 0-1.86.83-1.86 2.36v5.9h-3.28v-11h3.07v1.17a3.19 3.19 0 0 1 3-1.54 3.46 3.46 0 0 1 3.17 2 4 4 0 0 1 3.48-2c2.46 0 4.08 1.5 4.08 4.57v6.78zm-233.57 20.88V389h-1.62v-2.5h1.62v-3.66H653v3.66h1.6v2.5H653v8.5z"/><use xlink:href="#K"/><path d="M683.66 397.48v-5.9c0-1.72-.55-2.36-1.68-2.36s-1.82.75-1.82 2.2v6.07h-3.28v-6.05c0-1.43-.52-2.22-1.64-2.22-1.3 0-1.86.83-1.86 2.36v5.9h-3.3v-11h3.07v1.17a3.19 3.19 0 0 1 3-1.54 3.47 3.47 0 0 1 3.17 1.95 4 4 0 0 1 3.48-1.95c2.46 0 4.08 1.5 4.08 4.57v6.78zm6.4 3.66V386.5h3.08v1.2h.06a4.23 4.23 0 0 1 3.45-1.58c3.12 0 5.34 2.55 5.34 6a5.47 5.47 0 0 1-5.34 5.76 4.27 4.27 0 0 1-3.31-1.37v4.65zm8.64-9.14a2.75 2.75 0 1 0-2.75 2.79 2.76 2.76 0 0 0 2.75-2.79zm8.6 1a2.46 2.46 0 0 0 2.58 2.08 2.3 2.3 0 0 0 2-1h3.37a5.79 5.79 0 1 1-5.42-7.91 5.78 5.78 0 0 1 5.79 6 4.94 4.94 0 0 1-.07.87zm5-2.2a2.6 2.6 0 0 0-5 0zm5.9 6.68v-11h3.08v1.17a2.7 2.7 0 0 1 2.75-1.54v3.3c-2 0-2.6.75-2.6 2v6.05z"/><use xlink:href="#I" x="-49.32" y="146.22"/><path d="M741.5 397.48V389h-1.62v-2.5h1.62v-3.66h3.28v3.66h1.6v2.5h-1.6v8.5zm14.16 0v-1.16a2.78 2.78 0 0 1-2.83 1.52c-2.32 0-4.24-1.4-4.24-4.5v-6.83h3.3v6.15c0 1.45.5 2.12 1.76 2.12s1.88-.83 1.88-2.17v-6.1h3.28v11zm6.24 0v-11h3.1v1.17a2.69 2.69 0 0 1 2.75-1.54v3.3c-2 0-2.6.75-2.6 2v6.05zm10.54-4.48a2.46 2.46 0 0 0 2.57 2.08 2.31 2.31 0 0 0 2-1h3.36a5.79 5.79 0 1 1-1.243-6.144 5.79 5.79 0 0 1 1.623 4.234 4.14 4.14 0 0 1-.08.87zm5-2.2a2.59 2.59 0 0 0-5 0zm6.7 6.68V395h1.47v2.5z"/><use xlink:href="#E" y="271.55"/><path d="M664.44 435.42a7.77 7.77 0 0 1-6.75 4.1 7.57 7.57 0 1 1 6.69-11.14h-1.64a6.2 6.2 0 0 0-5.09-2.67 6.24 6.24 0 1 0 5.15 9.71zm10.93 3.84v-6c0-2.43-1.46-3.8-3.36-3.8-2.1 0-3.38 1.6-3.38 3.72v6.13h-1.4v-14.68h1.4v5.2a3.87 3.87 0 0 1 3.32-1.66c3 0 4.77 2.06 4.77 5.06v6zm14.4 0v-1.9a5 5 0 0 1-4.22 2.16 5.68 5.68 0 0 1 0-11.36 4.87 4.87 0 0 1 4.22 2.18v-1.9h1.38v10.82zm.08-5.4a4.39 4.39 0 0 0-4.35-4.45 4.43 4.43 0 1 0 4.35 4.45zm4.58 5.4v-10.82h1.4V430c.48-1.13 1.3-1.74 3-1.84v1.46a3.11 3.11 0 0 0-3.06 3.25v6.4zm16-1.98a4.66 4.66 0 0 1-4.17 2.24 5.63 5.63 0 0 1-5.66-5.62 5.71 5.71 0 0 1 5.66-5.74 4.83 4.83 0 0 1 4.17 2.22v-1.94h1.38v9.67a5 5 0 0 1-5.28 5.4 5.48 5.48 0 0 1-5.54-4h1.44a4.16 4.16 0 0 0 4 2.73 3.71 3.71 0 0 0 3.92-4zm.08-3.42a4.29 4.29 0 1 0-4.29 4.41 4.4 4.4 0 0 0 4.21-4.41zm5.56.5a4.3 4.3 0 0 0 4.19 3.92 4.09 4.09 0 0 0 3.88-2.55h1.47a5.65 5.65 0 1 1-5.35-7.56 5.79 5.79 0 0 1 5.68 5.78v.4zm8.45-1.24a4.26 4.26 0 0 0-8.45 0zm10.57 9.95v-14.62h1.34v1.9a5 5 0 0 1 4.22-2.18 5.68 5.68 0 0 1 0 11.36 5.05 5.05 0 0 1-4.22-2.16v5.7zm5.62-13.65a4.4 4.4 0 0 0-4.32 4.45 4.35 4.35 0 0 0 4.34 4.41 4.43 4.43 0 0 0 0-8.86zm8.72 9.85v-10.82h1.4V430c.47-1.13 1.3-1.74 3.05-1.84v1.46a3.12 3.12 0 0 0-3.07 3.25v6.4zm6.12-5.34a5.66 5.66 0 1 1 5.64 5.6 5.72 5.72 0 0 1-5.64-5.6zm9.93-.14a4.28 4.28 0 1 0-4.27 4.49 4.35 4.35 0 0 0 4.27-4.49zm4.26 9.28v-14.62h1.38v1.9a5 5 0 0 1 4.22-2.18 5.68 5.68 0 0 1 0 11.36 5.05 5.05 0 0 1-4.22-2.16v5.7zm5.62-13.65a4.4 4.4 0 0 0-4.32 4.45 4.35 4.35 0 0 0 4.34 4.41 4.43 4.43 0 0 0 0-8.86zm9.57 4.94a4.3 4.3 0 0 0 4.2 3.92 4.11 4.11 0 0 0 3.88-2.55h1.42a5.65 5.65 0 1 1-5.34-7.56 5.79 5.79 0 0 1 5.68 5.78v.4zm8.45-1.24a4.26 4.26 0 0 0-8.45 0zm4.3 6.15v-10.82h1.38V430c.48-1.13 1.3-1.74 3-1.84v1.46a3.12 3.12 0 0 0-3.07 3.25v6.4zm7.33 0v-14.64h1.4v14.64zm6.1 3.8l1.88-4.16-4.22-10.46h1.47l3.44 8.62 3.68-8.62h1.46l-6.27 14.62zm25.94-3.8v-1.9a5 5 0 0 1-4.22 2.16 5.68 5.68 0 0 1 0-11.36 4.88 4.88 0 0 1 4.22 2.18v-1.9h1.37v10.82zm.08-5.4a4.4 4.4 0 0 0-4.36-4.45 4.43 4.43 0 1 0 4.36 4.45zm12.75 5.4v-6c0-2.43-1.46-3.8-3.36-3.8-2.1 0-3.4 1.6-3.4 3.72v6.13h-1.38v-10.86h1.38v1.38a3.9 3.9 0 0 1 3.33-1.66c3 0 4.77 2.06 4.77 5.06v6zm14.28 0v-1.9a5 5 0 0 1-4.22 2.16 5.68 5.68 0 0 1 0-11.36 5.11 5.11 0 0 1 4.22 2.14v-5.68h1.38v14.64zm.08-5.4a4.38 4.38 0 0 0-4.36-4.45 4.43 4.43 0 1 0 4.36 4.45zm-206.82 26.3V459a3.57 3.57 0 0 1-3.29 1.54c-3.32 0-5.5-2.55-5.5-5.87s2.24-5.84 5.44-5.84a4.28 4.28 0 0 1 3.23 1.31v-4.6h3.28v14.64zm0-5.54a2.78 2.78 0 1 0-2.81 2.83 2.76 2.76 0 0 0 2.81-2.83zm11.64 5.87a5.84 5.84 0 1 1 5.92-5.87 5.74 5.74 0 0 1-5.92 5.87zm2.63-5.83a2.63 2.63 0 1 0-2.63 2.77 2.7 2.7 0 0 0 2.63-2.77zm12.83 5.5v-6.1c0-1.48-.52-2.17-1.73-2.17s-1.87.73-1.87 2.2v6.06h-3.3v-11h3.07v1.16a3.16 3.16 0 0 1 3-1.54c2 0 4.08 1.1 4.08 4.35v7zm5.9-8.1v-1.76h.56c.6 0 1-.25 1-.7v-.7h-1.56v-3.36h3.45v4.25a2.12 2.12 0 0 1-2 2.29zm7.66 8.1v-8.5h-1.62v-2.5h1.62v-3.66h3.33v3.66H703v2.5h-1.58v8.5zm19.4.33a5.84 5.84 0 1 1 5.92-5.87 5.74 5.74 0 0 1-5.92 5.87zm2.64-5.83a2.64 2.64 0 1 0-2.64 2.77 2.7 2.7 0 0 0 2.64-2.77zm8.62 5.5l-3.93-11h3.4l2.1 6.84 2.1-6.84h3.4l-4 11zm11.68-4.5a2.46 2.46 0 0 0 2.57 2.07 2.29 2.29 0 0 0 2-1h3.36a5.83 5.83 0 1 1 .38-1.91 4.21 4.21 0 0 1-.08.87zm5-2.22a2.46 2.46 0 0 0-2.52-1.88 2.44 2.44 0 0 0-2.47 1.88z"/><use xlink:href="#G" x="-83.73" y="250.65"/><path d="M766.94 453.4a2.53 2.53 0 0 0-2.46-1.54 2.8 2.8 0 0 0 .08 5.58 2.52 2.52 0 0 0 2.38-1.44h3.34a5.9 5.9 0 0 1-11.63-1.34 5.87 5.87 0 0 1 11.61-1.23zm12.5 6.75v-6c0-1.42-.55-2.23-1.76-2.23s-1.84.73-1.84 2.1v6.18h-3.28v-14.7h3.28v4.7a3.1 3.1 0 0 1 2.85-1.43c2.5 0 4 1.58 4 4.45v6.9zm14.7 0V459a3.53 3.53 0 0 1-3.23 1.56c-3.24 0-5.5-2.55-5.5-5.87a5.61 5.61 0 0 1 5.5-5.86 3.73 3.73 0 0 1 3.23 1.54v-1.16h3.3v11zm0-5.5a2.78 2.78 0 0 0-2.79-2.79 2.8 2.8 0 1 0 2.79 2.79z"/><use xlink:href="#G" x="-34.49" y="250.65"/><path d="M816.5 458.86a3.28 3.28 0 0 1-3.05 1.64 5.49 5.49 0 0 1-5.52-5.77 5.6 5.6 0 0 1 5.52-5.92 3.44 3.44 0 0 1 3 1.39v-1h3.28v9.8a7.54 7.54 0 0 1-.59 3.36c-.8 1.53-3 2.7-5.7 2.7-3.1 0-5.12-1.76-5.4-3.85h3.8a1.93 1.93 0 0 0 1.92 1.08c1.66 0 2.67-1.08 2.67-3.08zm0-4.15a2.66 2.66 0 1 0-2.69 2.73 2.6 2.6 0 0 0 2.71-2.73zm9.07.95a2.46 2.46 0 0 0 2.57 2.07 2.29 2.29 0 0 0 2-1h3.37a5.79 5.79 0 1 1-1.253-6.144 5.79 5.79 0 0 1 1.623 4.234 4.21 4.21 0 0 1-.08.87zm5-2.22a2.46 2.46 0 0 0-2.52-1.88 2.44 2.44 0 0 0-2.47 1.88zm6.76 6.7v-2.5h1.46v2.5zm-204.28 34.32a3.08 3.08 0 0 1 3-3.07 3.07 3.07 0 1 1-3 3.07zm26.08-7.2h1.46v9.28c0 3.7-2.16 5.62-5 5.62s-5-1.86-5-5.66v-9.24h1.46v9.32c0 2.95 1.6 4.26 3.52 4.26 1.7 0 3.53-1.05 3.53-4.24zm9.2 6.5a1.64 1.64 0 0 0-1.62-1.7 1.61 1.61 0 0 0-1.65 1.62c0 .8.56 1.35 1.88 1.78 2.64.87 3.15 1.92 3.15 3.47a3.11 3.11 0 0 1-3.4 3.24 3.23 3.23 0 0 1-3.33-3.38v-.08h1.4c0 1.44.77 2.2 1.94 2.2a1.8 1.8 0 0 0 2-1.93c0-1.05-.67-1.63-1.9-2.08-1.9-.7-3.1-1.23-3.1-3.1a3 3 0 0 1 3.09-3 2.89 2.89 0 0 1 2.94 2.95zm5.2 3.23a4.3 4.3 0 0 0 4.2 3.91 4.1 4.1 0 0 0 3.88-2.55h1.46a5.65 5.65 0 1 1-5.34-7.56 5.79 5.79 0 0 1 5.71 5.8v.42zm8.45-1.25a4.26 4.26 0 0 0-8.45 0zm20.15 6.17V500a5 5 0 0 1-4.22 2.16 5.68 5.68 0 1 1 0-11.36 5.14 5.14 0 0 1 4.22 2.14v-5.68h1.38v14.64zm.08-5.4a4.39 4.39 0 0 0-4.36-4.45 4.43 4.43 0 1 0 4.36 4.45zm5.6.48a4.3 4.3 0 0 0 4.19 3.91 4.09 4.09 0 0 0 3.88-2.55h1.46a5.63 5.63 0 0 1-11-1.86 5.72 5.72 0 0 1 5.62-5.7 5.79 5.79 0 0 1 5.68 5.78v.42zm8.45-1.25a4.33 4.33 0 0 0-4.26-3.7 4.28 4.28 0 0 0-4.19 3.7zm7.75 6.17l-4.56-10.82h1.5l3.82 9.1 3.88-9.1h1.48l-4.57 10.82zm8.33-12.14v-2.5h1.38v2.5zm0 12.14V491.1h1.38v10.82zm15.47-3.18a5.86 5.86 0 0 1-11.2-2.34 5.79 5.79 0 0 1 5.82-5.58 5.69 5.69 0 0 1 5.38 3.55h-1.52a4.27 4.27 0 0 0-3.82-2.3 4.43 4.43 0 0 0 0 8.86 4.17 4.17 0 0 0 3.82-2.19zm3.76-1.74a4.3 4.3 0 0 0 4.2 3.91 4.08 4.08 0 0 0 3.87-2.55h1.47a5.65 5.65 0 1 1-5.34-7.56 5.78 5.78 0 0 1 5.68 5.8v.42zm8.45-1.25a4.26 4.26 0 0 0-8.45 0zm8.43-1.98a1.64 1.64 0 0 0-1.62-1.7 1.61 1.61 0 0 0-1.64 1.62c0 .8.55 1.35 1.87 1.78 2.64.87 3.15 1.92 3.15 3.47a3.11 3.11 0 0 1-3.4 3.24 3.23 3.23 0 0 1-3.33-3.38v-.08h1.4c0 1.44.77 2.2 1.94 2.2a1.81 1.81 0 0 0 2-1.93c0-1.05-.68-1.63-1.92-2.08-1.9-.7-3.1-1.23-3.1-3.1a3 3 0 0 1 3.09-3 2.89 2.89 0 0 1 2.94 2.95zm19.86 8.15l-2.3-7.2-2.25 7.2h-1.57l-4.15-10.82h1.4l3.4 9.06 2.47-7.75h1.2l2.5 7.75 3.44-9.06h1.43l-4.14 10.82zm8-12.14v-2.5h1.4v2.5zm0 12.14V491.1h1.4v10.82zm6.02 0v-9.57h-2.28v-1.25h2.28v-3.82h1.38v3.82h2.6v1.25h-2.6v9.57zm14.3 0v-6c0-2.43-1.47-3.82-3.37-3.82-2.1 0-3.38 1.6-3.38 3.72v6.13h-1.4v-14.67h1.4v5.2a3.89 3.89 0 0 1 3.32-1.67c3 0 4.77 2.06 4.77 5.07v6zm-162.9 13c0-.63-.47-.83-1-.83s-.95.3-.95.73c0 .6.53.9 2 1.3 2.62.7 3.47 1.74 3.47 3.34 0 2.3-2 3.74-4.48 3.74s-4.23-1.4-4.47-3.64h3.27a1.13 1.13 0 0 0 1.24 1c.58 0 1.15-.34 1.15-.85s-.37-.93-2-1.45c-2.77-.85-3.5-1.94-3.5-3.22 0-2.18 2-3.58 4.26-3.58s4 1.3 4.2 3.46z"/><use xlink:href="#L"/><path d="M674.58 522.8v-8.5h-1.22v-2.5h1.22v-.45c0-1.82.72-3.5 4.22-3.5h.45v2.48h-.12c-.85 0-1.26.22-1.26 1.13v.33h1.38v2.5h-1.38v8.5zm9.44-4.48a2.46 2.46 0 0 0 2.57 2.08 2.31 2.31 0 0 0 2-1h3.37a5.87 5.87 0 0 1-5.37 3.8 5.86 5.86 0 1 1 5.74-5.72 4.14 4.14 0 0 1-.08.87zm5-2.2a2.6 2.6 0 0 0-5 0zm6.58 6.68v-8.5h-1.62v-2.5h1.62v-3.66h3.28v3.66h1.56v2.5h-1.6v8.5zm8.25 3.67l1.74-4.2-4.07-10.43h3.5l2.2 6.37 2.1-6.37h3.48l-5.5 14.64zm18-3.67v-8.5h-1.23v-2.5h1.23v-.45c0-1.82.7-3.5 4.2-3.5h.46v2.48h-.1c-.85 0-1.27.22-1.27 1.13v.33h1.4v2.5h-1.42v8.5z"/><use xlink:href="#K" x="72.13" y="125.32"/><use xlink:href="#L" x="82.44"/><path d="M757.7 522.8v-8.5h-1.63v-2.5h1.63v-3.66h3.28v3.66h1.58v2.5h-1.58v8.5zm14.14 0v-1.16a2.78 2.78 0 0 1-2.83 1.52c-2.32 0-4.24-1.4-4.24-4.5v-6.83h3.3V518c0 1.45.5 2.12 1.76 2.12s1.88-.83 1.88-2.17v-6.1H775v11zm6.26 0v-11h3.1v1.2a2.69 2.69 0 0 1 2.75-1.54v3.3c-2 0-2.6.75-2.6 2v6z"/><use xlink:href="#K" x="129.43" y="125.32"/><path d="M804.18 514.92c0-.63-.47-.83-1-.83s-1 .3-1 .73c0 .6.54.9 2.06 1.3 2.6.7 3.46 1.74 3.46 3.34 0 2.3-2 3.74-4.47 3.74s-4.23-1.4-4.47-3.64h3.26a1.14 1.14 0 0 0 1.25 1c.57 0 1.15-.34 1.15-.85s-.38-.93-2-1.45c-2.77-.85-3.5-1.94-3.5-3.22 0-2.18 2-3.58 4.25-3.58 2.38 0 4.06 1.3 4.22 3.46zm6.82 7.88v-2.5h1.43v2.5z"/></g><defs ><path id="B" d="M985.02 386.4l3.8-2.7h-3.8v-2.9h11.8v3.9a9.27 9.27 0 0 1-.4 2.8 4 4 0 0 1-3.7 2.2 3.51 3.51 0 0 1-3.7-2.9l-4 3.2v-3.6zm5.9-1.7c0 1.2.6 1.9 1.7 1.9s1.6-.8 1.6-1.9v-1.2h-3.3z"/><path id="C" d="M993.44 443.4c.8-.1 1.2-.5 1.2-1.1a.92.92 0 0 0-.9-1c-.7 0-1 .6-1.6 1.9-1.1 2.6-2.1 3.3-3.6 3.3-2.3 0-3.6-1.6-3.6-4.1s1.3-4.3 3.9-4.3h.3v3c-1 0-1.6.5-1.6 1.2a1.11 1.11 0 0 0 1.1 1.1c.9 0 1.4-1.3 1.8-2.4.8-1.9 1.8-2.8 3.3-2.8 2 0 3.5 2 3.5 4.1a4.65 4.65 0 0 1-.5 2.1 3.22 3.22 0 0 1-3.2 1.9v-2.9z"/><path id="D" d="M990.62 489.5a6.1 6.1 0 0 1 6.4 6.2 6.17 6.17 0 0 1-6.1 6.3 6.08 6.08 0 0 1-6.2-6.1c.1-3.3 2.4-6.4 5.9-6.4zm.3 9.5a3.21 3.21 0 0 0 2.99-4.878 3.21 3.21 0 0 0-2.99-1.522 3.21 3.21 0 0 0-2.99 4.878 3.21 3.21 0 0 0 2.99 1.522z"/><path id="E" d="M633.05 160.25a3.09 3.09 0 0 1 3-3.07 3.07 3.07 0 0 1 2.266 5.215 3.07 3.07 0 0 1-5.266-2.145z"/><path id="F" d="M678.14 209.5v-1.9a5 5 0 0 1-4.21 2.15 5.68 5.68 0 0 1-5.117-8.584 5.68 5.68 0 0 1 5.117-2.766 4.88 4.88 0 0 1 4.21 2.17v-1.9h1.4v10.83zm.08-5.4a4.4 4.4 0 0 0-4.35-4.45 4.44 4.44 0 0 0-3.265 7.543 4.44 4.44 0 0 0 7.615-3.093z"/><path id="G" d="M835.07 209.5v-11h3.1v1.16a2.7 2.7 0 0 1 2.75-1.54v3.3c-2 0-2.6.76-2.6 2v6.06z"/><path id="H" d="M633.05 243.8a3.08 3.08 0 0 1 3-3.06 3.07 3.07 0 0 1 2.262 5.218 3.07 3.07 0 0 1-5.262-2.158z"/><path id="I" d="M783.62 251.26v-1.18a3.53 3.53 0 0 1-3.23 1.56c-3.24 0-5.5-2.55-5.5-5.88a5.61 5.61 0 0 1 5.5-5.85 3.73 3.73 0 0 1 3.23 1.54v-1.17h3.28v11zm0-5.5a2.79 2.79 0 0 0-2.79-2.79 2.8 2.8 0 0 0-1.99 4.78 2.8 2.8 0 0 0 4.78-1.99z"/><path id="J" d="M718.8 329.9a4.3 4.3 0 0 0 4.2 3.92 4.09 4.09 0 0 0 3.87-2.55h1.47a5.65 5.65 0 0 1-10.932-2.543 5.65 5.65 0 0 1 5.592-5.017 5.78 5.78 0 0 1 5.67 5.77v.42zm8.45-1.25a4.26 4.26 0 0 0-8.45 0z"/><path id="K" d="M659.17 393a2.45 2.45 0 0 0 2.57 2.08 2.33 2.33 0 0 0 2-1h3.36a5.79 5.79 0 0 1-11.135-2.82 5.79 5.79 0 0 1 9.892-3.324 5.79 5.79 0 0 1 1.623 4.234 4.14 4.14 0 0 1-.08.87zm5-2.2a2.59 2.59 0 0 0-5 0z"/><path id="L" d="M668 522.8v-1.18a3.51 3.51 0 0 1-3.22 1.56c-3.25 0-5.5-2.55-5.5-5.88a5.61 5.61 0 0 1 5.5-5.85 3.71 3.71 0 0 1 3.22 1.54v-1.17h3.3v11zm0-5.5a2.78 2.78 0 0 0-2.79-2.79 2.8 2.8 0 0 0-1.99 4.78 2.8 2.8 0 0 0 4.78-1.99z"/></defs></svg>