<svg xmlns="http://www.w3.org/2000/svg" xmlns:xlink="http://www.w3.org/1999/xlink" viewBox="0 0 1000.89 563"><style><![CDATA[.Q{fill:#fff}.R{fill:#1fc81b}.S{fill:#cee9f3}.T{fill:#ffd836}.U{stroke-miterlimit:10}.V{stroke-width:5}.W{stroke-linecap:round}]]></style><defs><clipPath id="A" transform="translate(.44)"><path d="M785.6 436s8.9 2.52 15.56 2.52a73.74 73.74 0 0 0 12.85-1.26 78.63 78.63 0 0 0 9.48 11.18 16.69 16.69 0 0 0 10.22 4.15s7.85 11.26 19.26 10.82 16-11.85 16-11.85 2.07 1 6.8-3.12 2.52-4.6 2.52-4.6 2.37 1.63 6.37 0 5.63-6.8 5.63-6.8 13.34-4.9 17-12 7.4-69.93-12.9-73c0 0 19.1-14.07 19.1-23s-7.26-18.23-7.26-18.23 2.37-20.6-12.6-34.07-33.63-10.52-33.63-10.52-9.92-23.7-34.22-23.26S800 261 800 261s-11.55-1.48-17.18.6-9.2 9.33-9.2 9.33-.6-1-2.66-1-2.08 1.48-2.08 1.48-12.44-15.1-34.22-9.34-20.3 42.08-20.3 42.08l-6.07 3.7a34.18 34.18 0 0 0-4.15 3.56s-13.92-1.93-19.7 14.07 2.52 23.85 2.52 23.85-7.86 21.2 13.48 26.37 25.92-17 25.92-17a16 16 0 0 0 8.3 2.07 43.42 43.42 0 0 0 11.33-2.09A40 40 0 0 0 767.81 369c13.93 2.07 30.17 3.55 30.17 3.55s-1 2.52 3.6 5.63l6.67 4.6s-9.48-2.8-13-.88-6.66 4-6.66 4-31.7-10.82-55-2.52S716 403.1 716 403.1s-8.74-6.67-16.6 0-5.18 14.37-5.18 14.37a9.79 9.79 0 0 0-2.67 3.26c-1.48 2.52-2.52 4.6-2.52 4.6s-2.22-.3-4.74-.44a7 7 0 0 0-3.56.44s-5.77-6.22-11.4-3.1S664.7 433 664.7 433s-13.63 5.48-11.55 20.6 7.26 22.4 7.26 22.4-1.48 6.07 5.18 10.8 5 1.5 9.78 4.15 3.1 2.82 5.78 4.3 4.15 0 4.15 0 3.1 6.8 9.33 10.37 10.22 2.37 16 6.07 3.85 3.7 3.26 7.86-4.9 9.44-2.22 18.22c0 0 .6-5 4.74-11.85s8.74-8.9 6.22-16.15-6.67-5.2-6.67-5.2l-2.07-2.07s5-7.85-1.63-9.34-5.63 4.15-5.63 4.15a24.66 24.66 0 0 1-8.89-5.92c-3.55-4-6.07-8.9-9.78-9.34 0 0-4.3-10.5-6.8-13s-5.63-8.74-5.2-12.9l6.23 3.55s-3.26 5.63 7.7 18.08 5.78 4 12 9.33l4.74 4.15s1.48-1-3.7-5.63-5.78-10.07-6.23-15.1a23.82 23.82 0 0 1 1.49-9.78s19.1 16.6 30.07 11.4-3.56-16-3.56-16l12.45 5.63a19.88 19.88 0 0 0 12.44 15.55c11.4 4.6 19.26-5.77 19.26-5.77l6.08.6s.6 11.55 10.37 12 11-4.74 11-4.74 3.1 1 5.63-3.1 2.07-6.23 2.07-6.23 5.2-2.07 5.2-6.22-4.15-7.26-4.15-7.26a15.14 15.14 0 0 0-2.67-11.7c-4.14-5.63-7.26-2.67-12.44-5.2S785.6 436 785.6 436z" class="R"/></clipPath><clipPath id="B" transform="translate(.44)"><path d="M419.67 530.6l67.77 2.45c17.77 0 66.67-2.45 66.67-2.45s5.22-.9 15.1-8.05 12.84-9.45 12.45-10.84-2.45.56-4.06-2.55 4-12.17 7.28-17.4 10.94-17.72 10.33-18.28-10.28 6.22-11.28 5.06 7.06-14.6 6.76-18.7-1.63-2.3-2.37-3.33a8.06 8.06 0 0 1-.74-5.85c.52-2.6 2.22-6 1.48-6.23s-3.26.23-5.63 4.37-7.25 12.75-10.37 16.37l-12.22 14.3a130.17 130.17 0 0 1-13 12.89s3.18-19.7 1.85-20.44-15.85 16.37-22.8 22.5l-16.08 14.23s0-4.52-1.55-5.5-3.9.25-6.24 3.75-4.34 7.94-7.62 7.77-10.14-10.85-16.6-17.07-18.66-19.33-19.92-18.9 1.26 4.15-.52 5.4-13.85-11.56-28.82-27.7-21.48-23.7-23.4-21.77 4 7.7 2.07 8.74-12.9-8.3-15-9-3-2.37-4.6-1.33 3.4 9.18 3 10.8-2.58-1.33-3.3-.9-.7 8.15 4.92 25.34 6.75 28.66 5.23 29.6-10.37-9-13.48-11.56-5-3-5.63-2.52 7.26 12.45 17 23.85 16.04 18.37 23.3 22.9z" class="S"/></clipPath><path id="C" d="M985.02 386.4l3.8-2.7h-3.8v-2.9h11.8v3.9a9.27 9.27 0 0 1-.4 2.8 4 4 0 0 1-3.7 2.2 3.51 3.51 0 0 1-3.7-2.9l-4 3.2v-3.6zm5.9-1.7c0 1.2.6 1.9 1.7 1.9s1.6-.8 1.6-1.9v-1.2h-3.3z"/><path id="D" d="M993.44 443.4c.8-.1 1.2-.5 1.2-1.1a.92.92 0 0 0-.9-1c-.7 0-1 .6-1.6 1.9-1.1 2.6-2.1 3.3-3.6 3.3-2.3 0-3.6-1.6-3.6-4.1s1.3-4.3 3.9-4.3h.3v3c-1 0-1.6.5-1.6 1.2a1.11 1.11 0 0 0 1.1 1.1c.9 0 1.4-1.3 1.8-2.4.8-1.9 1.8-2.8 3.3-2.8 2 0 3.5 2 3.5 4.1a4.65 4.65 0 0 1-.5 2.1 3.22 3.22 0 0 1-3.2 1.9v-2.9z"/><path id="E" d="M990.62 489.5a6.1 6.1 0 0 1 6.4 6.2 6.17 6.17 0 0 1-6.1 6.3 6.08 6.08 0 0 1-6.2-6.1c.1-3.3 2.4-6.4 5.9-6.4zm.3 9.5a3.21 3.21 0 0 0 2.99-4.878 3.21 3.21 0 0 0-2.99-1.522 3.21 3.21 0 0 0-2.99 4.878 3.21 3.21 0 0 0 2.99 1.522z"/><path id="F" d="M214.84 174.72a2.58 2.58 0 0 0 2.7 2.18 2.41 2.41 0 0 0 2.1-1.08h3.53a6.08 6.08 0 0 1-11.691-2.967 6.08 6.08 0 0 1 10.387-3.489 6.08 6.08 0 0 1 1.705 4.446 3.9 3.9 0 0 1-.09.91zm5.28-2.33a2.58 2.58 0 0 0-2.64-2 2.56 2.56 0 0 0-2.59 2z"/><path id="G" d="M444.98 202.07a6.13 6.13 0 0 1 .08-12.259 6.13 6.13 0 0 1 6.13 6.089 6 6 0 0 1-6.21 6.17zm2.76-6.13a2.77 2.77 0 0 0-5.536.191 2.77 2.77 0 0 0 2.776 2.719 2.84 2.84 0 0 0 2.76-2.91z"/><path id="H" d="M690.96 176.33a4.51 4.51 0 0 0 4.4 4.11 4.3 4.3 0 0 0 4.07-2.68h1.54a5.93 5.93 0 0 1-11.476-2.66 5.93 5.93 0 0 1 5.866-5.27 6.07 6.07 0 0 1 6 6.06v.44zm8.87-1.3a4.54 4.54 0 0 0-4.47-3.88 4.49 4.49 0 0 0-4.4 3.88z"/><path id="I" d="M712 203.4V197c0-1.56-.54-2.28-1.8-2.28s-2 .76-2 2.32v6.36h-3.45v-11.52h3.22v1.23a3.31 3.31 0 0 1 3.14-1.62c2.08 0 4.28 1.16 4.28 4.56v7.36z"/></defs><path d="M0 0h1000.9v563H0z" fill="#658cb7"/><g fill="#bad1e8"><use xlink:href="#C"/><path d="M996.82 397.2v3h-7.3a5.3 5.3 0 0 1-2.8-.6 4.26 4.26 0 0 1-2-3.9 4.87 4.87 0 0 1 .6-2.5c.8-1.4 1.9-2.1 4.2-2.1h7.3v3h-7.2c-1.5 0-2.2.5-2.2 1.5s.5 1.5 2.2 1.5h7.2zm-11.8 6.5h9.2v-2.3h2.7v7.7h-2.7v-2.3h-9.2zm0 13.4h4.7v-3.9h-4.7v-3h11.8v3h-4.38v3.9h4.5v3h-11.8v-3zm0 5.3h11.8v3h-9.2v3.5h-2.7v-6.5zm0 7.7h11.8v6.6h-2.7V433h-1.8v3.6h-2.7V433h-2v3.7h-2.7v-6.6z"/><use xlink:href="#D"/><use xlink:href="#D" y="9.5"/><path d="M985.02 460.4l11.8-4v3.1l-8.3 2.4 8.3 2.4v3.1l-11.8-4zm0 14.9l1.7-.6v-4.1l-1.7-.6v-3.2l11.8 4.8v2.4l-11.8 4.7zm8.1-2.6l-4-1.3v2.5zm-8.1 7h11.8v4a8.76 8.76 0 0 1-.4 2.8 3.86 3.86 0 0 1-3.6 2.1c-2.2 0-4.1-1.2-4.1-4.6v-1.4h-3.7zm6.4 4.2c0 1.2.4 1.8 1.4 1.8s1.4-.6 1.4-1.9v-1.2h-2.78z"/><use xlink:href="#E"/><use xlink:href="#C" y="123"/><path d="M985.02 514.3h2.7v2.8h-2.7zm7.3 13a3.09 3.09 0 0 0 2.1-2.9 3.51 3.51 0 0 0-7 0 3.06 3.06 0 0 0 2 2.8v3.2a6.21 6.21 0 0 1-2.9-10.4 5.88 5.88 0 0 1 4.5-1.8 6.17 6.17 0 0 1 6 6.1 5.65 5.65 0 0 1-1.5 4.1 5.53 5.53 0 0 1-3.3 2v-3.1z"/><use xlink:href="#E" y="41.9"/><path d="M985.02 555.4l8.9.1-8.9-2.5v-2l9-2.6-9 .1v-2.8h11.8v3.9l-7.8 2.4 7.8 2.3v3.9h-11.8z"/></g><path d="M786.03 436s8.9 2.52 15.56 2.52a73.74 73.74 0 0 0 12.85-1.26 78.63 78.63 0 0 0 9.48 11.18 16.69 16.69 0 0 0 10.22 4.15s7.85 11.26 19.26 10.82 16-11.85 16-11.85 2.07 1 6.8-3.12 2.52-4.6 2.52-4.6 2.37 1.63 6.37 0 5.63-6.8 5.63-6.8 13.34-4.9 17-12 7.4-69.93-12.9-73c0 0 19.1-14.07 19.1-23s-7.26-18.23-7.26-18.23 2.37-20.6-12.6-34.07-33.63-10.52-33.63-10.52-9.92-23.7-34.22-23.26-25.8 18.04-25.8 18.04-11.55-1.48-17.18.6-9.2 9.33-9.2 9.33-.6-1-2.66-1-2.08 1.48-2.08 1.48-12.44-15.1-34.22-9.34-20.3 42.08-20.3 42.08l-6.07 3.7a34.18 34.18 0 0 0-4.15 3.56c0 0-13.92-1.93-19.7 14.07s2.52 23.85 2.52 23.85-7.86 21.2 13.48 26.37 25.92-17 25.92-17a16 16 0 0 0 8.3 2.07 43.42 43.42 0 0 0 11.33-2.09A40 40 0 0 0 768.25 369c13.93 2.07 30.17 3.55 30.17 3.55s-1 2.52 3.6 5.63l6.67 4.6s-9.48-2.8-13-.88-6.66 4-6.66 4-31.7-10.82-55-2.52-17.6 19.74-17.6 19.74-8.74-6.67-16.6 0-5.18 14.37-5.18 14.37a9.79 9.79 0 0 0-2.67 3.26c-1.48 2.52-2.52 4.6-2.52 4.6s-2.22-.3-4.74-.44a7 7 0 0 0-3.56.44c0 0-5.77-6.22-11.4-3.1S665.14 433 665.14 433s-13.63 5.48-11.55 20.6 7.26 22.4 7.26 22.4-1.48 6.07 5.18 10.8 5 1.5 9.78 4.15 3.1 2.82 5.78 4.3 4.15 0 4.15 0 3.1 6.8 9.33 10.37 10.22 2.37 16 6.07 3.85 3.7 3.26 7.86-4.9 9.44-2.22 18.22c0 0 .6-5 4.74-11.85s8.74-8.9 6.22-16.15-6.67-5.2-6.67-5.2l-2.07-2.07s5-7.85-1.63-9.34-5.63 4.15-5.63 4.15a24.66 24.66 0 0 1-8.89-5.92c-3.55-4-6.07-8.9-9.78-9.34 0 0-4.3-10.5-6.8-13s-5.63-8.74-5.2-12.9l6.23 3.55s-3.26 5.63 7.7 18.08 5.78 4 12 9.33l4.74 4.15s1.48-1-3.7-5.63-5.78-10.07-6.23-15.1a23.82 23.82 0 0 1 1.49-9.78c0 0 19.1 16.6 30.07 11.4s-3.56-16-3.56-16l12.45 5.63a19.88 19.88 0 0 0 12.44 15.55c11.4 4.6 19.26-5.77 19.26-5.77l6.08.6s.6 11.55 10.37 12 11-4.74 11-4.74 3.1 1 5.63-3.1 2.07-6.23 2.07-6.23 5.2-2.07 5.2-6.22-4.15-7.26-4.15-7.26a15.14 15.14 0 0 0-2.67-11.7c-4.14-5.63-7.26-2.67-12.44-5.2s-4.34-3.73-4.34-3.73z" class="R"/><g clip-path="url(#A)" fill="#0f910c"><path d="M847.8 328.15c0 3.55 2.52 5.78 2.15 8.74a10.66 10.66 0 0 1-1.26 4.29s-6.67 7.12-8.74 7.12-6.22-6.08-10.82-4.15-3.7 9.92-3.7 9.92l3.7-1.63-.14 5.78-1.5 1V363l-3.55.9v-5.18l-2.67-.45v6.22l-4.15.6v-6.82l-2.07-.44V365h-4.15v-7.4h-2.48l-.15 7.4h-4v-7.26h-2.66V365h-4.2v-6.82h-2.07v6.22l-4-1v-4.15l-1.63-1.2v-5.63l4 1.5s-1-8.3-4.6-10.37-8.9 4.6-11 4.6-1.7-.83-2.07-1.48a25.55 25.55 0 0 0-4.6-4.15c-.9-.48-2.07-.6-2.66-5.2s1.18-4.74 2.07-7.7.6-16.74-1.48-20.3-.9-3.4-.9-14.22 8.3-31.1 40.3-31.1 40.44 15.56 41 31.56-2.5 18.07-2.5 18.07c-1.42 3.05.5 10.97.5 14.53zm-10.93-17c-6.22-4.22-21.55 3.78-21.55 8.9s10.1 9 15.9 9 9.55-4.34 8.9-10.9-3.23-7-3.23-7zm-34.1 28.44c0 2.67.78 5.1 2.78 5.1s2.33-2 3.9-2 2.33 1.56 4.67 1.56c.86 0 1.9-.78 1.9-4.22s-3.14-12.94-6.56-12.56c-3 .33-6.67 9.45-6.67 12.1zm-24-21.44c-.67 6.55 3.1 10.9 8.9 10.9s15.88-3.9 15.88-9-15.33-13.1-21.55-8.9c-.03 0-2.55.44-3.25 7zm42.83 54.33s8-4.72 10.1-8.55 1.4-12.93 3.1-13.93 2.72-1.94 3.5-1.4-.56 4.1-.4 8.17.9 8.55-.22 10.5-6.28 6.28-8.56 8.78-2.72 3.83-5.22 6.55a8 8 0 0 1-6.61 3c-1.95 0-4.72-.6-7.6-.6s-4.5.6-7.4.6-8.33-2-9.5-6.06-9.72-8.9-11.28-11.83-1-4.56-.78-9.78.4-6.22 0-7.4-.34-1.17-.28-1.55 3.23-.17 3.78 1.55.23 7.78 1.95 12.06 11.05 10.4 11.05 10.4v-4.67h4.5v5.44h2.34v-5.22h4.05V374h2.56v-5.4h4.05v5.22h2.34v-5.63h4.5zm49.95 23.9l11.68-11.83 1.17-4.1s-9.33-.5-9.55-3.63c-.2-2.67-.82-9.33-6.52-9.33s-9.3 1.52-9.9 4.52c-.74 4.1-.23 3.85-3.84 8-.4.46-15 8-46.3 23.94l-42.95-22.24c-3.62-4.18-3.1-3.94-3.84-8-.54-3-4.13-4.52-9.85-4.52s-6.33 6.66-6.52 9.33c-.22 3.1-8.52.63-8.52.63s-1.25-.3.78 6.4 3.1 9.43 7.6 10.33 4.2-.05 6.27-1.1 2.66-1.48 7.26 0c4.3 1.4 6.4.2 37.62 15.27-25.35 12.35-36.86 15.68-39.5 16.2-3 .6-3.7.9-6.67-2.08s-7.85 2.08-10.37 5-2.66 7.4-1.63 9.34 3.7 2.66 6.23 4.14 1 2.23 1 5.2 1.63 4.3 3.7 5.78 2.52 0 4.6-1 2.07-1 3.7-1 1-1 3.56-2.07 1-4.74 2.07-7.26c1-2.32 13.74-10.43 45.37-26.27 34.14 17 47.8 25.58 48.8 28s-.44 6.22 2.08 7.26 1.92 2.07 3.55 2.07 1.63 0 3.7 1 2.52 2.52 4.6 1 3.7-2.8 3.7-5.77-1.48-3.7 1-5.2 5.2-2.22 6.22-4.15.9-6.37-1.63-9.33-7.4-8-10.37-5-3.7 2.67-6.66 2.08c-2.75-.55-15.2-4.17-43-17.93 34.6-16.88 36.67-15.53 41.12-17s5.2-1 7.26 0-.6 2.42 2.96 3.3z"/></g><path d="M688.55 403.56s-3.63.8-4.67 4.14 0 7.26 3.12 7.26 3.85-.52 4.37-2.6-.37-4.67.6-6.22-2.03-3.15-3.4-2.6zm239.22-74.9c-2.1 3.66-3.33 3.28-5.05 3.28s-6-3.5-4.28-7.56-.1-2.6.22-5.67 2.5-3.66 5.22-2.9a6.58 6.58 0 0 1 5.06 6.06 14.38 14.38 0 0 1-1.17 6.78zm-13.74 8.5s2.24-3.67 5-2.9 2.66 2.55 1.94 4.67-2.7 4.77-4.44 4.05-4.57-1.22-2.5-5.83zM817.1 454s1-.73 3.5 1 2.05 5.27-.45 5.83a4.92 4.92 0 0 1-5.61-3.49c-.4-2.08 2.56-3.34 2.56-3.34z" class="R"/><path d="M538.5 499.02l-44.67 17.55-77.08-196.18 3.45-3.17-1.65-4.18-4.67.06-3.6-9.15 44.67-17.56 3.58 9.1-3.3 3.13 1.52 3.87 4.6.17 77.14 196.36z" fill="#f8971d"/><path d="M500.66 513.9l-6.82 2.68-77.08-196.18 3.4-3.1 2.82-1.12 77.7 197.73zm-82.093-200.866l36.68-14.412 1.653 4.207-36.68 14.412z" fill="#cf7a00"/><circle cx="445.49" cy="322.71" r="8.56" class="Q"/><path d="M439.576 323.617l10.964-4.308.922 2.345-10.964 4.308z"/><path d="M444.65 316.93l4.158 10.582-2.383.936-4.158-10.582z"/><circle cx="511.78" cy="491.13" r="8.56" class="Q"/><path d="M505.874 492.036l10.964-4.308.922 2.345-10.964 4.308z"/><path d="M539.8 297.74l41.85 23.5-103.15 183.8-4.64-.67-2.2 3.93 3 3.57-4.8 8.58-41.86-23.5 4.8-8.52 4.5.58 2.03-3.62-2.77-3.68L539.8 297.74z" fill="#f8971d"/><path d="M575.26 317.64l6.4 3.6-103.15 183.8-4.56-.66-2.65-1.48 103.97-185.26zM471.625 508.3l-34.368-19.287 2.212-3.942 34.368 19.287z" fill="#cf7a00"/><circle cx="462.12" cy="481.32" r="8.56" class="Q"/><path d="M466.537 485.332l-10.273-5.765 1.233-2.198 10.273 5.765z"/><path d="M458.17 485.602l5.564-9.915 2.232 1.253-5.564 9.915z"/><circle cx="550.61" cy="323.43" r="8.56" class="Q"/><path d="M555.024 327.446l-10.273-5.765 1.233-2.198 10.273 5.765z"/><path d="M420.1 530.6l67.77 2.45c17.77 0 66.67-2.45 66.67-2.45s5.22-.9 15.1-8.05 12.84-9.45 12.45-10.84-2.45.56-4.06-2.55 4-12.17 7.28-17.4 10.94-17.72 10.33-18.28-10.28 6.22-11.28 5.06 7.06-14.6 6.76-18.7-1.63-2.3-2.37-3.33a8.06 8.06 0 0 1-.74-5.85c.52-2.6 2.22-6 1.48-6.23s-3.26.23-5.63 4.37-7.25 12.75-10.37 16.37l-12.22 14.3a130.17 130.17 0 0 1-13 12.89c0 0 3.18-19.7 1.85-20.44s-15.85 16.37-22.8 22.5l-16.08 14.23s0-4.52-1.55-5.5-3.9.25-6.24 3.75-4.34 7.94-7.62 7.77-10.14-10.85-16.6-17.07-18.66-19.33-19.92-18.9 1.26 4.15-.52 5.4-13.85-11.56-28.82-27.7-21.48-23.7-23.4-21.77 4 7.7 2.07 8.74-12.9-8.3-15-9-3-2.37-4.6-1.33 3.4 9.18 3 10.8-2.58-1.33-3.3-.9-.7 8.15 4.92 25.34 6.75 28.66 5.23 29.6-10.37-9-13.48-11.56-5-3-5.63-2.52 7.26 12.45 17 23.85 16.04 18.37 23.3 22.9z" class="S"/><g clip-path="url(#B)"><path d="M413.05 468.26s10.4 7.72 15 13.17a61.48 61.48 0 0 1 10.45 17.5s-9.45-7.17-11.23-6.78-1.77 2-2.16 2.16-6.06-1.44-8.17-5.1-3.9-20.94-3.9-20.94zm-2.87-28.93s.37 9.34-.6 9.56-4.67-5.26-7.26-7.56-4.67-4-5.93-3 .74 5.4-.52 7.48-.22 1.55-1.25 2.07-1.26-.8-1.56 0 2.8 11.93 3.33 17.63 3.34 17.93 3.1 18.67 1.9-2.08 2.14-5.2-5.84-21.55-5.54-24.9.3-2.66 1.33-3.4-.44-3.86 1.33-4.37 4.6 3.4 8 5.18 5.08 2.74 6.28 2.3.4-5.7-.35-8-2.52-6.48-2.52-6.48zm50.6 42.82c.78-.45 12 8.9 15.56 14.33a60.14 60.14 0 0 0 5 7s-7.33-4-8.9-5.9-4.56-8.1-9.67-7.33-3.55 3.55-5.1 3.55-8.1-5.66-13.44-10.22-10.1-10.55-11.22-14a14 14 0 0 1-.78-5.78 90.64 90.64 0 0 0 15.55 17.12c9.34 7.77 10.34 7.77 12 6.22s1-5 1-5zm58.45 24.95s9-10.1 12.66-13.22 13.28-11.67 14.4-10.5 0 12.78-1.16 14.17-1.6 1.72-3.73 1.94-.94-3.5-2.5-3.67-4.66 1.9-9.55 5.62a44.33 44.33 0 0 1-10.11 5.66zm66.88-46s-6.23 12.67-7.26 15.78-1 6-.52 6.37 3.92-2.9 1.85 6.44-2.2 7.78-2.2 7.78 3.23-5.4 6.34-9.55 7.4-7.6 6.44-8.6-4.6 2.88-7 1.33 2.34-19.56 2.34-19.56z" class="Q"/><path d="M413.66 519c5.55.3 13.85-2.52 13.85-2.52a19.07 19.07 0 0 0 10.37 3.12c5.78-.15 5.2-2.23 7.26-3.7s13.63 3.85 17.2 5.78 16.15 7.26 25.92 7.7 41.93-7.4 48.75-12 7.1-4.74 8.74 0 .14 10.23 2.66 9.34a71.79 71.79 0 0 0 19.26-10.23c8.15-6.22 13.34-9.35 13.34-9.35s19.85 1.65 6.37 14.54S484.1 543.9 484.1 543.9l-81.48-10.37-.9-18.67s3.7 3.67 11.92 4.15z" fill="#91dbf3"/></g><g class="S"><ellipse cx="562.96" cy="440.4" rx="4.96" ry="2.89" transform="matrix(.5 -.866025 .866025 .5 -99.48 707.74)"/><ellipse cx="622.58" cy="472.58" rx="4.74" ry="3.33" transform="matrix(.421194 -.906971 .906971 .421194 -67.86 838.13)"/><ellipse cx="399.98" cy="412.2" rx="2.94" ry="5.44" transform="matrix(.975227 -.221208 .221208 .975227 -80.83 98.7)"/><ellipse cx="358.22" cy="410.15" rx="3.89" ry="4.44" transform="matrix(.931374 -.364064 .364064 .931374 -124.31 158.59)"/><ellipse cx="364.56" cy="476.95" rx="2.78" ry="5.24" transform="matrix(.909454 -.415805 .415805 .909454 -164.84 194.73)"/><path d="M436.74 531.36s23.6 5 56.92 4.12a553.13 553.13 0 0 0 59.78-4.83zm-17.08-3s-8.44.55-6.22 2.28 6.22 1.87 6.22 1.87-5.15-1.6-5.15-2.6 5.15-1.56 5.15-1.56zm-2.3-.37s-9.3-.26-16.3 1.56c0 0 11.37-3.6 16.3-3s0 1.44 0 1.44zm-18 4.52a129.38 129.38 0 0 0 28.62 4.59c14.93.52 29.45 0 29.45 0s-22.8-.75-30.8-1.52-27.26-3.07-27.26-3.07zm66.96 4.82s39 2.22 49.78 1.62 45.63-4 45.63-4l-47.7 2.04c-12.4.34-47.7.34-47.7.34zm107.4-3.12s12.3-.3 8.74-3.78-19.7-4.5-19.7-4.5l-6.3 3s22.44-.2 22.9 1.76-5.63 3.53-5.63 3.53z"/></g><path d="M157 281.5a6.4 6.4 0 0 0 5.63-5.35 3.53 3.53 0 0 1-1.93-2.08c-.45-1.48.9-3.1.9-3.1s-8.3.6-13.48 3.1-7.7 11.4-16.6 12.45-17.63-6.22-22.07-6.22a16.87 16.87 0 0 0-6.92 1.2s-3.56-3.13-10.82-3.13-15.6 8.9-15.6 16.63 3.7 16 3.7 16c1.63-1 3.56-5.63 7.26-11.85s6.22-7.26 9.18-8.3 5.2 0 5.2 2.08-7.7 2.07-9.78 6.67-2.07 9.92-4.6 17.62a45.85 45.85 0 0 1-6.82 13.08 115.98 115.98 0 0 0 1.49 7.37c.9 3.7 1.18 6.67 12.44 6.22s14.07-7.85 33.3-7.26 6.25 39.1 6.7 42.22-5.78 10.37-11 13.5-10.22 9.92-10.22 9.92.88 1 0 3.56-2.23 2.66-2.23 2.66 1.63 1.5 8.3 4 4.15 9.2 4.15 9.2c1 1.48 9.33 3.1 12.44 3.1s4.6-2.07.45-1.48-6.67-.6-6.23-2.22-.44-1.48 5.78-1.48a7.13 7.13 0 0 1 7.26 8.88c-1 3.12-15.43 1-15.43 1-.6 3.7-20.12 9.2-28.42-3.7s3.1-20.3 3.1-20.3-.44-1.63 1.63-5.78 7.85-10.37 11.4-13.48 4.74-5.78 5.18-10.8-1.63-6.37-3.7-8.9-7.7-5.2-10.37-5.2-3.1 7.26-7.1 11.85-13.6 5.82-20.74 5.2A22.24 22.24 0 0 1 60.25 365c-3.55-8.15.45-23.4.45-23.4s-2.07-.15-4.6-4.15-1.67-6.77-1.67-6.77-1 2.07-3 2.07a8.37 8.37 0 0 1-3.7-1c-8.3 1-16.6-2.66-17.63-11.4s4.74-11.4 4.74-11.4.45-8.3 1.93-11.4 5.33-9.33 13-10.8 13.93 1.48 13.5 4.6-5.2 2.07-8.74 3.55-5.34 1.63-7.86 8.3 4.15 17.2 4.15 17.2l3.1-1.63s-3.1-9.34 2.08-18.08 11.7-9.18 11.7-9.18a14.24 14.24 0 0 1-4-7.71c-1-5.18 0-14.52 9.2-19.1s18.22 1.93 18.22 1.93a26.66 26.66 0 0 1 8.89-6.22c5.18-2.08 7.1-1 7.1-1a17.89 17.89 0 0 1 4.74-4.59c3.1-2.08 4.74.44 7.85-5.78s4.6-9.33 15-15.56 13-6.22 20.74-6.66 16 9.92 14.52 10.8-1.48.15-8.74-4.15-13.48-1.92-13.48-1.92a15.8 15.8 0 0 1 4 1 12.08 12.08 0 0 1 2.15 2.52s1.55-.44 4.67 1a16.13 16.13 0 0 1 5.18 4.15 9.28 9.28 0 0 1 6.22 1.63 22.55 22.55 0 0 1 4.6 5.18s13-1.63 14.07 15.56-19.7 25.68-19.7 25.68-17.13-5.84-11.94-6.7zm-38.23 81.9c4.37 4.07 6 11.7 6 11.7 1.34-2.07 5.4-9.63-1-17.1s-15.56-.74-15.56-.74a33 33 0 0 1 10.56 6.15zM76.25 351c.23 1.78 1.78 2.15 1.56 4.6a4.28 4.28 0 0 0 1.85 4.28 11.66 11.66 0 0 1 3.34 4.37c1.33 2.6 3.63 4.15 7.48 3.93s4.66-2.6 4.66-2.6c-1.55 0-3-2.15-3-2.15 5.77.74 6.44-2.82 7.18-5.4s3.93-5.4 3.93-5.4-9.34.74-16.3-.8-11-8.82-11-8.82.08 6.18.3 8zm62.4-91.15a28.33 28.33 0 0 1 7 .78s2.67-1.9 8.3-3.1 16.6 0 16.6 0 .67-1.1-3.22-4.22a19 19 0 0 0-13.37-4.67c-6 0-11.08 5.78-11.08 5.78s-1.55-.33-5.44 2-5 5-5 5a15.51 15.51 0 0 1 6.22-1.6zm-30.9 30.85c2.43-.27 6.37 0 4.4 2.08s-5.37 2.18-6.5 1-2.2-2.6 2.1-3.08zm-5.2 33.3a18.69 18.69 0 0 0 3.93 3.85 11.39 11.39 0 0 0 4.07 1.26 5.5 5.5 0 0 1-5.63 0 5.3 5.3 0 0 1-2.37-5.11zm-52.6 22s-8.6 2.94-8.78 9.53 3.28 8 5.22 6.8 1.45-3.06.84-6S49.94 346 49.94 346zm19.22 36.6a3.23 3.23 0 0 0 2.5 1.34s-1.72 1.6-1.72 5.27 4.83 6.8 4.83 6.8-12.83 3.45-19.22-.78-12-14.55-13-20a8.16 8.16 0 0 1 3-8.16 11.15 11.15 0 0 0 .28 6.83c1.33 3.9 4.94 8.9 9.17 10.83s10.27 2.54 14.16-2.13z" class="Q"/><path d="M235.38 275l-107.88 8.5 18.32 229.85 4.9 1.45.4 4.9-4.62 2.18 1.37 17.3 107.88-8.52-1.36-17.23-4.75-1.5-.36-4.52 4.44-2.4L235.38 275z" fill="#8ac349"/><g fill="#70a23d"><path d="M135.5 282.88l-8 .63 18.32 229.85 4.82 1.43 3.32-.25-18.47-231.66z"/><path d="M150.75 514.78l98.398-7.848.393 4.924-98.398 7.848z"/></g><circle cx="203.01" cy="494.94" r="9.36" class="Q"/><path d="M196.563 494.13l12.84-1.024.22 2.75-12.84 1.024z"/><path d="M202.163 501.234l-.99-12.4 2.79-.223.99 12.4z"/><circle cx="187.4" cy="297.56" r="9.36" class="Q"/><path d="M180.94 296.746l12.84-1.024.22 2.75-12.84 1.024z"/><path d="M956.04 412c4 6.7.85 12.14-7 12.07l-80.5-.76c-7.8-.07-11-5.66-7.1-12.4l39.24-68.08c3.9-6.75 10.32-6.8 14.3-.08z" class="T"/><g fill="none" stroke="#000" class="U V"><path d="M944.76 407.6c2.34 4.05.43 7.37-4.25 7.37h-62.9c-4.68 0-6.6-3.3-4.26-7.36l31.4-54.5c2.34-4.05 6.16-4.06 8.5 0z"/><path d="M909.05 372.15v23.26" class="W"/></g><circle cx="908.81" cy="403.93" r="3.04"/><path d="M601.05 413.2c4 6.7.84 12.14-7 12.06l-80.5-.75c-7.8-.07-11-5.66-7.1-12.4l39.28-68.1c3.9-6.75 10.33-6.8 14.3-.08z" class="T"/><g fill="none" stroke="#000" class="U V"><path d="M589.77 408.82c2.34 4.05.43 7.37-4.25 7.37l-62.9.05c-4.68 0-6.6-3.3-4.26-7.36l31.4-54.5c2.33-4.05 6.16-4.06 8.5 0z"/><path d="M554.05 373.36v23.26" class="W"/></g><circle cx="553.82" cy="405.13" r="3.04"/><path d="M306.7 413.43c4 6.7.84 12.14-6.95 12.07l-80.5-.76c-7.8-.07-11-5.66-7.1-12.4l39.26-68.08c3.9-6.75 10.33-6.8 14.3-.08z" class="T"/><g fill="none" stroke="#000" class="U V"><path d="M295.44 409c2.35 4 .43 7.37-4.24 7.37h-62.9c-4.68 0-6.6-3.3-4.26-7.36l31.4-54.4c2.33-4.05 6.16-4.05 8.5 0z"/><path d="M259.7 373.58v23.26" class="W"/></g><circle cx="259.48" cy="405.36" r="3.04"/><g class="Q"><path d="M41.04 61.43v-34.5H52.7a19.58 19.58 0 0 1 8.25 1.31C64.67 29.97 67 33.93 67 38.6c0 6.4-3.54 12-13.42 12h-4.14v10.84zm12.2-18.55c3.54 0 5.32-1.2 5.32-4.15 0-2.8-1.73-4-5.64-4h-3.5v8.2zM87.2 61.43l-8-11.14h-.1v11.14h-8.4v-34.5h11.28a21.36 21.36 0 0 1 8.16 1.26 11.41 11.41 0 0 1 6.31 10.63c0 5.45-3.27 9.93-8.58 10.86l9.37 11.74zm-4.75-17.15c3.5 0 5.64-1.63 5.64-4.94 0-3-2.24-4.66-5.55-4.66h-3.4v9.6zm18.68 17.15v-34.5h19.16v7.74h-10.72V40h10.4v7.74h-10.4v5.96h10.72v7.73zm33.75 0l-11.5-34.5h9l6.95 24.2h.12l7-24.2h9.1L144 61.43zm24.56 0v-34.5h19.16v7.74h-10.76V40h10.4v7.74h-10.4v5.96h10.72v7.73zm46 0l-13.22-21.07.22 21.07H184v-34.5h7.6l13.44 21.82-.37-21.82h8.44v34.5zm18.1 0V34.68h-6.8v-7.74h22.37v7.74h-6.76v26.75zm33.52 0v-34.5h8.8v34.5zm36.5 0l-13.24-21.07.23 21.07h-8.43v-34.5h7.6l13.42 21.82-.37-21.82h8.43v34.5zm25.78-34.5h8.8v21.3c0 3.5-.37 6.1-1.16 7.8-1.6 3.3-5.1 6.06-10.63 6.06-6.7 0-11.7-4.15-11.7-11.52v-.23h9.37c.14 2.75 1 4 2.65 4s2.66-1 2.66-4.2zm32.68 0h8.8v21.12c0 3.6-.56 6.3-1.73 8.15-2.28 3.7-6.15 5.88-11.37 5.88a14.4 14.4 0 0 1-7.36-1.73c-4.06-2.38-6-5.6-6-12.26V26.94h8.8V48c0 4.3 1.35 6.4 4.48 6.4s4.38-1.5 4.38-6.34zm31.47 34.5l-8-11.14h-.06v11.14H367v-34.5h11.28a21.26 21.26 0 0 1 8.15 1.26 11.41 11.41 0 0 1 6.34 10.63c0 5.45-3.26 9.93-8.57 10.86l9.37 11.74zm-4.8-17.15c3.5 0 5.64-1.63 5.64-4.94 0-3-2.24-4.66-5.55-4.66h-3.35v9.6zm25.5 17.15V48.9l-10.3-22h9.54l5.13 13.84 5.17-13.84h9.47l-10.2 22v12.53zm58.24 0l-1.68-5h-12l-1.82 5h-9.46l13.85-34.5h6.94l13.7 34.5zM454.9 37.7l-.14-.05-3.5 11.8h7.2zM497 61.43l-13.23-21.07.23 21.07h-8.44v-34.5h7.6l13.42 21.82-.37-21.82h8.44v34.5zm13.5 0v-34.5h11.75c4.28 0 7.7.75 10.1 2.1 4.9 2.8 8 8.1 8 15.15 0 11.37-6.7 17.24-17.48 17.24zm12.77-7.73c5.08 0 8.25-3.17 8.25-9.47 0-6.15-3.12-9.55-8.2-9.55h-4v19zm53.17 7.73l-8-11.14v11.14H560v-34.5h11.28a21.36 21.36 0 0 1 8.16 1.26 11.41 11.41 0 0 1 6.34 10.63c0 5.45-3.27 9.93-8.58 10.86l9.37 11.74zm-4.8-17.15c3.5 0 5.64-1.63 5.64-4.94 0-3-2.24-4.66-5.55-4.66h-3.3v9.6zm18.8 17.15v-34.5h19.16v7.74h-10.77V40h10.4v7.74h-10.4v5.96h10.72v7.73zm24.56 0v-34.5h11.65a19.64 19.64 0 0 1 8.25 1.31c3.73 1.72 6.06 5.68 6.06 10.34 0 6.4-3.54 12-13.42 12h-4.1v10.84zm12.2-18.55c3.54 0 5.3-1.2 5.3-4.15 0-2.8-1.72-4-5.64-4h-3.45v8.2zm17.7 18.55v-34.5h8.8V53.7h10.2v7.73zm46.1 0l-1.67-5h-12l-1.82 5h-9.46l13.84-34.5h6.95l13.7 34.5zm-7.55-23.72l-.14-.05-3.54 11.8H687zm43.3 2.3a9 9 0 0 0-8.31-6c-5.5 0-9.23 4.7-9.23 10.06 0 5.6 3.82 10.26 9.27 10.26 3.5 0 6.48-2 8.3-5.83H736a18.18 18.18 0 0 1-30.3 8.39 17.48 17.48 0 0 1-5.31-13.24c0-9.13 7.87-17.38 17.76-17.38a17.49 17.49 0 0 1 12 4.24 16.08 16.08 0 0 1 5.82 9.5zm13.8 21.43v-34.5h19.16v7.74H749V40h10.4v7.74H749v5.96h10.72v7.73zm-691.9 45V93.9l-10.3-22h9.55l5.13 13.85L58.2 71.9h9.47l-10.22 22v12.54zM67.85 90c0-10.67 7.7-18.7 18.17-18.7 10.07 0 18.23 7.8 18.23 17.67a17.81 17.81 0 0 1-17.81 18.1c-9.6 0-18.6-6.9-18.6-17.08zm27.6-.77c0-5.4-3.87-10.23-9.42-10.23s-9.36 4.6-9.36 10.07c0 5.7 3.86 10.25 9.5 10.25 5.46.02 9.28-4.6 9.28-10.1zm31.13-17.3h8.86v21.12c0 3.6-.56 6.3-1.72 8.16-2.3 3.68-6.16 5.87-11.38 5.87a14.5 14.5 0 0 1-7.36-1.72c-4.06-2.38-6-5.6-6-12.26V71.93h8.8V93c0 4.3 1.35 6.38 4.47 6.38s4.38-1.5 4.38-6.34zm31.47 34.5l-8-11.14h-.1v11.14h-8.44v-34.5h11.28a21.36 21.36 0 0 1 8.16 1.26 11.42 11.42 0 0 1 6.34 10.63c0 5.45-3.27 9.93-8.58 10.86l9.37 11.75zm-4.8-17.16c3.5 0 5.64-1.63 5.64-4.94 0-3-2.24-4.66-5.55-4.66H150v9.6zm33.2 17.16v-34.5h11a26.35 26.35 0 0 1 5.5.42c3.92.9 7.18 3.92 7.18 8.58a7.76 7.76 0 0 1-4 7 7.85 7.85 0 0 1 5.69 8 9.75 9.75 0 0 1-4 8.16c-2.7 1.9-4.47 2.33-9.93 2.33zM198.33 85c2.2 0 3.36-.93 3.36-2.75s-1.12-2.6-3.3-2.6h-3.55V85zm1 13.66c2.48 0 4-1.07 4-3.3 0-2-1.35-3-4-3h-4.57v6.3zm39 7.77l-1.68-5h-12l-1.82 5h-9.4l13.84-34.5h7l13.7 34.5zm-7.55-23.73h-.14l-3.55 11.8h7.23zm23.66 23.73V79.67h-6.8v-7.74H270v7.74h-6.76v26.76zm24.16 0V79.67h-6.8v-7.74h22.38v7.74h-6.74v26.76zm19.12 0v-34.5h19.16v7.74h-10.72V85h10.4v7.74h-10.4v5.92h10.72v7.74zm41.12 0l-8-11.14h-.1v11.14h-8.4v-34.5h11.28a21.26 21.26 0 0 1 8.15 1.26 11.42 11.42 0 0 1 6.34 10.63c0 5.45-3.26 9.93-8.57 10.86l9.37 11.75zm-4.8-17.16c3.5 0 5.64-1.63 5.64-4.94 0-3-2.24-4.66-5.55-4.66h-3.36v9.6zm18.74 17.16v-34.5h8.8v34.5zm15.06 0v-34.5H387v7.74h-10.72V85h10.4v7.74h-10.4v5.92H387v7.74zM405.97 82c-.37-2.47-1.4-3.35-3.12-3.35a2.87 2.87 0 0 0-3 2.7c0 2.05 1.86 3 5.64 4.62 7.6 3.26 9.5 6 9.5 10.53 0 6.67-4.57 10.58-12 10.58s-12.45-3.9-12.45-11.33V95h8.77c0 2.84 1.44 4.7 3.63 4.7a3.29 3.29 0 0 0 3.31-3.31c0-2.75-3.82-4-6.94-5.22-5.64-2.3-8.2-5.27-8.2-9.75 0-5.87 5.7-10.16 12-10.16a13.06 13.06 0 0 1 6.11 1.45c3.68 1.9 5.45 4.66 5.5 9.27zm27.6 24.43v-34.5h8.8v34.5zm15.06 0v-34.5h18.8v7.74h-10.4v5.88h10v7.73h-10v13.15zm17.8 0V98.5h8v7.93zm14.6 0V98.5h8.06v7.93zm14.63 0V98.5h8.07v7.93zm-449.46 73v-14h-3.53v-1.4h8.58v1.4h-3.5v14zm15.86 0v-6.33c0-2.55-1.53-4-3.53-4-2.2 0-3.55 1.68-3.55 3.9v6.43h-1.45v-15.37h1.45v5.46a4.11 4.11 0 0 1 3.49-1.75c3.14 0 5 2.16 5 5.32v6.33zm5.96-5.15a4.53 4.53 0 0 0 4.42 4.12 4.31 4.31 0 0 0 4.07-2.68h1.53a5.93 5.93 0 1 1-5.6-7.94 6.08 6.08 0 0 1 6 6.07v.43zm8.87-1.3a4.47 4.47 0 0 0-8.87 0zm4.55 6.45v-11.36h1.46v1.64c.5-1.18 1.37-1.82 3.2-1.93v1.54a3.27 3.27 0 0 0-3.22 3.41v6.7zm7.86-5.15a4.51 4.51 0 0 0 4.4 4.12 4.31 4.31 0 0 0 4.07-2.68h1.54a5.93 5.93 0 1 1-5.61-7.94 6.08 6.08 0 0 1 6 6.07v.43zm8.86-1.3a4.47 4.47 0 0 0-8.86 0zm11.12-6.3v-2.6h1.45v2.6zm0 12.75v-11.36h1.45v11.36zm9.35-8.55a1.74 1.74 0 0 0-1.71-1.79 1.69 1.69 0 0 0-1.72 1.7c0 .84.58 1.42 2 1.87 2.76.92 3.3 2 3.3 3.64a3.26 3.26 0 0 1-3.57 3.4 3.39 3.39 0 0 1-3.49-3.55v-.08h1.46c0 1.52.8 2.33 2 2.33a1.9 1.9 0 0 0 2.12-2c0-1.1-.7-1.7-2-2.18-2-.73-3.26-1.3-3.26-3.24a3.1 3.1 0 0 1 3.24-3.16 3 3 0 0 1 3.09 3.1zm19.73 8.55v-1.24a3.74 3.74 0 0 1-3.45 1.62c-3.5 0-5.77-2.68-5.77-6.17s2.34-6.13 5.7-6.13a4.48 4.48 0 0 1 3.38 1.37v-4.8h3.45v15.36zm0-5.8a2.92 2.92 0 1 0-2.95 3 2.89 2.89 0 0 0 2.97-3zm15.27 5.8v-1.24h-.05a3.67 3.67 0 0 1-3.38 1.64c-3.4 0-5.77-2.68-5.77-6.17a5.89 5.89 0 0 1 5.77-6.15 3.89 3.89 0 0 1 3.38 1.62h.05v-1.22h3.44v11.52zm0-5.77a2.93 2.93 0 0 0-2.93-2.93 2.94 2.94 0 1 0 2.93 2.93zm21.04 5.77v-6.2c0-1.8-.58-2.47-1.77-2.47s-1.9.8-1.9 2.3v6.37h-3.45v-6.35c0-1.5-.54-2.33-1.72-2.33-1.35 0-1.95.88-1.95 2.47v6.2h-3.43V167.9h3.22v1.22a3.36 3.36 0 0 1 3.18-1.62 3.63 3.63 0 0 1 3.32 2.06 4.18 4.18 0 0 1 3.66-2.06c2.57 0 4.28 1.58 4.28 4.8v7.12zm15.37 0v-1.24a3.7 3.7 0 0 1-3.39 1.64c-3.4 0-5.77-2.68-5.77-6.17a5.89 5.89 0 0 1 5.77-6.15 3.91 3.91 0 0 1 3.39 1.62v-1.22h3.45v11.52zm0-5.77a2.93 2.93 0 0 0-2.93-2.93 2.94 2.94 0 1 0 2.93 2.93zm15.26 4.42a3.44 3.44 0 0 1-3.22 1.73 5.77 5.77 0 0 1-5.8-6.07 5.88 5.88 0 0 1 5.8-6.21 3.62 3.62 0 0 1 3.2 1.46v-1.08h3.45v10.3a7.76 7.76 0 0 1-.63 3.53c-.83 1.6-3.1 2.82-6 2.82-3.26 0-5.38-1.84-5.67-4.05h4a2 2 0 0 0 2 1.15c1.75 0 2.8-1.15 2.8-3.24zm0-4.36a2.8 2.8 0 1 0-2.83 2.87 2.73 2.73 0 0 0 2.85-2.87z"/><use xlink:href="#F"/><path d="M233.58 179.43v-8.9h-1.7v-2.6h1.7v-3.84h3.45v3.84h1.66v2.6h-1.66v8.9zm12.8.37a6.13 6.13 0 1 1 6.21-6.17 6 6 0 0 1-6.21 6.17zm2.76-6.13a2.77 2.77 0 1 0-2.76 2.91 2.83 2.83 0 0 0 2.76-2.91zm14.16 5.76v-8.9h-1.7v-2.6h1.7v-3.84h3.44v3.84h1.7v2.6h-1.66v8.9zm14.67 0v-6.33c0-1.5-.58-2.35-1.85-2.35s-1.93.77-1.93 2.2v6.48h-3.45v-15.36h3.45V169a3.25 3.25 0 0 1 3-1.5c2.64 0 4.24 1.66 4.24 4.68v7.24z"/><use xlink:href="#F" x="72.6"/><path d="M43.8 201.36V186h3.45v4.76a4.29 4.29 0 0 1 3.28-1.31 5.73 5.73 0 0 1 5.74 6.08c0 3.56-2.27 6.24-5.82 6.24a3.81 3.81 0 0 1-3.3-1.62v1.22zm9-5.77a2.85 2.85 0 1 0-5.69 0 2.82 2.82 0 0 0 2.8 3 2.89 2.89 0 0 0 2.91-3zm14.9 5.77v-1.25a3.7 3.7 0 0 1-3.39 1.65c-3.4 0-5.77-2.68-5.77-6.17a5.89 5.89 0 0 1 5.77-6.15 3.91 3.91 0 0 1 3.39 1.62v-1.23h3.45v11.53zm0-5.77a2.93 2.93 0 0 0-2.93-2.93 2.94 2.94 0 1 0 2.93 2.93zm7.57 5.77v-8.9h-1.7v-2.62h1.7V186h3.45v3.84h1.66v2.62h-1.66v8.9zm8.17 0v-8.9H81.7v-2.62h1.75V186h3.4v3.84h1.67v2.62h-1.67v8.9zm9.86-4.7a2.59 2.59 0 0 0 2.7 2.18 2.44 2.44 0 0 0 2.1-1.08h3.53a6.08 6.08 0 1 1-1.308-6.459 6.08 6.08 0 0 1 1.708 4.439 4 4 0 0 1-.09.92zm5.28-2.33a2.58 2.58 0 0 0-2.64-2 2.55 2.55 0 0 0-2.59 2zm6.17 7.04v-11.53H108v1.23a2.83 2.83 0 0 1 2.89-1.62v3.47c-2.06 0-2.72.8-2.72 2.1v6.35zm10.45 3.84l1.83-4.42-4.28-10.95h3.7l2.3 6.7 2.2-6.7h3.66l-5.78 15.37zm27.9-3.84l-2.4-7.56h-.05l-2.36 7.56h-1.64l-4.3-11.36h1.5l3.57 9.5h.02l2.6-8.14h1.27l2.62 8.14 3.6-9.5h1.5l-4.34 11.36zm8.4 0V190h1.45v1.64c.5-1.18 1.37-1.83 3.2-1.93v1.54a3.26 3.26 0 0 0-3.22 3.4v6.7zm17.04 0v-2a5.25 5.25 0 0 1-4.43 2.26 6 6 0 1 1 0-11.92 5.12 5.12 0 0 1 4.43 2.28v-2H170v11.36zm.08-5.67a4.62 4.62 0 0 0-4.57-4.67 4.65 4.65 0 1 0 4.57 4.67zm4.82 9.66V190h1.46v2a5.27 5.27 0 0 1 4.42-2.28 6 6 0 1 1 0 11.92 5.3 5.3 0 0 1-4.42-2.26v6zm5.9-14.35a4.62 4.62 0 0 0-4.53 4.67 4.57 4.57 0 0 0 4.55 4.63 4.65 4.65 0 1 0 0-9.3zm9.1 14.35V190h1.46v2a5.26 5.26 0 0 1 4.42-2.28 6 6 0 1 1 0 11.92 5.3 5.3 0 0 1-4.42-2.26v6zm5.9-14.35a4.62 4.62 0 0 0-4.53 4.67 4.57 4.57 0 0 0 4.55 4.63 4.65 4.65 0 1 0 0-9.3zm10.1 5.2a4.51 4.51 0 0 0 4.4 4.11 4.31 4.31 0 0 0 4.07-2.68h1.53a5.93 5.93 0 1 1-5.61-7.93 6.08 6.08 0 0 1 6 6.06v.44zm8.86-1.3a4.47 4.47 0 0 0-8.86 0zm4.5 6.46V190h1.46v1.64c.5-1.18 1.37-1.83 3.2-1.93v1.54a3.26 3.26 0 0 0-3.22 3.4v6.7zm13.18-5.6a5.94 5.94 0 1 1 5.92 5.88 6 6 0 0 1-5.92-5.88zm10.43-.14a4.49 4.49 0 1 0-4.49 4.71 4.57 4.57 0 0 0 4.52-4.71zm4.5 5.75V190h1.45v1.64c.5-1.18 1.37-1.83 3.2-1.93v1.54a3.26 3.26 0 0 0-3.22 3.4v6.7zm23.7 0v-2a5.28 5.28 0 0 1-4.43 2.26 6 6 0 1 1 0-11.92 5.39 5.39 0 0 1 4.43 2.24v-6h1.45v15.37zm.08-5.67a4.6 4.6 0 0 0-4.57-4.67 4.65 4.65 0 1 0 4.57 4.67zm5.88.5a4.52 4.52 0 0 0 4.4 4.11 4.3 4.3 0 0 0 4.07-2.68h1.54a5.92 5.92 0 1 1-5.61-7.93 6.07 6.07 0 0 1 6 6.06v.44zm8.88-1.3a4.47 4.47 0 0 0-8.87 0zm8.1 6.46l-4.8-11.36h1.56l4 9.55 4.13-9.55H299l-4.8 11.36zm8.75-12.76V186h1.45v2.62zm0 12.75V190h1.45v11.36zm16.24-3.35a6.15 6.15 0 0 1-11.75-2.45 6.07 6.07 0 0 1 6.1-5.86 6 6 0 0 1 5.65 3.72h-1.6a4.47 4.47 0 0 0-4-2.41 4.65 4.65 0 1 0 0 9.3 4.36 4.36 0 0 0 4-2.3zm3.96-1.8a4.51 4.51 0 0 0 4.4 4.11 4.3 4.3 0 0 0 4.07-2.68h1.54a5.93 5.93 0 1 1-5.61-7.93 6.07 6.07 0 0 1 6 6.06v.44zm8.87-1.3a4.55 4.55 0 0 0-4.47-3.88 4.5 4.5 0 0 0-4.4 3.88zm68.4-15.1v-14h-3.53v-1.4h8.57v1.4h-3.5v14zm15.84 0v-6.33c0-2.56-1.54-4-3.53-4-2.2 0-3.56 1.68-3.56 3.9v6.44h-1.45v-15.38h1.45v5.47h.05a4.05 4.05 0 0 1 3.48-1.75c3.14 0 5 2.16 5 5.32v6.33zm5.97-5.16a4.5 4.5 0 0 0 4.4 4.11 4.28 4.28 0 0 0 4.07-2.68h1.54a5.93 5.93 0 1 1-5.61-7.93 6.07 6.07 0 0 1 6 6.07v.43zm8.87-1.3a4.54 4.54 0 0 0-4.47-3.88 4.5 4.5 0 0 0-4.4 3.88zm11.16 6.46v-15.37h1.46v6a5.37 5.37 0 0 1 4.42-2.29 6 6 0 1 1 0 11.92 5.3 5.3 0 0 1-4.42-2.26v2zm5.9-10.34a4.65 4.65 0 1 0 0 9.3 4.65 4.65 0 1 0 0-9.3zm19.14 10.34v-2a5.22 5.22 0 0 1-4.42 2.26 6 6 0 1 1 0-11.92 5.1 5.1 0 0 1 4.42 2.29v-2h1.46v11.36zm.1-5.67a4.62 4.62 0 0 0-4.57-4.67 4.65 4.65 0 1 0 4.57 4.67zm6.16 5.67v-10h-2.4v-1.3h2.4v-4h1.45v4h2.72v1.3h-2.72v10zm7.87 0v-10h-2.4v-1.3h2.4v-4h1.45v4h2.72v1.3h-2.72v10zm7.48-5.16a4.5 4.5 0 0 0 4.4 4.11 4.28 4.28 0 0 0 4.07-2.68h1.54a5.93 5.93 0 1 1-5.61-7.93 6.07 6.07 0 0 1 6 6.07v.43zm8.87-1.3a4.55 4.55 0 0 0-4.47-3.88 4.5 4.5 0 0 0-4.4 3.88zm4.53 6.46v-11.36h1.45v1.64c.5-1.18 1.37-1.83 3.2-1.93v1.54a3.27 3.27 0 0 0-3.22 3.4v6.7zm8.5 3.98l2-4.36-4.42-11h1.54l3.6 9.06 3.86-9.06h1.54l-6.58 15.35zM526.28 167v-2.62h1.45V167zm0 12.75v-11.32h1.45v11.36zm9.35-8.5a1.73 1.73 0 0 0-1.71-1.79 1.69 1.69 0 0 0-1.72 1.7c0 .83.58 1.4 2 1.87 2.76.92 3.3 2 3.3 3.64a3.26 3.26 0 0 1-3.57 3.4 3.39 3.39 0 0 1-3.49-3.55v-.08h1.46c0 1.5.8 2.32 2 2.32a1.9 1.9 0 0 0 2.12-2c0-1.1-.7-1.7-2-2.18-2-.73-3.26-1.3-3.26-3.24a3.1 3.1 0 0 1 3.24-3.16 3 3 0 0 1 3.09 3.1zM399.13 197a2.58 2.58 0 0 0 2.7 2.18 2.41 2.41 0 0 0 2.1-1.08h3.5a6.08 6.08 0 1 1-5.69-8.3 6.07 6.07 0 0 1 6.08 6.29 4.53 4.53 0 0 1-.08.91zm5.28-2.32a2.72 2.72 0 0 0-5.24 0zm13.25 7.04l-2.3-3.57-2.34 3.57h-4.16l4.4-6.17-3.9-5.36h4.14l1.86 3 1.85-3h4.1l-3.85 5.36 4.47 6.17zm6.34 3.84V190.2h3.24v1.27h.06a4.43 4.43 0 0 1 3.61-1.66c3.28 0 5.6 2.68 5.6 6.27a5.74 5.74 0 0 1-5.61 6 4.48 4.48 0 0 1-3.47-1.43v4.88zm9.07-9.6a2.89 2.89 0 1 0 0 .03z"/><use xlink:href="#G"/><path d="M458.87 193.43c0-.66-.5-.87-1.06-.87s-1 .33-1 .77c0 .62.56.93 2.16 1.35 2.74.72 3.63 1.83 3.63 3.5 0 2.4-2.08 3.92-4.7 3.92s-4.45-1.47-4.7-3.82h3.43a1.18 1.18 0 0 0 1.31 1.06c.6 0 1.2-.35 1.2-.9s-.4-1-2.12-1.52c-2.9-.9-3.67-2-3.67-3.38 0-2.3 2.14-3.76 4.46-3.76 2.5 0 4.26 1.37 4.43 3.63zm9.08 3.57a2.58 2.58 0 0 0 2.7 2.18 2.42 2.42 0 0 0 2.1-1.08h3.53a6.08 6.08 0 1 1-5.69-8.3 6.07 6.07 0 0 1 6.08 6.29 4.53 4.53 0 0 1-.08.91zm5.28-2.32a2.72 2.72 0 0 0-5.24 0zm14.9 7.04v-1.25a3.74 3.74 0 0 1-3.45 1.62c-3.5 0-5.77-2.68-5.77-6.17s2.34-6.12 5.7-6.12a4.44 4.44 0 0 1 3.38 1.37v-4.82h3.43v15.37zm0-5.82a2.92 2.92 0 1 0-3 3 2.89 2.89 0 0 0 3.02-3zm14.54 5.82v-8.9h-1.7v-2.62h1.7v-3.84h3.45v3.84h1.66v2.62h-1.66v8.9zm12.76.35a6.13 6.13 0 1 1 6.21-6.17 6 6 0 0 1-6.21 6.17zm2.76-6.13a2.77 2.77 0 1 0-2.76 2.91 2.83 2.83 0 0 0 2.8-2.91zm23.05 5.78l-1.93-7.46-1.93 7.46h-3.2l-3.53-11.53h3.57l1.73 7.17 1.9-7.17h2.9l1.9 7.17 1.72-7.17h3.55l-3.5 11.53zm17.2 0v-1.25a3.69 3.69 0 0 1-3.38 1.64c-3.4 0-5.78-2.68-5.78-6.17a5.89 5.89 0 0 1 5.78-6.14 3.89 3.89 0 0 1 3.38 1.62v-1.23h3.45v11.53zm0-5.78a2.91 2.91 0 0 0-2.92-2.92 2.94 2.94 0 1 0 2.92 2.92zm7.6 5.78v-8.9h-1.7v-2.62h1.7v-3.84h3.45v3.84h1.66v2.62h-1.66v8.9zm9.9-4.72a2.57 2.57 0 0 0 2.7 2.18 2.41 2.41 0 0 0 2.09-1.08h3.53a6.12 6.12 0 1 1 .4-2 4.53 4.53 0 0 1-.08.91zm5.27-2.32a2.58 2.58 0 0 0-2.64-2 2.56 2.56 0 0 0-2.59 2zm6.22 7.04V190.2h3.24v1.23a2.83 2.83 0 0 1 2.89-1.62v3.47c-2.06 0-2.72.78-2.72 2.1v6.36zm7.06 0v-3.53h3.6v3.53zm74.65-20.24v-14h-3.53v-1.4h8.57v1.4h-3.5v14zm15.85 0v-6.33c0-2.56-1.54-4-3.53-4-2.2 0-3.56 1.68-3.56 3.9v6.44h-1.47v-15.4h1.45v5.46a4.07 4.07 0 0 1 3.48-1.74c3.14 0 5 2.16 5 5.32v6.33z"/><use xlink:href="#H"/><path d="M704.36 181.48v-11.36h1.45v1.64c.5-1.18 1.37-1.83 3.2-1.93v1.54a3.26 3.26 0 0 0-3.22 3.4v6.7z"/><use xlink:href="#H" x="21.27"/><path d="M732.2 168.73v-2.62h1.46v2.62zm0 12.75v-11.36h1.46v11.36zm9.36-8.56a1.72 1.72 0 0 0-1.7-1.78 1.69 1.69 0 0 0-1.73 1.7c0 .83.58 1.4 2 1.87 2.76.9 3.3 2 3.3 3.63a3.26 3.26 0 0 1-3.57 3.41 3.38 3.38 0 0 1-3.49-3.55v-.08h1.45c0 1.5.8 2.32 2 2.32a1.9 1.9 0 0 0 2.11-2c0-1.1-.7-1.7-2-2.18-2-.73-3.26-1.3-3.26-3.24a3.1 3.1 0 0 1 3.24-3.16 3 3 0 0 1 3.09 3.09zm21.2 8.56v-2a5.25 5.25 0 0 1-4.43 2.26 6 6 0 1 1 0-11.92 5.14 5.14 0 0 1 4.43 2.28v-2h1.45v11.36zm.08-5.67a4.62 4.62 0 0 0-4.57-4.67 4.65 4.65 0 1 0 4.57 4.67zm16.22-2.6c0-.66-.5-.87-1-.87s-1 .33-1 .77c0 .62.56.93 2.16 1.35 2.74.73 3.63 1.83 3.63 3.5 0 2.4-2.07 3.92-4.7 3.92s-4.44-1.47-4.7-3.82h3.42a1.2 1.2 0 0 0 1.31 1.06c.6 0 1.2-.35 1.2-.9s-.4-1-2.12-1.52c-2.9-.9-3.68-2-3.68-3.38 0-2.3 2.14-3.76 4.47-3.76 2.5 0 4.25 1.37 4.42 3.63zm6.98 8.28v-8.9h-1.7V170h1.7v-3.84h3.45V170h1.66v2.62h-1.66v8.9zm7.4 0V170h3.24v1.23a2.83 2.83 0 0 1 2.89-1.62v3.4c-2.06 0-2.72.8-2.72 2.1v6.36zm16.92 0v-1.25a3.7 3.7 0 0 1-3.39 1.64c-3.4 0-5.77-2.67-5.77-6.16a5.89 5.89 0 0 1 5.77-6.15 3.92 3.92 0 0 1 3.39 1.62V170h3.45v11.53zm0-5.77a2.93 2.93 0 0 0-2.93-2.93 2.94 2.94 0 1 0 2.93 2.93zm14.02 5.77v-6.4c0-1.55-.54-2.28-1.8-2.28s-2 .77-2 2.32v6.36h-3.45V170h3.22v1.23a3.31 3.31 0 0 1 3.14-1.62c2.08 0 4.28 1.16 4.28 4.57v7.35zm15.2-1.35a3.43 3.43 0 0 1-3.21 1.72 5.76 5.76 0 0 1-5.8-6.06 5.88 5.88 0 0 1 5.8-6.21 3.62 3.62 0 0 1 3.19 1.45V170H843v10.3a8 8 0 0 1-.62 3.54c-.83 1.6-3.1 2.82-6 2.82-3.26 0-5.38-1.85-5.67-4.05h4a2 2 0 0 0 2 1.14c1.74 0 2.8-1.14 2.8-3.24zm0-4.36a2.79 2.79 0 1 0-2.82 2.86 2.72 2.72 0 0 0 2.84-2.86zm9.54 1a2.59 2.59 0 0 0 2.7 2.18 2.45 2.45 0 0 0 2.1-1.08h3.52a6.08 6.08 0 1 1-1.314-6.456 6.08 6.08 0 0 1 1.705 4.436 4.7 4.7 0 0 1-.08.92zm5.27-2.33a2.72 2.72 0 0 0-5.23 0zM666.74 203.4V188h3.45v4.75a4.29 4.29 0 0 1 3.28-1.3 5.72 5.72 0 0 1 5.73 6.08c0 3.55-2.26 6.23-5.82 6.23a3.79 3.79 0 0 1-3.3-1.62v1.23zm9-5.78a2.85 2.85 0 1 0-5.69 0 2.82 2.82 0 0 0 2.81 3 2.88 2.88 0 0 0 2.89-3zm13.64 5.78v-1.23a2.89 2.89 0 0 1-3 1.6c-2.43 0-4.45-1.45-4.45-4.73v-7.17h3.45v6.46c0 1.52.54 2.22 1.85 2.22s2-.87 2-2.28v-6.4h3.45v11.53zm6.56 0v-11.53h3.24v1.23a2.81 2.81 0 0 1 2.88-1.62v3.5c-2 0-2.72.8-2.72 2.1v6.36z"/><use xlink:href="#I"/><path d="M718.73 190.65V188h3.45v2.6zm0 12.76v-11.53h3.45v11.53z"/><use xlink:href="#I" x="20.73"/><path d="M747.94 202.06a3.45 3.45 0 0 1-3.22 1.72 5.76 5.76 0 0 1-5.8-6.06 5.88 5.88 0 0 1 5.8-6.21 3.65 3.65 0 0 1 3.2 1.45v-1.08h3.52v10.3a7.78 7.78 0 0 1-.62 3.53c-.83 1.6-3.1 2.83-6 2.83-3.26 0-5.38-1.85-5.67-4h4a2 2 0 0 0 2 1.14c1.75 0 2.8-1.14 2.8-3.24zm0-4.36a2.8 2.8 0 1 0-2.83 2.86 2.73 2.73 0 0 0 2.85-2.86zm18.9-2.58c0-.66-.5-.87-1.06-.87s-1 .33-1 .77c0 .62.56.93 2.16 1.35 2.74.72 3.64 1.82 3.64 3.5 0 2.4-2.08 3.92-4.7 3.92s-4.44-1.47-4.7-3.82h3.43a1.18 1.18 0 0 0 1.31 1.06c.6 0 1.2-.35 1.2-.9s-.4-1-2.12-1.52c-2.9-.9-3.67-2-3.67-3.4 0-2.28 2.13-3.75 4.46-3.75 2.5 0 4.26 1.37 4.42 3.63zm20.54 8.28v-6.2c0-1.8-.58-2.47-1.76-2.47s-1.9.78-1.9 2.3v6.38h-3.45v-6.36c0-1.5-.54-2.32-1.73-2.32-1.35 0-2 .87-2 2.47v6.2h-3.45v-11.53h3.22v1.23h.14a3.36 3.36 0 0 1 3.17-1.62 3.64 3.64 0 0 1 3.33 2 4.15 4.15 0 0 1 3.65-2c2.58 0 4.28 1.57 4.28 4.8v7.13zm9.5-4.7a2.57 2.57 0 0 0 2.7 2.18 2.41 2.41 0 0 0 2.09-1.08h3.54a6.08 6.08 0 1 1-1.318-6.449 6.08 6.08 0 0 1 1.708 4.439 4.53 4.53 0 0 1-.08.91zm5.27-2.32a2.58 2.58 0 0 0-2.64-2 2.56 2.56 0 0 0-2.59 2zm6.2 7.02V188h3.45v15.37zm6.78 0V188h3.44v15.37zm13.64-5.6a5.94 5.94 0 1 1 5.92 5.88 6 6 0 0 1-5.92-5.88zm10.43-.15a4.49 4.49 0 1 0-4.49 4.72 4.58 4.58 0 0 0 4.49-4.72zm4.5 5.75v-11.36h1.45v1.64c.5-1.2 1.37-1.83 3.2-1.93v1.53a3.27 3.27 0 0 0-3.22 3.41v6.7zm-169.53 21.93v-1.22a2.89 2.89 0 0 1-3 1.6c-2.43 0-4.44-1.46-4.44-4.74v-7.16h3.44v6.46c0 1.5.55 2.22 1.85 2.22s2-.87 2-2.3v-6.4h3.44v11.52zm13.82 0v-6.4c0-1.56-.54-2.3-1.8-2.3s-2 .77-2 2.33v6.35h-3.42v-11.5h3.22v1.2a3.32 3.32 0 0 1 3.14-1.62c2.07 0 4.27 1.16 4.27 4.57v7.35zm13.73 0v-1.22a2.9 2.9 0 0 1-3 1.6c-2.43 0-4.45-1.46-4.45-4.74v-7.16h3.45v6.46c0 1.5.54 2.22 1.85 2.22s2-.87 2-2.3v-6.4H705v11.52zm11.48-8.28c0-.67-.5-.88-1-.88s-1 .34-1 .77c0 .63.56.94 2.16 1.35 2.74.73 3.63 1.83 3.63 3.5 0 2.4-2.07 3.93-4.7 3.93s-4.45-1.48-4.7-3.82H711a1.2 1.2 0 0 0 1.31 1.06c.6 0 1.2-.36 1.2-.9s-.4-1-2.12-1.5c-2.9-.9-3.68-2-3.68-3.4 0-2.28 2.14-3.76 4.47-3.76 2.5 0 4.25 1.37 4.42 3.64zm13.72 8.28v-1.22a2.89 2.89 0 0 1-3 1.6c-2.43 0-4.44-1.46-4.44-4.74v-7.16h3.45v6.46c0 1.5.54 2.22 1.84 2.22s2-.87 2-2.3v-6.4h3.44v11.52zm15.24 0v-1.24a3.72 3.72 0 0 1-3.39 1.64c-3.4 0-5.77-2.68-5.77-6.17a5.89 5.89 0 0 1 5.77-6.15 3.91 3.91 0 0 1 3.39 1.62v-1.22h3.45v11.52zm0-5.77a2.93 2.93 0 0 0-2.93-2.93 2.94 2.94 0 1 0 2.93 2.93zm6.9 5.77V210h3.45v15.37zm18.92-8.28c0-.67-.5-.88-1.06-.88s-1 .34-1 .77c0 .63.57.94 2.16 1.35 2.75.73 3.64 1.83 3.64 3.5 0 2.4-2.08 3.93-4.7 3.93s-4.45-1.48-4.7-3.82h3.43a1.19 1.19 0 0 0 1.31 1.06c.6 0 1.2-.36 1.2-.9s-.4-1-2.12-1.5c-2.9-.9-3.67-2-3.67-3.4 0-2.28 2.14-3.76 4.46-3.76 2.5 0 4.26 1.37 4.43 3.64zm20.54 8.28v-6.2c0-1.8-.58-2.47-1.76-2.47s-1.9.8-1.9 2.3v6.37h-3.45V219c0-1.5-.54-2.33-1.72-2.33-1.35 0-2 .87-2 2.47v6.2h-3.44V213.8h3.22v1.2a3.36 3.36 0 0 1 3.17-1.62 3.65 3.65 0 0 1 3.33 2.06 4.16 4.16 0 0 1 3.65-2.06c2.58 0 4.28 1.58 4.28 4.8v7.12z"/><use xlink:href="#G" x="355.92" y="23.63"/><path d="M816.55 225.33l-3.26-5.54v5.54h-3.45V210h3.45v8l3.2-4.17h4.1l-4.34 5.06 4.2 6.46zm8.4-4.7a2.58 2.58 0 0 0 2.7 2.18 2.42 2.42 0 0 0 2.1-1.08h3.53a6.08 6.08 0 1 1-5.69-8.31 6.07 6.07 0 0 1 6.08 6.29 4.57 4.57 0 0 1-.08.92zm5.28-2.33a2.73 2.73 0 0 0-5.24 0zm13.8 1.9a4.5 4.5 0 0 0 4.4 4.11 4.29 4.29 0 0 0 4.07-2.67h1.54a5.93 5.93 0 1 1-5.61-7.94 6.07 6.07 0 0 1 6 6.07v.43zm8.87-1.3a4.54 4.54 0 0 0-4.46-3.87 4.5 4.5 0 0 0-4.4 3.88zm19.84 6.45v-6.66c0-2.16-1-3.68-3.1-3.68s-3.1 1.5-3.1 3.72v6.62h-1.46v-6.64c0-2.23-1.08-3.7-3.1-3.7s-3.1 1.47-3.1 3.7v6.64h-1.46V214h1.45v1.3a3.56 3.56 0 0 1 3.1-1.6 4.25 4.25 0 0 1 3.82 2.18 4.36 4.36 0 0 1 3.82-2.18c2.93 0 4.55 2.16 4.55 4.84v6.8zm5-12.75V210h1.46v2.62zm0 12.75V214h1.46v11.36zm6.32 0v-10.05h-2.4V214h2.4v-4h1.45v4h2.72v1.3h-2.72v10.05zm7.87 0v-10.05h-2.4V214h2.4v-4h1.45v4h2.73v1.3h-2.73v10.05zm6.5-12.75V210h1.46v2.62zm0 12.75V214h1.46v11.36zm13.56 0V219c0-2.56-1.54-4-3.53-4-2.2 0-3.56 1.68-3.56 3.9v6.44h-1.47V214h1.45v1.46a4.08 4.08 0 0 1 3.48-1.75c3.14 0 5 2.16 5 5.32v6.33zm14.74-2.07a4.91 4.91 0 0 1-4.38 2.34 5.9 5.9 0 0 1-5.94-5.9 6 6 0 0 1 5.94-6 5.07 5.07 0 0 1 4.38 2.33v-2h1.46v10.16a5.31 5.31 0 0 1-5.55 5.67 5.75 5.75 0 0 1-5.81-4.18h1.53a4.38 4.38 0 0 0 4.26 2.87 3.88 3.88 0 0 0 4.11-4.15zm.1-3.6a4.5 4.5 0 1 0-4.51 4.63 4.63 4.63 0 0 0 4.51-4.63zm5.7 5.67v-2.6h1.54v2.6z"/></g></svg>